<svg xmlns="http://www.w3.org/2000/svg" viewBox="0 0 500 500"><g id="freepik--background-simple--inject-316"><path d="M34.71,109.49l.75,1a27.39,27.39,0,0,0,26.41,10.27,24.61,24.61,0,0,0,3.77-1A28.73,28.73,0,0,0,83.86,99.6c1.31-5.43,1.13-11.48,4.31-16,4.13-5.94,12.22-7.09,19.38-7.73s15.25-1.8,19.36-7.76c2.57-3.73,2.94-8.65,2.16-13.14C127,43.05,117.36,33.35,106.12,29.31S82.34,26.3,71,30c-15.87,5.24-30.24,16.1-37.86,31.12S25.47,95.39,34.71,109.49Z" style="fill:#f5f5f5"></path><circle cx="427.26" cy="63.65" r="31.35" style="fill:#f5f5f5"></circle><circle cx="74.54" cy="437.43" r="15.68" transform="translate(-287.48 180.83) rotate(-45)" style="fill:#f5f5f5"></circle><path d="M468.2,395.27c-11.45-7.57-29.4-4.26-35.56,8-2,4-2.77,8.69-5.16,12.53-2.79,4.49-7.51,7.36-12.11,9.95s-9.41,5.18-12.66,9.34a12.73,12.73,0,0,0-3,7.32,16.92,16.92,0,0,0,1.69,8.56c5.44,11.38,13.93,15.91,23.35,18,10.33,2.32,21.22-.95,30.39-6.24,11.9-6.86,22-17.68,25.5-31S479.65,402.84,468.2,395.27Z" style="fill:#f5f5f5"></path></g><g id="freepik--Earth--inject-316"><path d="M446.47,239c-.21-2.16-.46-4.28-.76-6.4s-.63-4.48-1-6.7q.57,3.33,1,6.7C446,234.72,446.26,236.84,446.47,239Z" style="fill:#FF725E"></path><path d="M429.11,265.53c-1.87-4.19-2.3-8.82-3.54-13.22-.66-2.36-1.78-4.88-4-5.92-1.48-.69-3.23-.6-4.8-1.08-5.66-1.68-7.2-9.48-12.55-11.91a18.67,18.67,0,0,0-5.39-1.1c-7.16-.84-14.57-3.29-19.07-8.86-1.49-1.79-2.61-3.91-4.42-5.38s-4.69-2.09-6.47-.6c1.51,3,3,6,4.48,8.95,1.36,2.69,2.75,5.47,5,7.44s5.69,3.05,8.44,1.8c.91-.42,1.82-1.11,2.84-1a3.09,3.09,0,0,1,1.85,1.17c3.9,4.27,2.63,11.36-1.18,15.73s-9.41,6.61-14.82,8.73c-1.93.75-4,1.53-6.05,1.17-3.74-.69-5.74-4.72-6.83-8.34-2.45-8-3.63-16.72-8.65-23.48-1.6-2.13-3.59-4.07-4.56-6.55-1-2.7-.79-5.84-2.42-8.2s-5.29-3.92-5.53-6.91c-.16-2.09,1.6-3.95,3.53-4.84s4.12-1.2,6.11-2c.79-.33,1.66-.9,1.69-1.73,0-1.26-1.75-1.77-2.2-2.93-.49-1.32.87-2.55,1.45-3.83,1.24-2.93-1.85-5.9-4.84-7.09s-6.56-2.07-7.95-4.94a16.57,16.57,0,0,1-1-4.27c-.69-3.62-3.39-7.12-7.07-7.72s-7.84,2.66-7.23,6.31c.36,2,1.87,3.56,2.69,5.41s.6,4.61-1.33,5.21c-3.18,1-6.23-4.79-8.89-2.81,1.09,3.68,2.15,7.35,3.24,11.06-4.18,2.1-9.17-1.7-11-6s-1.85-9.18-4-13.31-7.83-7.24-11.46-4.31c-.18,5.33,6.92,7.48,10.07,11.79,2.26,3.11,1.93,8.16-1.42,10.14s-8.62-1.47-7.35-5.09c.45-1.25,1.51-2.3,1.63-3.65.12-1.67-1.3-3-2.6-4.09-2-1.71-4.05-3.38-6.08-5.06a12.91,12.91,0,0,0-4.32-2.69c-4.17-1.2-8.35,2.15-10.55,5.83s-3.45,8.05-6.5,11.13c-4.39,4.49-12.7,4.75-16.82.06s-2-13.49,4.06-15.19c2.29-.63,5.2-.57,6.41-2.58,2.11-3.56-3.94-8.1-1.85-11.69,1.6-2.75,5.84-1.5,8.92-2.43s4.78-4,6.59-6.6,4.6-5.24,7.74-4.55c-.24-1.83-.48-3.8.34-5.45s3.11-2.75,4.62-1.67c-1.54,2.51.3,6,3,7.27s5.83,1,8.79.63,6.69-1.44,6.93-4.37c.09-1-.27-2,.09-2.87,1.3-3.5,7.83,1.31,10.34-1.5,1.45-1.46-.15-4.07-2.18-4.54s-4.08.23-6.13.3-4.57-1-4.66-3,2.18-3.44,2.42-5.41c.39-3.35-5.35-4.22-7.38-1.5s-1.3,6.47-.69,9.79.93,7.23-1.55,9.57c-1.06,1.58-3.81.74-4.71-.93s-.73-3.71-.88-5.59-1-4.07-2.87-4.58c-1.3-.36-2.69.27-4,.45-5.27.63-8.92-6.1-7.26-11.07s6.41-8.19,11-10.74c3.39-1.85,7.59-3.59,10.95-1.7,1.57.87,2.66,2.36,4.2,3.26,2.66,1.55,6,1,9,1.05a21.14,21.14,0,0,1,13.16,5c1.36,1.23,2.63,3.26,1.57,4.73s-4.44,1.88-3.87,3.71a6.56,6.56,0,0,0,8.22-5.24,5.44,5.44,0,0,1,3.18,4.43c3.84-3.86,11.22-3.29,14.36,1.16.85,1.17,1.45,2.58,2.66,3.38s3.33.39,3.48-1a2.87,2.87,0,0,0-.24-1.32c-.73-2-1.48-4-2.21-6,2.81-1.5,6.14.84,8,3.35,7.08,9.36,12.13,3.74,22.11,5.26,6.74,1,9.7,5.3,13.51,10.47,11.67,15.91,27.09,29,37.71,45.59,1.12,1.73,2.14,3.49,3.11,5.29-.18-.45-.33-.9-.51-1.35a184.75,184.75,0,0,0-15.42-31q-2-3.15-4-6.19c-.85-1.26-1.73-2.55-2.6-3.77-1.12-1.62-2.3-3.17-3.48-4.73-.94-1.26-1.88-2.48-2.85-3.68-.66-.84-1.36-1.67-2.05-2.51s-1.51-1.88-2.36-2.81l-2.54-2.9a9.55,9.55,0,0,0-.82-.9c-.87-1-1.81-2-2.75-3a.85.85,0,0,0-.27-.3c-.24-.27-.51-.54-.79-.81-.75-.84-1.57-1.64-2.35-2.45-1.3-1.32-2.63-2.63-4-3.89-1.11-1.11-2.26-2.15-3.44-3.2s-2.06-1.85-3.12-2.75-2.05-1.77-3.11-2.63c-1.27-1.08-2.57-2.13-3.9-3.17h0q-5.49-4.36-11.31-8.23c-1-.66-1.91-1.29-2.87-1.91s-2-1.26-2.94-1.86-2-1.22-3-1.79-2-1.2-3-1.77c-.82-.48-1.6-.93-2.42-1.34a12.81,12.81,0,0,0-1.24-.69c-1.72-1-3.48-1.89-5.23-2.75-.88-.45-1.76-.9-2.66-1.32-1.12-.57-2.27-1.11-3.42-1.61a2.66,2.66,0,0,0-.51-.24c-1-.48-2.06-1-3.12-1.41-1.48-.63-3-1.26-4.44-1.85-1.7-.69-3.39-1.38-5.11-2-1.91-.72-3.81-1.4-5.75-2s-3.9-1.29-5.86-1.89-3.93-1.13-5.93-1.67c-3.93-1-7.92-2-11.94-2.78-.06,0-.15,0-.22-.06-1.54-.3-3.08-.6-4.62-.84a1.32,1.32,0,0,0-.3-.06c-.67-.12-1.36-.24-2.06-.33-2.87-.48-5.78-.87-8.71-1.2-.33-.06-.69-.09-1.06-.12-.84-.11-1.69-.17-2.57-.26q-2.89-.27-5.83-.45c-2-.15-4.08-.24-6.14-.3s-4.29-.12-6.44-.12c-5.69,0-11.31.24-16.87.75-1.33.09-2.63.21-3.93.36s-2.72.29-4.09.47-2.72.36-4,.57-2.69.42-4.05.66c-1.15.18-2.33.39-3.48.63-2.84.54-5.65,1.13-8.43,1.79q-2,.45-3.9,1c-1.3.33-2.6.69-3.87,1-2.15.59-4.24,1.25-6.32,1.91h0c-1.7.57-3.42,1.14-5.08,1.71a.31.31,0,0,0-.12,0c-1.73.6-3.39,1.23-5.08,1.89l-.28.09c-1.54.6-3.08,1.23-4.59,1.85-1.91.78-3.78,1.62-5.63,2.46-1.57.71-3.11,1.43-4.62,2.18s-3.27,1.62-4.87,2.45l-.18.09c-1.54.81-3.09,1.65-4.6,2.51s-3.11,1.77-4.65,2.73h0c-1.46.86-2.88,1.73-4.3,2.63-.54.33-1.06.69-1.6,1.05-1.51.95-3,1.94-4.45,3-1.81,1.22-3.56,2.51-5.32,3.8-1.54,1.13-3,2.3-4.53,3.47a188.55,188.55,0,0,0-23.77,22.28c-2.57,2.81-5,5.68-7.35,8.61-2,2.52-3.93,5.06-5.77,7.69-1.66,2.29-3.27,4.62-4.81,7,1.54-2.37,3.15-4.7,4.81-7,.48-.06,1-.12,1.45-.15,2.72-.21,5.59-.12,8-1.29,2.27-1.1,3.87-3.11,5.93-4.54,5.26-3.71,13.88-4.4,15.3-10.62.48-2.09-.09-4.37.69-6.37,1.49-3.74,6.54-4.28,10.59-4.22,1.72,0,3.75.24,4.53,1.74a4.23,4.23,0,0,1-.18,3.47A32.57,32.57,0,0,1,133,143.31c-5.26,3.18-12.12,5.63-13.57,11.55.72,2,4.41,1.85,4.71,3.95.22,1.67-2,2.54-2.75,4-1.15,2.18,1.48,4.84,4,4.72s4.6-1.91,6.44-3.59c5.51-5,11.28-10.5,13.28-17.67.84-3,1.15-6.43,3.56-8.41,2.88-2.33,8-.72,9,2.84,2.38-1.31,6.1-2.3,7.34.15a12.12,12.12,0,0,1,.52,2.81c.78,3.83,6.08,5.57,6.62,9.43.63,4.45-5.14,6.76-9.65,7.44-4.08.63-8.16,1.26-12.24,1.92a11.47,11.47,0,0,0-5.08,1.61c-1.45,1.08-2.36,3.11-1.51,4.7a11.91,11.91,0,0,0,2.11,2.15c3.39,3.35.61,10.26-4.17,10.41-1.63.06-3.24-.54-4.87-.6-4.84-.21-8.68,4-11,8.23s-4,9-7.9,11.9c-6.22,4.64-17,3.56-20,10.68-1.21,2.87-.58,6.1-.09,9.18s.69,6.46-1.12,9-6.44,3.05-7.77.24a6.74,6.74,0,0,1-.18-4q1.08-6.65,2.11-13.28c.52-3.29,1-7-1-9.66-2.75-3.77-8.92-3.41-12.48-.39s-5,7.74-6,12.26c-.73,3.35-1.57,8.08-3.45,11.9h0c-.63,3.71-1.15,7.48-1.54,11.28s-.67,7.75-.82,11.7a16.35,16.35,0,0,0,1.55-1.44c1.9-1.94,5.74-10.17,9.19-6.13a3,3,0,0,1,.06,3.74c-1.06,1.34-3.18,1.64-4,3.11-1,1.73.39,3.89,2,5S78,256,79.12,257.66c2.21,3.14.09,7.9,2.24,11.1,1.84,2.75,5.77,2.93,9.13,3.29l1.15.18c.94-6.58,4-11.94,13.12-14,12.52-2.81,29,7.45,36,16.78,7.86,10.44,11.58,25.21,23.62,30.45,8.62,3.74,20.86,2.39,25.06,10.74,3.75,7.47-2.78,15.88-3.77,24.16-.64,5.48,1.17,10.92,1.6,16.4S186,368.69,181,371c-2.81,1.26-6.35,1.11-8.62,3.2-4,3.77-.73,11.55-4.75,15.32-1.42,1.31-3.38,1.79-5.11,2.66-9,4.52-8.79,17.68-4.59,26.8l.45,1a192.72,192.72,0,0,0,98,26.77A191.79,191.79,0,0,0,346,424.62h0A190.2,190.2,0,0,0,363,414.54a187.67,187.67,0,0,0,23.74-18.66,183.26,183.26,0,0,0,14.51-15c3.21-3.65,6.23-7.44,9.14-11.33,1.48-2,2.93-4,4.29-6.07A183.38,183.38,0,0,0,426,344.61a187.48,187.48,0,0,0,19.65-61.52c.58-4.25,1-8.56,1.33-12.9a11,11,0,0,1-7.68,3.38C434.74,273.52,431,269.72,429.11,265.53Z" style="fill:#ebebeb"></path><path d="M210.75,118.21c-3.79,2.24-5.8,6.46-8.72,9.73s-8.16,5.6-11.61,2.88a7.86,7.86,0,0,1-2.59-5.56,14.11,14.11,0,0,1,2.06-8.66c1.64-2.65,4.15-4.74,5.55-7.53s1.1-6.88-1.75-8.19c-1.54-.71-3.49-.43-4.86-1.43-2.46-1.79-.7-6,2.16-7.11s6-.24,9.09,0c11.08.7,19.22-6.47,27.55-12.43,6.47-4.63,20.27-10.11,27.76-5.37,3,1.89,4.16,6.74,1.34,8.88-1.26.95-3,1.16-4.17,2.22-1.41,1.27-1.61,3.35-2.41,5.06-2.1,4.43-8.14,6-10.09,10.54-1.17,2.71-.64,6.08-2.45,8.43-1.43,1.86-3.91,2.51-6.21,3L217,116.07A21.5,21.5,0,0,0,210.75,118.21Z" style="fill:#e0e0e0"></path><path d="M339.86,350.85c-4.79,7.14-5.66,16.07-7,24.54s-3.62,17.47-10.19,23.05-18.67,5.25-22.29-2.54c-2-4.23-1-9.21-2-13.74-1.39-5.9-6.14-10.46-8.4-16.1-1.92-4.8-1.93-10.12-2.08-15.29-.86-28.24-7.82-57.72-27.26-78.42-2.39-2.55-5.1-5-8.49-5.91a10.92,10.92,0,0,0-11.16,3.8c-1.56,2.05-2.36,4.65-4.27,6.38-4.16,3.75-11.41,1.06-14.19-3.78s-2.39-10.77-1.92-16.32q.85-10.3,1.73-20.62c.3-3.6.7-7.46,3.09-10.19,3.39-3.88,9.48-4.07,13.63-7.14,5.45-4,6.17-11.73,9.6-17.54s14.18-8.26,15.77-1.72c11.36-24.06,36.47,11.68,51.41,9,4.33-.79,8.57-2.85,12.94-2.24,7.7,1.06,11.68,9.47,14.31,16.72q6.53,18,13.06,36.09c1.66,4.59,3.8,9.68,8.39,11.44,3.51,1.35,7.6.32,11.14,1.6,9.37,3.37,6.33,18-1.21,24.41s-18.13,10.53-21.71,19.73c-2.7,6.94-.55,15.06-3.46,21.92C347.21,342.88,342.83,346.42,339.86,350.85Z" style="fill:#e0e0e0"></path><path d="M375.43,358.7c-3.08.42-6.71-1.08-9.05.94-1.37,1.19-1.67,3.13-2.21,4.84a10.36,10.36,0,0,1-4.37,5.89,6.62,6.62,0,0,1-7.12-.12c-2-1.51-2.62-4.72-1-6.6.75-.86,1.83-1.37,2.66-2.15,4.09-3.82,1.29-10.91,4.4-15.45,1.83-2.68,4.72-5.4,6.73-8.11,1.55-2.09,2.11-3.74,5-4.3C382.91,331.22,388.53,356.88,375.43,358.7Z" style="fill:#e0e0e0"></path><path d="M90.28,307.4c-.61-5.41,1.21-10.82,1.3-16.3.06-3.77-.21-7.75-.27-11.54a52.92,52.92,0,0,1-9.71-1.35,2.88,2.88,0,0,1-1.78-.9,3.4,3.4,0,0,1-.4-2c-.24-4.25-4.38-7.06-8.1-9.18a31.81,31.81,0,0,0-5.9-2.87c0,.44,0,.86,0,1.31a186.54,186.54,0,0,0,12.16,60,180,180,0,0,0,11.67,24.77c1.87,3.44,3.93,6.82,6.08,10.14,2.66,4.1,5.44,8.1,8.43,12,2.79,3.71,5.75,7.33,8.86,10.8A190.73,190.73,0,0,0,126.17,396c4.2,3.89,8.59,7.56,13.15,11.06-10.43-27.69-20.26-56-38.1-79.53C96.54,321.34,91.15,315.06,90.28,307.4Z" style="fill:#e0e0e0"></path><path d="M91.67,272.23l-1.15-.18c-3.36-.36-7.29-.54-9.13-3.29-2.15-3.2,0-8-2.24-11.1C78,256,76,255.3,74.38,254.13s-3-3.29-2-5c.81-1.47,2.93-1.77,4-3.11a3,3,0,0,0-.06-3.74c-3.45-4-7.29,4.19-9.19,6.13a17.66,17.66,0,0,1-1.54,1.44v0c0,.35-.07.68-.07,1,0,1.12,0,2.27-.06,3.41s-.06,2.28-.06,3.41c0,.93,0,1.85,0,2.77s0,1.85,0,2.77a31.72,31.72,0,0,1,5.89,2.87c3.72,2.12,7.86,4.93,8.1,9.18a3.49,3.49,0,0,0,.4,2,2.91,2.91,0,0,0,1.78.9,52.92,52.92,0,0,0,9.71,1.35" style="fill:#e0e0e0"></path><path d="M91.37,279.58c.06,3.8.33,7.78.27,11.55-.09,5.47-1.9,10.89-1.3,16.3.88,7.66,6.26,13.94,11,20.1,17.84,23.57,27.66,51.83,38.1,79.53h0c1.93,1.53,3.9,3,5.89,4.37,1.58,1.12,3.16,2.22,4.77,3.29s3.23,2.12,4.88,3.14c1.15.72,2.3,1.4,3.48,2.09-.15-.33-.31-.63-.46-.95-4.2-9.13-4.44-22.29,4.6-26.8,1.72-.87,3.69-1.35,5.11-2.67,4-3.76.72-11.54,4.75-15.31,2.26-2.09,5.8-1.94,8.61-3.2,5-2.3,6.69-8.7,6.29-14.21s-2.23-10.92-1.6-16.39c1-8.28,7.53-16.69,3.78-24.17-4.2-8.34-16.45-7-25.07-10.73-12-5.24-15.75-20-23.61-30.45-7.05-9.34-23.5-19.59-36-16.78-9.07,2-12.19,7.39-13.13,14" style="fill:#e0e0e0"></path><path d="M77.34,202.69c3.56-3,9.73-3.38,12.48.39,2,2.69,1.52,6.37,1,9.66q-1,6.63-2.11,13.28a6.74,6.74,0,0,0,.18,4c1.33,2.81,6,2.27,7.77-.24s1.6-6,1.12-9-1.12-6.31.09-9.18c3-7.12,13.76-6,20-10.68,3.87-2.87,5.6-7.68,7.9-11.9s6.13-8.44,11-8.23c1.63.06,3.24.66,4.87.6,4.78-.15,7.56-7.06,4.17-10.41a11.91,11.91,0,0,1-2.11-2.15c-.85-1.59.06-3.62,1.51-4.7a11.47,11.47,0,0,1,5.08-1.61c4.08-.66,8.16-1.29,12.24-1.92,4.51-.68,10.28-3,9.65-7.44-.54-3.86-5.84-5.6-6.62-9.43a12.12,12.12,0,0,0-.52-2.81c-1.24-2.45-5-1.46-7.34-.15-1-3.56-6.11-5.17-9-2.84-2.41,2-2.72,5.45-3.56,8.41-2,7.17-7.77,12.62-13.28,17.67-1.84,1.68-3.93,3.47-6.44,3.59s-5.14-2.54-4-4.72c.79-1.5,3-2.37,2.75-4-.3-2.1-4-1.95-4.71-3.95,1.45-5.92,8.31-8.37,13.57-11.55a32.57,32.57,0,0,0,13.88-16.86,4.23,4.23,0,0,0,.18-3.47c-.78-1.5-2.81-1.74-4.53-1.74-4.05-.06-9.1.48-10.59,4.22-.78,2-.21,4.28-.69,6.37-1.42,6.22-10,6.91-15.3,10.62-2.06,1.43-3.66,3.44-5.93,4.54-2.45,1.17-5.32,1.08-8,1.29-.48,0-1,.09-1.45.15-1.66,2.29-3.27,4.62-4.81,7s-3,4.78-4.47,7.22a185.35,185.35,0,0,0-16.57,36.55c-1.49,4.47-2.79,9-3.93,13.63s-2.09,9.29-2.88,14c1.88-3.82,2.72-8.55,3.45-11.9C72.32,210.43,73.8,205.71,77.34,202.69Z" style="fill:#e0e0e0"></path><path d="M447.34,255.14q0-4.08-.25-8.1c-.14-2.69-.36-5.36-.63-8-.21-2.15-.45-4.28-.75-6.4s-.64-4.48-1-6.69a180.28,180.28,0,0,0-4.47-19.63c-.71-2.47-1.27-4.92-2.08-7.35s-1.85-4.82-2.76-7.22v0h0c-1-1.79-2-3.56-3.11-5.29-10.61-16.63-26-29.67-37.71-45.58-3.8-5.18-6.77-9.46-13.51-10.47-10-1.53-15,4.09-22.1-5.27-1.91-2.51-5.23-4.84-8-3.35.73,2,1.48,4,2.21,6a2.87,2.87,0,0,1,.24,1.32c-.15,1.41-2.27,1.8-3.48,1s-1.81-2.22-2.66-3.38c-3.14-4.46-10.52-5-14.36-1.17a5.46,5.46,0,0,0-3.17-4.43,6.57,6.57,0,0,1-8.23,5.24c-.57-1.83,2.72-2.16,3.87-3.71s-.21-3.5-1.57-4.73a21.14,21.14,0,0,0-13.15-5c-3.06-.06-6.35.51-9-1-1.55-.9-2.63-2.39-4.21-3.26-3.35-1.88-7.56-.15-10.94,1.71-4.63,2.54-9.41,5.74-11,10.73s2,11.7,7.26,11.07c1.33-.18,2.72-.81,4-.45,1.87.51,2.72,2.66,2.87,4.58s-.06,3.92.88,5.59,3.66,2.51,4.72.93c2.48-2.33,2.17-6.25,1.54-9.57s-1.3-7.06.69-9.78,7.77-1.86,7.38,1.49c-.24,2-2.51,3.41-2.42,5.42s2.6,3.11,4.66,3,4.14-.81,6.14-.3,3.63,3.08,2.17,4.55c-2.51,2.81-9-2-10.34,1.49-.36.9,0,1.91-.09,2.87-.24,2.93-4,4-6.92,4.37s-6.11.63-8.8-.63-4.54-4.76-3-7.27c-1.52-1.07-3.81,0-4.63,1.68s-.58,3.62-.33,5.44c-3.15-.69-6,1.94-7.74,4.55s-3.54,5.68-6.6,6.61-7.31-.33-8.92,2.42c-2.08,3.59,4,8.14,1.85,11.69-1.21,2-4.11,2-6.41,2.58-6.08,1.7-8.2,10.5-4.05,15.19s12.42,4.43,16.81-.06c3-3.08,4.29-7.42,6.5-11.12s6.38-7,10.55-5.84a12.73,12.73,0,0,1,4.33,2.7c2,1.67,4,3.34,6.07,5,1.3,1.08,2.73,2.42,2.6,4.1-.12,1.34-1.18,2.39-1.63,3.65-1.27,3.62,4,7.05,7.35,5.08s3.69-7,1.42-10.14c-3.14-4.31-10.25-6.46-10.07-11.78,3.63-2.93,9.34.15,11.46,4.3s2.18,9,4,13.31,6.78,8.11,10.95,6c-1.09-3.71-2.15-7.39-3.24-11.07,2.66-2,5.72,3.77,8.89,2.81,1.94-.6,2.18-3.35,1.33-5.2S324.3,177,323.94,175c-.6-3.65,3.51-6.91,7.23-6.31s6.38,4.1,7.07,7.72a17.62,17.62,0,0,0,1,4.28c1.39,2.87,5,3.73,8,4.93s6.08,4.16,4.84,7.09c-.57,1.29-1.93,2.51-1.45,3.83.45,1.17,2.21,1.67,2.21,2.93,0,.84-.91,1.41-1.7,1.73-2,.81-4.17,1.08-6.1,2s-3.69,2.75-3.54,4.84c.24,3,3.84,4.43,5.53,6.91s1.39,5.51,2.42,8.2c1,2.48,3,4.42,4.57,6.55,5,6.76,6.2,15.46,8.64,23.48,1.09,3.62,3.09,7.66,6.84,8.34,2.05.36,4.11-.42,6.05-1.16,5.41-2.13,11-4.4,14.81-8.74s5.08-11.45,1.18-15.73a3.07,3.07,0,0,0-1.84-1.17c-1-.12-1.94.57-2.85,1-2.75,1.26-6.13.21-8.43-1.79s-3.66-4.76-5-7.45c-1.48-3-3-6-4.48-8.94,1.79-1.5,4.63-.87,6.47.59s2.94,3.59,4.42,5.39c4.5,5.56,11.91,8,19.08,8.85a18.29,18.29,0,0,1,5.38,1.11c5.35,2.42,6.89,10.23,12.55,11.9,1.57.48,3.32.39,4.81,1.08,2.23,1,3.35,3.56,4,5.92,1.24,4.4,1.66,9,3.53,13.22s5.63,8,10.23,8.05a11.08,11.08,0,0,0,7.68-3.38v0c.24-4.13.39-8.26.39-12.45C447.4,256.88,447.4,256,447.34,255.14Z" style="fill:#e0e0e0"></path><path d="M48.36,273.8a35.3,35.3,0,0,1-.44-6,34.38,34.38,0,0,1,.09-6,34.87,34.87,0,0,1,.43,6A35.22,35.22,0,0,1,48.36,273.8Z" style="fill:#263238"></path><path d="M51.2,297.6a35.17,35.17,0,0,1-1.14-5.89,33.91,33.91,0,0,1-.63-6,35.45,35.45,0,0,1,1.14,5.89A33.76,33.76,0,0,1,51.2,297.6Z" style="fill:#263238"></path><path d="M56.88,320.88A35.58,35.58,0,0,1,55,315.17a33.85,33.85,0,0,1-1.35-5.85A35.08,35.08,0,0,1,55.54,315,34.33,34.33,0,0,1,56.88,320.88Z" style="fill:#263238"></path><path d="M65.32,343.31a34.79,34.79,0,0,1-2.52-5.44,35.46,35.46,0,0,1-2-5.65,34.67,34.67,0,0,1,2.52,5.45A34.8,34.8,0,0,1,65.32,343.31Z" style="fill:#263238"></path><path d="M76.36,364.57a34.42,34.42,0,0,1-3.14-5.1,36,36,0,0,1-2.7-5.36,34.07,34.07,0,0,1,3.15,5.11A34,34,0,0,1,76.36,364.57Z" style="fill:#263238"></path><path d="M89.84,384.39a35,35,0,0,1-3.72-4.7,34.59,34.59,0,0,1-3.31-5,35.22,35.22,0,0,1,3.73,4.7A33.77,33.77,0,0,1,89.84,384.39Z" style="fill:#263238"></path><path d="M105.55,402.5a34,34,0,0,1-4.25-4.24,33.74,33.74,0,0,1-3.87-4.59,35.79,35.79,0,0,1,4.25,4.24A34.86,34.86,0,0,1,105.55,402.5Z" style="fill:#263238"></path><path d="M123.23,418.67a34.77,34.77,0,0,1-4.7-3.72,33,33,0,0,1-4.37-4.11,35.45,35.45,0,0,1,4.71,3.72A35,35,0,0,1,123.23,418.67Z" style="fill:#263238"></path><path d="M142.66,432.7a34.26,34.26,0,0,1-5.1-3.15,34.79,34.79,0,0,1-4.81-3.58,34.12,34.12,0,0,1,5.1,3.15A34.61,34.61,0,0,1,142.66,432.7Z" style="fill:#263238"></path><path d="M163.57,444.42a34.64,34.64,0,0,1-5.43-2.55,34.32,34.32,0,0,1-5.19-3,36,36,0,0,1,5.43,2.55A34,34,0,0,1,163.57,444.42Z" style="fill:#263238"></path><path d="M185.68,453.67a34.43,34.43,0,0,1-5.68-1.91,34.07,34.07,0,0,1-5.5-2.4,34.89,34.89,0,0,1,5.68,1.91A34,34,0,0,1,185.68,453.67Z" style="fill:#263238"></path><path d="M208.7,460.34a34.61,34.61,0,0,1-5.86-1.25,35.2,35.2,0,0,1-5.74-1.76,34.4,34.4,0,0,1,5.87,1.25A33.8,33.8,0,0,1,208.7,460.34Z" style="fill:#263238"></path><path d="M232.33,464.34a33.51,33.51,0,0,1-6-.57,33.89,33.89,0,0,1-5.9-1.1,35.28,35.28,0,0,1,6,.58A35.56,35.56,0,0,1,232.33,464.34Z" style="fill:#263238"></path><path d="M256.26,465.68a35.61,35.61,0,0,1-6,.09,33.71,33.71,0,0,1-6-.43,35.89,35.89,0,0,1,6-.09A33.65,33.65,0,0,1,256.26,465.68Z" style="fill:#263238"></path><path d="M280.2,464.34a33,33,0,0,1-5.95.76,33.53,33.53,0,0,1-6,.24,35.78,35.78,0,0,1,6-.76A35.8,35.8,0,0,1,280.2,464.34Z" style="fill:#263238"></path><path d="M303.84,460.33a34.9,34.9,0,0,1-5.83,1.43,34.24,34.24,0,0,1-5.93.91,34.35,34.35,0,0,1,5.83-1.42A34.49,34.49,0,0,1,303.84,460.33Z" style="fill:#263238"></path><path d="M326.86,453.66a33.65,33.65,0,0,1-5.63,2.08,35,35,0,0,1-5.79,1.59,35.46,35.46,0,0,1,5.63-2.08A35.94,35.94,0,0,1,326.86,453.66Z" style="fill:#263238"></path><path d="M349,444.41a34.29,34.29,0,0,1-5.35,2.71,33.42,33.42,0,0,1-5.57,2.23A70.57,70.57,0,0,1,349,444.41Z" style="fill:#263238"></path><path d="M369.88,432.69a34.57,34.57,0,0,1-5,3.31,33.85,33.85,0,0,1-5.28,2.85,36.22,36.22,0,0,1,5-3.3A35,35,0,0,1,369.88,432.69Z" style="fill:#263238"></path><path d="M389.31,418.66a35.43,35.43,0,0,1-4.6,3.85A34.34,34.34,0,0,1,379.8,426a34.8,34.8,0,0,1,4.59-3.85A35.45,35.45,0,0,1,389.31,418.66Z" style="fill:#263238"></path><path d="M407,402.49a33.68,33.68,0,0,1-4.12,4.35,34.85,34.85,0,0,1-4.49,4,69.68,69.68,0,0,1,8.61-8.34Z" style="fill:#263238"></path><path d="M422.69,384.39a36.75,36.75,0,0,1-3.59,4.8,33.46,33.46,0,0,1-4,4.47,35.27,35.27,0,0,1,3.59-4.8A33.4,33.4,0,0,1,422.69,384.39Z" style="fill:#263238"></path><path d="M436.17,364.57a70.94,70.94,0,0,1-6.45,10.11,67.29,67.29,0,0,1,6.45-10.11Z" style="fill:#263238"></path><path d="M447.22,343.3a34.56,34.56,0,0,1-2.37,5.51A34,34,0,0,1,442,354.1a33.72,33.72,0,0,1,2.37-5.51A33.22,33.22,0,0,1,447.22,343.3Z" style="fill:#263238"></path><path d="M455.65,320.87a34.64,34.64,0,0,1-1.69,5.75,35.73,35.73,0,0,1-2.19,5.59,67.72,67.72,0,0,1,3.88-11.34Z" style="fill:#263238"></path><path d="M461.32,297.59a34,34,0,0,1-1,5.91,34.34,34.34,0,0,1-1.5,5.81,70.49,70.49,0,0,1,2.48-11.72Z" style="fill:#263238"></path><path d="M464.17,273.79a34.83,34.83,0,0,1-.28,6,34.41,34.41,0,0,1-.79,6,35.35,35.35,0,0,1,.27-6A34.38,34.38,0,0,1,464.17,273.79Z" style="fill:#263238"></path><path d="M464.17,249.82a34.61,34.61,0,0,1,.43,6,35.1,35.1,0,0,1-.08,6,35.43,35.43,0,0,1-.44-6A34.56,34.56,0,0,1,464.17,249.82Z" style="fill:#263238"></path><path d="M461.32,226a34.54,34.54,0,0,1,1.15,5.89,35.1,35.1,0,0,1,.63,6A34.81,34.81,0,0,1,462,232,34.93,34.93,0,0,1,461.32,226Z" style="fill:#263238"></path><path d="M455.64,202.74a33.47,33.47,0,0,1,1.85,5.71,34.57,34.57,0,0,1,1.34,5.84,34.84,34.84,0,0,1-1.84-5.71A36,36,0,0,1,455.64,202.74Z" style="fill:#263238"></path><path d="M447.21,180.3a35.2,35.2,0,0,1,2.52,5.45,33.75,33.75,0,0,1,2,5.64,34.8,34.8,0,0,1-2.51-5.44A34.71,34.71,0,0,1,447.21,180.3Z" style="fill:#263238"></path><path d="M436.16,159a34.07,34.07,0,0,1,3.15,5.11,33.3,33.3,0,0,1,2.69,5.36,36.28,36.28,0,0,1-3.14-5.11A35.08,35.08,0,0,1,436.16,159Z" style="fill:#263238"></path><path d="M422.68,139.23a33,33,0,0,1,3.73,4.7,35.64,35.64,0,0,1,3.31,5,35,35,0,0,1-3.73-4.71A35,35,0,0,1,422.68,139.23Z" style="fill:#263238"></path><path d="M407,121.12a34.81,34.81,0,0,1,4.25,4.24A35.62,35.62,0,0,1,415.1,130a34.94,34.94,0,0,1-4.25-4.24A34.86,34.86,0,0,1,407,121.12Z" style="fill:#263238"></path><path d="M389.29,105a34.47,34.47,0,0,1,4.71,3.72,33.82,33.82,0,0,1,4.37,4.11,35,35,0,0,1-4.71-3.72A35.52,35.52,0,0,1,389.29,105Z" style="fill:#263238"></path><path d="M369.86,90.91A34.66,34.66,0,0,1,375,94.07a35.57,35.57,0,0,1,4.81,3.58,33.91,33.91,0,0,1-5.11-3.15A34.73,34.73,0,0,1,369.86,90.91Z" style="fill:#263238"></path><path d="M349,79.2a34,34,0,0,1,5.44,2.55,34,34,0,0,1,5.19,3,35.78,35.78,0,0,1-5.44-2.55A35.22,35.22,0,0,1,349,79.2Z" style="fill:#263238"></path><path d="M326.84,70a34,34,0,0,1,5.69,1.91,33.54,33.54,0,0,1,5.5,2.4,36,36,0,0,1-5.69-1.91A36.2,36.2,0,0,1,326.84,70Z" style="fill:#263238"></path><path d="M303.82,63.28a34.61,34.61,0,0,1,5.87,1.25,34.07,34.07,0,0,1,5.74,1.76A35.6,35.6,0,0,1,309.56,65,34.84,34.84,0,0,1,303.82,63.28Z" style="fill:#263238"></path><path d="M280.2,59.27a35.43,35.43,0,0,1,6,.58,35,35,0,0,1,5.9,1.09,33.38,33.38,0,0,1-6-.57A33.28,33.28,0,0,1,280.2,59.27Z" style="fill:#263238"></path><path d="M256.26,57.94a35.67,35.67,0,0,1,6-.09,35.27,35.27,0,0,1,6,.42,33.87,33.87,0,0,1-6,.1A33.71,33.71,0,0,1,256.26,57.94Z" style="fill:#263238"></path><path d="M232.32,59.27a35,35,0,0,1,6-.75,35.25,35.25,0,0,1,6-.25,33.22,33.22,0,0,1-6,.76A33.52,33.52,0,0,1,232.32,59.27Z" style="fill:#263238"></path><path d="M208.69,63.29a34.9,34.9,0,0,1,5.83-1.43,33.12,33.12,0,0,1,5.93-.91,35,35,0,0,1-5.83,1.42A34.63,34.63,0,0,1,208.69,63.29Z" style="fill:#263238"></path><path d="M185.67,70a35.42,35.42,0,0,1,5.62-2.07,34.13,34.13,0,0,1,5.79-1.59,34.54,34.54,0,0,1-5.63,2.08A34.11,34.11,0,0,1,185.67,70Z" style="fill:#263238"></path><path d="M163.55,79.21a35.3,35.3,0,0,1,5.36-2.71,34.77,34.77,0,0,1,5.57-2.24A33.79,33.79,0,0,1,169.12,77,34,34,0,0,1,163.55,79.21Z" style="fill:#263238"></path><path d="M142.65,90.93a34.57,34.57,0,0,1,5-3.31,34,34,0,0,1,5.27-2.85,35.47,35.47,0,0,1-5,3.3A35.21,35.21,0,0,1,142.65,90.93Z" style="fill:#263238"></path><path d="M123.22,105a34.52,34.52,0,0,1,4.6-3.85,36,36,0,0,1,4.91-3.45,34,34,0,0,1-4.6,3.86A35.05,35.05,0,0,1,123.22,105Z" style="fill:#263238"></path><path d="M105.53,121.13a35.59,35.59,0,0,1,4.13-4.36,35.38,35.38,0,0,1,4.48-4,34.31,34.31,0,0,1-4.12,4.36A33.69,33.69,0,0,1,105.53,121.13Z" style="fill:#263238"></path><path d="M89.84,139.23a35,35,0,0,1,3.59-4.8,36.12,36.12,0,0,1,4-4.48,34.3,34.3,0,0,1-3.59,4.81A34.61,34.61,0,0,1,89.84,139.23Z" style="fill:#263238"></path><path d="M76.36,159.05a34,34,0,0,1,3-5.19,34.93,34.93,0,0,1,3.45-4.92,34.93,34.93,0,0,1-3,5.2A36.17,36.17,0,0,1,76.36,159.05Z" style="fill:#263238"></path><path d="M65.31,180.32a34.56,34.56,0,0,1,2.37-5.51,34,34,0,0,1,2.84-5.29A35.25,35.25,0,0,1,68.15,175,35.24,35.24,0,0,1,65.31,180.32Z" style="fill:#263238"></path><path d="M56.88,202.75A34.35,34.35,0,0,1,58.57,197a33.54,33.54,0,0,1,2.19-5.59,35.87,35.87,0,0,1-1.7,5.76A35.13,35.13,0,0,1,56.88,202.75Z" style="fill:#263238"></path><path d="M51.2,226a34.84,34.84,0,0,1,1-5.92,34.38,34.38,0,0,1,1.5-5.8,34.35,34.35,0,0,1-1,5.91A33.88,33.88,0,0,1,51.2,226Z" style="fill:#263238"></path><path d="M48.36,249.83a35.5,35.5,0,0,1,.27-6,33.76,33.76,0,0,1,.8-5.94,34.81,34.81,0,0,1-.28,6A35.21,35.21,0,0,1,48.36,249.83Z" style="fill:#263238"></path></g></svg>
