<svg xmlns="http://www.w3.org/2000/svg" viewBox="0 0 500 500"><g id="freepik--background-complete--inject-166"><path d="M108.65,332.21A34.32,34.32,0,1,1,64,313.36,34.28,34.28,0,0,1,108.65,332.21Z" style="fill:#fafafa"></path><path d="M101.08,335.28a26.15,26.15,0,1,1-34-14.37A26.12,26.12,0,0,1,101.08,335.28Z" style="fill:#fafafa"></path><path d="M101.08,335.28a2.5,2.5,0,0,1-.2-.38c-.14-.27-.32-.64-.55-1.11l-.4-.82c-.16-.3-.36-.61-.57-1a18.75,18.75,0,0,0-1.52-2.28,24.89,24.89,0,0,0-5.29-5.31,25.95,25.95,0,0,0-33,1.48A26.85,26.85,0,0,0,57,328.55c-.39.48-.75,1-1.13,1.49a13.89,13.89,0,0,0-1,1.58,23.62,23.62,0,0,0-3,7.14,25.06,25.06,0,0,0-.76,8,27.45,27.45,0,0,0,1.82,8.06,27.8,27.8,0,0,0,4.3,7.06,25.2,25.2,0,0,0,6.11,5.21,28.84,28.84,0,0,0,3.48,1.82,31.19,31.19,0,0,0,3.65,1.21,28.12,28.12,0,0,0,3.71.69,25.25,25.25,0,0,0,3.68.1A26,26,0,0,0,102.5,349a24.65,24.65,0,0,0,.11-7.49,18.71,18.71,0,0,0-.5-2.7c-.09-.39-.16-.75-.25-1.07s-.2-.61-.28-.87c-.17-.5-.29-.89-.39-1.18a2.65,2.65,0,0,1-.11-.41,1.79,1.79,0,0,1,.17.39c.1.28.25.67.43,1.16.1.26.2.55.32.87s.17.68.27,1.07a18.17,18.17,0,0,1,.55,2.71,24.49,24.49,0,0,1,0,7.57,26.41,26.41,0,0,1-11.75,18.19,26.55,26.55,0,0,1-13.26,4.17,24.4,24.4,0,0,1-7.54-.8,29,29,0,0,1-3.73-1.22A30,30,0,0,1,63,367.54a25.45,25.45,0,0,1-6.24-5.32,25.88,25.88,0,0,1-6.25-15.44,25.21,25.21,0,0,1,.78-8.15,28.67,28.67,0,0,1,1.26-3.8,29.46,29.46,0,0,1,1.83-3.48,13.63,13.63,0,0,1,1.07-1.61c.39-.51.75-1,1.16-1.52a26.76,26.76,0,0,1,2.63-2.69,26.41,26.41,0,0,1,12.42-6.22,26.3,26.3,0,0,1,21.09,4.87A24.82,24.82,0,0,1,98,329.61a17.42,17.42,0,0,1,1.49,2.33c.2.35.4.66.55,1l.38.84.5,1.14A1.9,1.9,0,0,1,101.08,335.28Z" style="fill:#f5f5f5"></path><path d="M101,335.61c-.15.06-.68-1-1.82-2.66a27.77,27.77,0,0,0-5.78-6.31,27,27,0,0,0-5-3.12,26.3,26.3,0,0,0-6.35-2.09,24.34,24.34,0,0,0-3.58-.42,23.64,23.64,0,0,0-3.75.11,25.56,25.56,0,0,0-3.82.69,28.14,28.14,0,0,0-3.77,1.32A27.61,27.61,0,0,0,63.65,325a24.11,24.11,0,0,0-3.08,2.36A24.55,24.55,0,0,0,58,330.1,23.93,23.93,0,0,0,55.87,333a25.8,25.8,0,0,0-2.73,6.1,27.2,27.2,0,0,0-1,5.77,27.94,27.94,0,0,0,.78,8.53c.49,2,.89,3.06.74,3.13s-.74-.93-1.48-2.91a24.39,24.39,0,0,1-1.44-8.81,27,27,0,0,1,.85-6.16,26.69,26.69,0,0,1,2.75-6.61,24.44,24.44,0,0,1,2.19-3.19,24.73,24.73,0,0,1,2.77-2.95,26.32,26.32,0,0,1,3.31-2.57,27.66,27.66,0,0,1,3.79-2.07,28.45,28.45,0,0,1,4.07-1.41,26.37,26.37,0,0,1,12-.26,26,26,0,0,1,11.86,5.93,24.33,24.33,0,0,1,5.54,7C100.81,334.43,101.1,335.56,101,335.61Z" style="fill:#f5f5f5"></path><path d="M80.37,346.47c6.35-2.66,9-7.63,6.74-12.93s-7.61-6.94-14-4.27l-10.66,4.46,5.08,12.11-2,.86,2,4.9,2.06-.87,1.28,3.07-1.89.8,2,4.89,2-.84,2.53,6,6.3-2.64-2.53-6L88,352.37,86,347.48,77.5,351l-1.2-2.86Zm-9.11-10.31,3.66-1.53c2.73-1.15,4.63-.46,5.54,1.71s.06,4-2.67,5.11L74.13,343Z" style="fill:#f5f5f5"></path><path d="M230.17,31.49a26.92,26.92,0,1,1-35-14.78A26.89,26.89,0,0,1,230.17,31.49Z" style="fill:#ebebeb"></path><path d="M224.23,33.89a20.51,20.51,0,1,1-26.69-11.26A20.49,20.49,0,0,1,224.23,33.89Z" style="fill:#ebebeb"></path><path d="M224.23,33.89s-.06-.09-.16-.29-.25-.5-.43-.87c-.09-.2-.2-.41-.31-.65s-.29-.47-.45-.74a14.93,14.93,0,0,0-1.19-1.79,19.32,19.32,0,0,0-4.15-4.16,20.35,20.35,0,0,0-25.87,1.16,20.82,20.82,0,0,0-2,2.07c-.31.37-.59.78-.89,1.17a10.23,10.23,0,0,0-.82,1.24,22.54,22.54,0,0,0-1.4,2.67,22.31,22.31,0,0,0-1,2.93,19.23,19.23,0,0,0-.6,6.26,21.53,21.53,0,0,0,1.43,6.32,21.5,21.5,0,0,0,3.37,5.54,19.34,19.34,0,0,0,4.79,4.08,21.53,21.53,0,0,0,2.73,1.43,23.37,23.37,0,0,0,2.86,1,21.24,21.24,0,0,0,2.91.54,20.05,20.05,0,0,0,2.89.08,20.43,20.43,0,0,0,19.39-17.17,19.81,19.81,0,0,0,.08-5.88,14.71,14.71,0,0,0-.39-2.12c-.07-.3-.12-.58-.2-.84l-.22-.68-.3-.92a1.25,1.25,0,0,1-.09-.33,2.29,2.29,0,0,1,.13.31c.08.23.2.53.34.92.08.2.16.43.25.67s.14.54.21.84a14.16,14.16,0,0,1,.44,2.13,19.32,19.32,0,0,1,0,5.94A20.58,20.58,0,0,1,216.37,59,21,21,0,0,1,203,62.15a22.08,22.08,0,0,1-3-.54,25,25,0,0,1-2.93-1,23.08,23.08,0,0,1-2.78-1.46A19.73,19.73,0,0,1,189.46,55,21.84,21.84,0,0,1,186,49.37a21.78,21.78,0,0,1-1.46-6.45,20.12,20.12,0,0,1,.62-6.4,23.65,23.65,0,0,1,1-3,22.63,22.63,0,0,1,1.43-2.72,10,10,0,0,1,.84-1.27c.31-.4.59-.81.91-1.19a20.57,20.57,0,0,1,2.06-2.11,20.78,20.78,0,0,1,9.74-4.88,20.47,20.47,0,0,1,9.5.34,20.18,20.18,0,0,1,7,3.49,19.2,19.2,0,0,1,4.14,4.25A13.07,13.07,0,0,1,223,31.28c.16.27.31.52.43.75l.3.66c.16.38.29.67.39.89A1.54,1.54,0,0,1,224.23,33.89Z" style="fill:#e0e0e0"></path><path d="M224.16,34.15a12.34,12.34,0,0,1-1.42-2.08,22.14,22.14,0,0,0-4.53-4.95,21.19,21.19,0,0,0-3.89-2.44,20.51,20.51,0,0,0-5-1.64,18.44,18.44,0,0,0-2.81-.33,19.36,19.36,0,0,0-2.94.08,20,20,0,0,0-3,.55,21.23,21.23,0,0,0-3,1,23.39,23.39,0,0,0-2.75,1.49,20.33,20.33,0,0,0-2.42,1.85,17.74,17.74,0,0,0-2,2.13,18,18,0,0,0-1.65,2.3,20.39,20.39,0,0,0-2.14,4.79,21.7,21.7,0,0,0-.81,4.52,22,22,0,0,0,.61,6.68,11.88,11.88,0,0,1,.58,2.46,6.16,6.16,0,0,1-1.16-2.28,19.09,19.09,0,0,1-1.13-6.91,20.57,20.57,0,0,1,2.82-10,20.23,20.23,0,0,1,1.72-2.5,19.7,19.7,0,0,1,2.17-2.32,21,21,0,0,1,2.6-2,22.85,22.85,0,0,1,3-1.61,21.29,21.29,0,0,1,3.2-1.11,20.26,20.26,0,0,1,3.23-.57,19.83,19.83,0,0,1,3.17-.05,20.6,20.6,0,0,1,3,.41,20.86,20.86,0,0,1,5.28,1.9,20.38,20.38,0,0,1,4,2.75,19.13,19.13,0,0,1,4.35,5.49A5.87,5.87,0,0,1,224.16,34.15Z" style="fill:#e0e0e0"></path><path d="M208,42.68c5-2.1,7-6,5.3-10.15s-6-5.44-11-3.35L194,32.69l4,9.48-1.61.68L198,46.69l1.61-.67,1,2.4-1.48.62,1.61,3.85,1.57-.66,2,4.73,4.94-2.07-2-4.74L214,47.3l-1.62-3.84-6.65,2.79L204.8,44Zm-7.13-8.09,2.87-1.21c2.14-.89,3.62-.35,4.34,1.35s0,3.11-2.1,4l-2.87,1.21Z" style="fill:#e0e0e0"></path><path d="M394,218c-1.61-3.63-2-7.65-3-11.47-.57-2.05-1.53-4.23-3.45-5.14-1.27-.59-2.78-.52-4.13-.93-4.85-1.46-6.17-8.23-10.77-10.33a15.47,15.47,0,0,0-4.62-1c-6.15-.73-12.51-2.86-16.37-7.68-1.28-1.56-2.24-3.4-3.79-4.68s-4-1.81-5.56-.51c1.3,2.59,2.57,5.19,3.84,7.76,1.17,2.33,2.37,4.74,4.31,6.46s4.88,2.65,7.24,1.56a4.68,4.68,0,0,1,2.44-.86,2.66,2.66,0,0,1,1.59,1c3.34,3.71,2.25,9.86-1,13.65s-8.07,5.74-12.71,7.58a9.87,9.87,0,0,1-5.19,1c-3.22-.59-4.94-4.1-5.87-7.24-2.1-6.95-3.11-14.51-7.42-20.37-1.38-1.84-3.09-3.53-3.92-5.69-.88-2.33-.68-5.06-2.08-7.11s-4.54-3.4-4.75-6c-.13-1.82,1.38-3.43,3-4.21s3.53-1,5.24-1.74c.68-.28,1.43-.77,1.45-1.5,0-1.09-1.5-1.53-1.89-2.54s.75-2.21,1.25-3.33c1.06-2.54-1.59-5.11-4.16-6.15s-5.63-1.79-6.82-4.28a14.48,14.48,0,0,1-.83-3.71c-.6-3.14-2.91-6.18-6.08-6.7s-6.72,2.31-6.2,5.48c.31,1.74,1.61,3.09,2.31,4.7s.52,4-1.14,4.51c-2.73.83-5.35-4.15-7.63-2.44.93,3.19,1.84,6.39,2.78,9.61-3.59,1.81-7.87-1.48-9.4-5.22s-1.58-8-3.4-11.55-6.72-6.28-9.84-3.74c-.15,4.62,5.95,6.49,8.65,10.23,1.94,2.7,1.66,7.08-1.22,8.8s-7.4-1.28-6.31-4.42c.39-1.09,1.3-2,1.4-3.16.1-1.46-1.12-2.62-2.23-3.56-1.74-1.48-3.48-2.93-5.22-4.38a10.9,10.9,0,0,0-3.71-2.34c-3.58-1-7.16,1.87-9.06,5.06s-3,7-5.58,9.66c-3.76,3.89-10.9,4.12-14.43.05s-1.74-11.71,3.48-13.19c2-.54,4.46-.49,5.5-2.23,1.82-3.09-3.37-7-1.58-10.15,1.37-2.38,5-1.29,7.66-2.1s4.1-3.45,5.65-5.74,3.95-4.54,6.65-3.94c-.21-1.58-.42-3.3.28-4.72s2.68-2.39,4-1.46c-1.32,2.18.26,5.22,2.57,6.31s5,.83,7.56.54,5.73-1.24,5.94-3.78a9,9,0,0,1,.08-2.5c1.11-3,6.72,1.15,8.87-1.29,1.25-1.28-.13-3.53-1.87-4s-3.5.21-5.26.26-3.92-.86-4-2.62,1.87-3,2.08-4.7c.33-2.91-4.6-3.66-6.34-1.3s-1.11,5.61-.59,8.49.8,6.28-1.33,8.31c-.91,1.37-3.27.64-4.05-.81s-.62-3.22-.75-4.85-.86-3.53-2.46-4c-1.12-.31-2.31.23-3.46.39-4.51.54-7.65-5.3-6.23-9.61s5.51-7.11,9.48-9.31c2.9-1.61,6.51-3.12,9.39-1.48,1.35.75,2.29,2.05,3.61,2.83,2.28,1.35,5.11.85,7.73.9a18,18,0,0,1,11.29,4.39c1.17,1.06,2.26,2.83,1.35,4.1s-3.81,1.64-3.32,3.22a5.63,5.63,0,0,0,7.06-4.54,4.7,4.7,0,0,1,2.73,3.84c3.29-3.35,9.63-2.86,12.33,1,.72,1,1.24,2.23,2.28,2.93s2.85.34,3-.88a2.36,2.36,0,0,0-.2-1.14c-.63-1.77-1.28-3.5-1.9-5.24,2.42-1.3,5.27.72,6.91,2.9,6.07,8.13,10.4,3.25,19,4.57,5.79.88,8.33,4.59,11.6,9.09,10,13.8,23.25,25.12,32.36,39.55q1.44,2.25,2.68,4.59c-.16-.39-.29-.78-.44-1.17a160.41,160.41,0,0,0-13.24-26.91q-1.68-2.73-3.43-5.37c-.72-1.09-1.48-2.21-2.23-3.27-1-1.4-2-2.75-3-4.1-.81-1.09-1.61-2.16-2.44-3.2-.57-.72-1.17-1.45-1.77-2.18s-1.3-1.63-2-2.44l-2.18-2.51a9.84,9.84,0,0,0-.7-.78c-.76-.88-1.56-1.74-2.37-2.6a.7.7,0,0,0-.23-.26c-.21-.23-.44-.46-.67-.7-.65-.72-1.35-1.42-2-2.13-1.11-1.14-2.26-2.28-3.42-3.37-1-1-1.95-1.87-3-2.78s-1.77-1.61-2.68-2.38-1.76-1.54-2.67-2.29c-1.09-.93-2.2-1.84-3.35-2.75h0c-3.14-2.52-6.39-4.9-9.71-7.14C337,75,336.19,74.5,335.35,74s-1.68-1.09-2.51-1.61-1.69-1.06-2.55-1.55-1.71-1-2.57-1.54c-.7-.41-1.37-.8-2.07-1.16a9.59,9.59,0,0,0-1.07-.6c-1.48-.83-3-1.64-4.49-2.39-.75-.39-1.5-.78-2.28-1.14-1-.49-1.95-1-2.93-1.4a2.23,2.23,0,0,0-.44-.21c-.89-.41-1.77-.83-2.68-1.22-1.27-.54-2.54-1.09-3.81-1.61-1.46-.59-2.91-1.19-4.39-1.74s-3.27-1.22-4.93-1.76-3.35-1.12-5-1.64-3.37-1-5.08-1.45q-5.07-1.36-10.25-2.41c-.06,0-.13,0-.19-.06-1.32-.26-2.64-.51-4-.72a.91.91,0,0,0-.26-.05c-.57-.11-1.16-.21-1.76-.29-2.47-.42-5-.75-7.48-1a8.25,8.25,0,0,0-.9-.1c-.73-.11-1.46-.16-2.21-.24-1.66-.15-3.32-.28-5-.38s-3.5-.21-5.27-.26-3.68-.11-5.53-.11q-7.32,0-14.48.65c-1.14.08-2.26.18-3.37.31s-2.34.26-3.51.42-2.33.31-3.47.49-2.31.36-3.48.57c-1,.16-2,.34-3,.55q-3.66.69-7.24,1.55c-1.11.26-2.23.55-3.35.86s-2.23.6-3.32.91c-1.84.52-3.63,1.09-5.42,1.66h0l-4.36,1.48a.16.16,0,0,0-.1.05c-1.48.52-2.91,1.06-4.36,1.64l-.24.07c-1.32.52-2.64,1.07-3.94,1.61-1.64.68-3.25,1.4-4.83,2.13-1.35.62-2.67,1.25-4,1.9s-2.8,1.4-4.18,2.12l-.15.08q-2,1.05-3.95,2.18c-1.35.75-2.67,1.53-4,2.36h0c-1.25.76-2.47,1.51-3.69,2.29-.46.28-.91.6-1.37.91-1.3.83-2.55,1.68-3.82,2.57-1.56,1.06-3.06,2.18-4.57,3.29-1.32,1-2.62,2-3.89,3a163.74,163.74,0,0,0-20.4,19.34c-2.21,2.44-4.28,4.93-6.31,7.47-1.71,2.18-3.37,4.39-5,6.67q-2.15,3-4.13,6.07,2-3.09,4.13-6.07c.41,0,.83-.1,1.24-.13,2.34-.18,4.8-.1,6.91-1.11,1.94-1,3.32-2.7,5.08-4,4.52-3.22,11.92-3.81,13.14-9.21.41-1.82-.08-3.79.59-5.53,1.27-3.24,5.61-3.71,9.09-3.66,1.48,0,3.21.21,3.89,1.51a3.7,3.7,0,0,1-.16,3A28.14,28.14,0,0,1,139.79,112c-4.51,2.76-10.41,4.88-11.65,10,.62,1.74,3.79,1.61,4.05,3.43.18,1.45-1.69,2.21-2.37,3.5-1,1.9,1.28,4.21,3.43,4.1s3.95-1.66,5.53-3.11c4.72-4.39,9.68-9.11,11.39-15.34.73-2.57,1-5.58,3.07-7.29a5.06,5.06,0,0,1,7.7,2.46c2.05-1.14,5.25-2,6.31.13a11.16,11.16,0,0,1,.44,2.44c.68,3.32,5.22,4.83,5.69,8.18.54,3.87-4.42,5.86-8.28,6.46-3.51.55-7,1.09-10.52,1.66a9.8,9.8,0,0,0-4.36,1.4c-1.24.94-2,2.7-1.29,4.08a10.65,10.65,0,0,0,1.81,1.87c2.91,2.9.52,8.9-3.58,9-1.4,0-2.78-.47-4.18-.52-4.15-.18-7.45,3.48-9.42,7.14s-3.45,7.84-6.77,10.33c-5.35,4-14.56,3.09-17.16,9.26-1,2.49-.49,5.3-.08,8s.6,5.61-1,7.81-5.52,2.65-6.67.21a6,6,0,0,1-.15-3.45q.93-5.76,1.82-11.53c.44-2.85.83-6-.86-8.38-2.36-3.27-7.66-3-10.72-.34s-4.31,6.73-5.16,10.64c-.63,2.91-1.35,7-3,10.33h0c-.55,3.22-1,6.49-1.33,9.79S82,201,81.86,204.4a14.76,14.76,0,0,0,1.33-1.25c1.63-1.69,4.93-8.82,7.89-5.32a2.67,2.67,0,0,1,0,3.25c-.91,1.16-2.73,1.42-3.43,2.69-.85,1.51.34,3.38,1.74,4.36s3.11,1.64,4.1,3.07c1.9,2.72.08,6.85,1.92,9.63,1.58,2.38,5,2.54,7.84,2.85l1,.16c.8-5.71,3.47-10.36,11.26-12.12,10.75-2.44,24.86,6.46,30.91,14.56,6.75,9.05,9.94,21.88,20.27,26.42,7.4,3.24,17.91,2.07,21.52,9.31,3.22,6.49-2.39,13.79-3.25,21-.54,4.75,1,9.47,1.38,14.22s-1.07,10.33-5.4,12.33c-2.41,1.09-5.45,1-7.4,2.77-3.45,3.27-.62,10-4.07,13.29-1.22,1.14-2.91,1.56-4.39,2.31-7.76,3.92-7.55,15.34-3.94,23.26.13.28.26.54.39.83a164.06,164.06,0,0,0,84.11,23.23,163.2,163.2,0,0,0,77-19.16h0a163.64,163.64,0,0,0,14.51-8.74,162,162,0,0,0,20.37-16.2,157.64,157.64,0,0,0,12.46-13c2.75-3.17,5.35-6.47,7.84-9.84,1.27-1.74,2.52-3.48,3.69-5.27a162.94,162.94,0,0,0,26.65-69.76c.49-3.69.88-7.42,1.14-11.19a9.38,9.38,0,0,1-6.59,2.93C398.79,225,395.54,221.66,394,218Z" style="fill:#f5f5f5"></path><path d="M206.52,90.19c-3.25,1.94-5,5.61-7.48,8.44s-7,4.86-10,2.5a6.81,6.81,0,0,1-2.23-4.82,12.41,12.41,0,0,1,1.77-7.52c1.41-2.3,3.57-4.11,4.76-6.53s1-6-1.5-7.11c-1.32-.61-3-.37-4.17-1.24-2.11-1.55-.6-5.24,1.86-6.16s5.18-.21,7.8,0c9.51.61,16.5-5.62,23.64-10.79,5.56-4,17.4-8.77,23.83-4.66,2.57,1.64,3.57,5.85,1.16,7.71-1.09.82-2.58,1-3.59,1.93-1.2,1.1-1.37,2.91-2.07,4.39-1.8,3.84-7,5.24-8.66,9.15-1,2.35-.55,5.27-2.1,7.31-1.23,1.61-3.36,2.18-5.33,2.65l-12.4,2.94A18.65,18.65,0,0,0,206.52,90.19Z" style="fill:#ebebeb"></path><path d="M317.35,292.06c-4.12,6.2-4.86,13.94-6,21.29s-3.1,15.16-8.75,20-16,4.56-19.13-2.2c-1.69-3.67-.82-8-1.74-11.93-1.2-5.12-5.28-9.07-7.21-14-1.65-4.17-1.66-8.78-1.79-13.27-.74-24.51-6.71-50.08-23.4-68.05-2.05-2.21-4.37-4.36-7.29-5.13a9.31,9.31,0,0,0-9.57,3.3c-1.34,1.78-2,4-3.67,5.54-3.57,3.25-9.79.92-12.18-3.28S214.57,215,215,210.21q.74-9,1.48-17.9c.26-3.12.61-6.47,2.66-8.84,2.91-3.37,8.14-3.53,11.7-6.2,4.67-3.5,5.3-10.17,8.24-15.21s12.17-7.17,13.53-1.5c9.76-20.88,31.31,10.14,44.13,7.81,3.72-.68,7.36-2.47,11.11-1.94,6.61.92,10,8.21,12.28,14.5q5.61,15.67,11.21,31.33c1.42,4,3.26,8.4,7.2,9.92,3,1.17,6.53.28,9.57,1.39,8,2.92,5.43,15.58-1,21.18s-15.56,9.14-18.64,17.12c-2.32,6-.47,13.07-3,19C323.65,285.14,319.9,288.22,317.35,292.06Z" style="fill:#ebebeb"></path><path d="M347.88,298.87c-2.64.37-5.76-.94-7.77.82-1.17,1-1.43,2.71-1.9,4.19a8.9,8.9,0,0,1-3.74,5.12,5.65,5.65,0,0,1-6.12-.11,4.14,4.14,0,0,1-.83-5.73,27.55,27.55,0,0,1,2.28-1.86c3.5-3.32,1.1-9.47,3.77-13.41,1.57-2.32,4.05-4.68,5.78-7,1.33-1.81,1.81-3.24,4.26-3.72C354.3,275,359.13,297.29,347.88,298.87Z" style="fill:#ebebeb"></path><g style="opacity:0.6000000000000001"><path d="M154.39,347.46q2.07,1.4,4.19,2.72c1,.62,2,1.22,3,1.82-1-.6-2-1.2-3-1.82Q156.46,348.86,154.39,347.46Z" style="fill:#263238"></path></g><g style="opacity:0.6000000000000001"><path d="M81.86,204.42v0h0v0c0,.31,0,.6,0,.91,0,1,0,2,0,3,0-1,0-2,0-3C81.81,205,81.84,204.73,81.86,204.42Z" style="fill:#263238"></path></g><path d="M103.12,254.36c-.52-4.7,1-9.4,1.11-14.15.06-3.27-.18-6.72-.23-10A44.93,44.93,0,0,1,95.67,229a2.49,2.49,0,0,1-1.53-.78,3,3,0,0,1-.34-1.74c-.21-3.69-3.76-6.12-7-8a28,28,0,0,0-5.07-2.49c0,.39,0,.75,0,1.14a163.46,163.46,0,0,0,10.43,52,157.85,157.85,0,0,0,10,21.49c1.61,3,3.38,5.92,5.22,8.8,2.28,3.55,4.67,7,7.24,10.38,2.39,3.22,4.93,6.36,7.6,9.37a161.46,161.46,0,0,0,11.61,11.94q5.4,5.06,11.29,9.6c-9-24-17.39-48.56-32.71-69C108.49,266.45,103.87,261,103.12,254.36Z" style="fill:#ebebeb"></path><path d="M104.29,223.84l-1-.16c-2.88-.31-6.26-.47-7.84-2.85-1.84-2.78,0-6.91-1.92-9.63-1-1.43-2.7-2-4.1-3.07s-2.59-2.85-1.74-4.36c.7-1.27,2.52-1.53,3.43-2.69a2.67,2.67,0,0,0,0-3.25c-3-3.5-6.26,3.63-7.89,5.32a14.76,14.76,0,0,1-1.33,1.25v0c0,.31,0,.6,0,.91,0,1,0,2,0,3s-.05,2-.05,3c0,.8,0,.76,0,1.56s.05,2.45.07,3.24a28,28,0,0,1,5.07,2.49c3.19,1.84,6.74,4.28,7,8a3,3,0,0,0,.34,1.74,2.49,2.49,0,0,0,1.53.78A44.93,44.93,0,0,0,104,230.2" style="fill:#ebebeb"></path><path d="M104,230.2c0,3.29.29,6.74.23,10-.07,4.75-1.63,9.45-1.11,14.15.75,6.64,5.37,12.09,9.39,17.44,15.32,20.45,23.75,45,32.71,69h0c1.66,1.32,3.35,2.57,5.06,3.79,1.35,1,2.71,1.93,4.09,2.86s2.78,1.84,4.19,2.72c1,.62,2,1.22,3,1.82-.13-.29-.26-.55-.39-.83-3.61-7.92-3.82-19.34,3.94-23.26,1.48-.75,3.17-1.17,4.39-2.31,3.45-3.27.62-10,4.07-13.29,1.95-1.81,5-1.68,7.4-2.77,4.33-2,5.74-7.56,5.4-12.33S184.46,287.74,185,283c.86-7.19,6.47-14.49,3.25-21-3.61-7.25-14.12-6.08-21.52-9.32-10.33-4.54-13.52-17.37-20.27-26.42-6.05-8.1-20.16-17-30.91-14.56-7.79,1.76-10.46,6.41-11.26,12.12" style="fill:#ebebeb"></path><path d="M92,163.49c3.06-2.62,8.36-2.93,10.72.34,1.69,2.34,1.3,5.53.86,8.38q-.9,5.78-1.82,11.53a6,6,0,0,0,.15,3.45c1.15,2.44,5.14,2,6.67-.21s1.38-5.16,1-7.81-1-5.48.08-8c2.6-6.17,11.81-5.24,17.16-9.26,3.32-2.49,4.8-6.67,6.77-10.33s5.27-7.32,9.42-7.14c1.4.05,2.78.57,4.18.52,4.1-.13,6.49-6.13,3.58-9a10.65,10.65,0,0,1-1.81-1.87c-.73-1.38,0-3.14,1.29-4.08a9.8,9.8,0,0,1,4.36-1.4c3.51-.57,7-1.11,10.52-1.66,3.86-.6,8.82-2.59,8.28-6.46-.47-3.35-5-4.86-5.69-8.18a11.16,11.16,0,0,0-.44-2.44c-1.06-2.13-4.26-1.27-6.31-.13a5.06,5.06,0,0,0-7.7-2.46c-2.08,1.71-2.34,4.72-3.07,7.29-1.71,6.23-6.67,11-11.39,15.34-1.58,1.45-3.37,3-5.53,3.11s-4.41-2.2-3.43-4.1c.68-1.29,2.55-2,2.37-3.5-.26-1.82-3.43-1.69-4.05-3.43,1.24-5.14,7.14-7.26,11.65-10A28.14,28.14,0,0,0,151.7,97.34a3.7,3.7,0,0,0,.16-3c-.68-1.3-2.41-1.51-3.89-1.51-3.48,0-7.82.42-9.09,3.66-.67,1.74-.18,3.71-.59,5.53-1.22,5.4-8.62,6-13.14,9.21-1.76,1.25-3.14,3-5.08,4-2.11,1-4.57.93-6.91,1.11-.41,0-.83.08-1.24.13q-2.15,3-4.13,6.07T104,128.74a162.33,162.33,0,0,0-14.22,31.72q-1.92,5.82-3.37,11.83t-2.47,12.17c1.61-3.32,2.33-7.42,3-10.33C87.7,170.22,89,166.12,92,163.49Z" style="fill:#ebebeb"></path><path d="M409.32,222.05s-4.12,3-6.59,2.95c-3.94-.05-7.19-3.34-8.77-7s-2-7.65-3-11.47c-.57-2.05-1.53-4.23-3.45-5.14-1.27-.59-2.78-.52-4.13-.93-4.85-1.46-6.17-8.23-10.77-10.33a15.47,15.47,0,0,0-4.62-1c-6.15-.73-12.51-2.86-16.37-7.68-1.28-1.56-2.24-3.4-3.79-4.68s-4-1.81-5.56-.51c1.3,2.59,2.57,5.19,3.84,7.76,1.17,2.33,2.37,4.74,4.31,6.46s4.88,2.65,7.24,1.56a4.68,4.68,0,0,1,2.44-.86,2.66,2.66,0,0,1,1.59,1c3.34,3.71,2.25,9.86-1,13.65s-8.07,5.74-12.71,7.58a9.87,9.87,0,0,1-5.19,1c-3.22-.59-4.94-4.1-5.87-7.24-2.1-6.95-3.11-14.51-7.42-20.37-1.38-1.84-3.09-3.53-3.92-5.69-.88-2.33-.68-5.06-2.08-7.11s-4.54-3.4-4.75-6c-.13-1.82,1.38-3.43,3-4.21s3.53-1,5.24-1.74c.68-.28,1.43-.77,1.45-1.5,0-1.09-1.5-1.53-1.89-2.54s.75-2.21,1.25-3.33c1.06-2.54-1.59-5.11-4.16-6.15s-5.63-1.79-6.82-4.28a14.48,14.48,0,0,1-.83-3.71c-.6-3.14-2.91-6.18-6.08-6.7s-6.72,2.31-6.2,5.48c.31,1.74,1.61,3.09,2.31,4.7s.52,4-1.14,4.51c-2.73.83-5.35-4.15-7.63-2.44.93,3.19,1.84,6.39,2.78,9.61-3.59,1.81-7.87-1.48-9.4-5.22s-1.58-8-3.4-11.55-6.72-6.28-9.84-3.74c-.15,4.62,5.95,6.49,8.65,10.23,1.94,2.7,1.66,7.08-1.22,8.8s-7.4-1.28-6.31-4.42c.39-1.09,1.3-2,1.4-3.16.1-1.46-1.12-2.62-2.23-3.56-1.74-1.48-3.48-2.93-5.22-4.38a10.9,10.9,0,0,0-3.71-2.34c-3.58-1-7.16,1.87-9.06,5.06s-3,7-5.58,9.66c-3.76,3.89-10.9,4.12-14.43.05s-1.74-11.71,3.48-13.19c2-.54,4.46-.49,5.5-2.23,1.82-3.09-3.37-7-1.58-10.15,1.37-2.38,5-1.29,7.66-2.1s4.1-3.45,5.65-5.74,3.95-4.54,6.65-3.94c-.21-1.58-.42-3.3.28-4.72s2.68-2.39,4-1.46c-1.32,2.18.26,5.22,2.57,6.31s5,.83,7.56.54,5.73-1.24,5.94-3.78a9,9,0,0,1,.08-2.5c1.11-3,6.72,1.15,8.87-1.29,1.25-1.28-.13-3.53-1.87-4s-3.5.21-5.26.26-3.92-.86-4-2.62,1.87-3,2.08-4.7c.33-2.91-4.6-3.66-6.34-1.3s-1.11,5.61-.59,8.49.8,6.28-1.33,8.31c-.91,1.37-3.27.64-4.05-.81s-.62-3.22-.75-4.85-.86-3.53-2.46-4c-1.12-.31-2.31.23-3.46.39-4.51.54-7.65-5.3-6.23-9.61s5.51-7.11,9.48-9.31c2.9-1.61,6.51-3.12,9.39-1.48,1.35.75,2.29,2.05,3.61,2.83,2.28,1.35,5.11.85,7.73.9a18,18,0,0,1,11.29,4.39c1.17,1.06,2.26,2.83,1.35,4.1s-3.81,1.64-3.32,3.22a5.63,5.63,0,0,0,7.06-4.54,4.7,4.7,0,0,1,2.73,3.84c3.29-3.35,9.63-2.86,12.33,1,.72,1,1.24,2.23,2.28,2.93s2.85.34,3-.88a2.36,2.36,0,0,0-.2-1.14c-.63-1.77-1.28-3.5-1.9-5.24,2.42-1.3,5.27.72,6.91,2.9,6.07,8.13,10.4,3.25,19,4.57,5.79.88,8.33,4.59,11.6,9.09,10,13.8,23.25,25.12,32.36,39.55q1.44,2.25,2.68,4.59h0v0c.78,2.08,1.51,4.16,2.2,6.27s1.34,4.23,1.95,6.37a142.63,142.63,0,0,1,3.93,16.1s1.14,9.27,1.42,12.29c.21,2.31.41,4.63.54,7s.2,4.67.21,7Z" style="fill:#ebebeb"></path><path d="M450.69,343.76a30.41,30.41,0,1,1-28.24-32.38A30.38,30.38,0,0,1,450.69,343.76Z" style="fill:#ebebeb"></path><path d="M443.47,343.26A23.18,23.18,0,1,1,422,318.58,23.16,23.16,0,0,1,443.47,343.26Z" style="fill:#ebebeb"></path><path d="M443.47,343.26a1.59,1.59,0,0,1,0-.38V341c0-.3-.05-.62-.08-1a17.54,17.54,0,0,0-.33-2.42,22.07,22.07,0,0,0-2.15-6.28,23.14,23.14,0,0,0-14.75-11.82,23.12,23.12,0,0,0-12.09.17,22.68,22.68,0,0,0-3.08,1.1c-.5.22-1,.5-1.48.75a10.57,10.57,0,0,0-1.45.85,26.19,26.19,0,0,0-2.75,2,25.9,25.9,0,0,0-2.42,2.49,22.06,22.06,0,0,0-3.72,6.06,22.67,22.67,0,0,0-1,14.42,22.3,22.3,0,0,0,2.83,6.53,26.22,26.22,0,0,0,2.06,2.8,25,25,0,0,0,2.45,2.38,24.55,24.55,0,0,0,2.68,2,24.88,24.88,0,0,0,2.89,1.51,23,23,0,0,0,28.2-7.82,22,22,0,0,0,3-5.92,16.83,16.83,0,0,0,.66-2.35c.07-.34.16-.66.21-1s.08-.56.11-.8c.07-.46.12-.82.16-1.09a2.09,2.09,0,0,1,.07-.37,2.07,2.07,0,0,1,0,.37c0,.27-.06.64-.11,1.1,0,.24,0,.51-.09.81s-.12.61-.19,1a16.43,16.43,0,0,1-.62,2.37,21.84,21.84,0,0,1-2.95,6,23.39,23.39,0,0,1-6.35,6.21A23.29,23.29,0,0,1,410.88,363a22.52,22.52,0,0,1-3-1.54,24,24,0,0,1-2.73-2,21.49,21.49,0,0,1-4.61-5.29,22.51,22.51,0,0,1-2.9-6.65,23,23,0,0,1,1-14.73,22.58,22.58,0,0,1,3.79-6.19,21.06,21.06,0,0,1,5.29-4.59,11.69,11.69,0,0,1,1.48-.87c.51-.25,1-.53,1.52-.76a24.5,24.5,0,0,1,3.14-1.12,23.51,23.51,0,0,1,12.31-.12,23.33,23.33,0,0,1,14.9,12.09,21.88,21.88,0,0,1,2.09,6.37,17.24,17.24,0,0,1,.28,2.44c0,.35.06.68.06,1s0,.57,0,.81l-.05,1.1A1.88,1.88,0,0,1,443.47,343.26Z" style="fill:#e0e0e0"></path><path d="M443.27,343.49a13.54,13.54,0,0,1-.41-2.83,24.91,24.91,0,0,0-2.15-7.27A23.47,23.47,0,0,0,438,329a22.52,22.52,0,0,0-4.24-4.13,20.47,20.47,0,0,0-2.68-1.73,21.91,21.91,0,0,0-3-1.38,22.46,22.46,0,0,0-3.31-.93,24.16,24.16,0,0,0-3.52-.41,24.43,24.43,0,0,0-3.54.14,23.25,23.25,0,0,0-3.38.68,22.86,22.86,0,0,0-5.93,2.67,22.61,22.61,0,0,0-4.55,3.8,23.89,23.89,0,0,0-3.07,4.19A25.17,25.17,0,0,0,398,339a13.78,13.78,0,0,1-.62,2.78,7,7,0,0,1,0-2.89,21.53,21.53,0,0,1,2.28-7.58,23.3,23.3,0,0,1,7.83-8.76,21.63,21.63,0,0,1,3-1.69,22.75,22.75,0,0,1,3.35-1.28,23,23,0,0,1,7.46-.92,23.17,23.17,0,0,1,7.36,1.48,22.93,22.93,0,0,1,3.24,1.53,22.12,22.12,0,0,1,2.85,1.91,23.32,23.32,0,0,1,4.42,4.54,23.7,23.7,0,0,1,2.72,4.79,21.66,21.66,0,0,1,1.69,7.73A6.94,6.94,0,0,1,443.27,343.49Z" style="fill:#e0e0e0"></path><path d="M413.77,353.85a12.37,12.37,0,0,1-1.46-.82l-1.39-.95,11.56-23.65,3.5,1.71L416,350.6c2.68,1.17,8.51,2.6,13.62-3.81l3,2.43c-4.7,5.89-10,6.62-13.62,6.2A16.57,16.57,0,0,1,413.77,353.85Z" style="fill:#e0e0e0"></path><rect x="420.92" y="327.34" width="2.08" height="19.56" transform="translate(38.59 717.56) rotate(-83.4)" style="fill:#e0e0e0"></rect><rect x="419.02" y="331.22" width="2.08" height="19.56" transform="translate(33.06 719.11) rotate(-83.4)" style="fill:#e0e0e0"></rect><path d="M97.64,84.92a26.15,26.15,0,1,1-34-14.36A26.13,26.13,0,0,1,97.64,84.92Z" style="fill:#f5f5f5"></path><path d="M91.87,87.26A19.92,19.92,0,1,1,65.94,76.32,19.9,19.9,0,0,1,91.87,87.26Z" style="fill:#f5f5f5"></path><path d="M91.87,87.26a1.71,1.71,0,0,1-.15-.29c-.11-.2-.25-.49-.42-.84L91,85.5c-.13-.23-.28-.46-.44-.72A13.44,13.44,0,0,0,89.4,83a18.44,18.44,0,0,0-4-4,19.86,19.86,0,0,0-15.86-3.57,19.92,19.92,0,0,0-9.27,4.69,21.93,21.93,0,0,0-2,2c-.3.37-.57.76-.86,1.14a11,11,0,0,0-.8,1.21,23.58,23.58,0,0,0-1.36,2.59,23,23,0,0,0-.94,2.84A19.33,19.33,0,0,0,53.74,96a21.34,21.34,0,0,0,1.39,6.14,21,21,0,0,0,3.28,5.38,18.82,18.82,0,0,0,4.65,4,21.6,21.6,0,0,0,2.65,1.39,22.2,22.2,0,0,0,2.79.92,20.9,20.9,0,0,0,2.82.53,20.24,20.24,0,0,0,2.8.08,19.9,19.9,0,0,0,9.93-3.09A19.88,19.88,0,0,0,93,97.71,19.28,19.28,0,0,0,93,92,15.3,15.3,0,0,0,92.66,90c-.07-.3-.12-.57-.19-.82s-.16-.46-.22-.66l-.29-.9a1.25,1.25,0,0,1-.09-.31,1.79,1.79,0,0,1,.13.3l.33.88.24.66c.07.25.13.52.21.82A13.54,13.54,0,0,1,93.2,92a19.14,19.14,0,0,1,0,5.77,20,20,0,0,1-19,17,19.59,19.59,0,0,1-2.86-.07,21.72,21.72,0,0,1-5.73-1.47,21,21,0,0,1-2.7-1.41,19.44,19.44,0,0,1-4.76-4A19.76,19.76,0,0,1,53.33,96a19.51,19.51,0,0,1,.6-6.21,21.75,21.75,0,0,1,1-2.89,21.47,21.47,0,0,1,1.39-2.65A9.39,9.39,0,0,1,57.1,83c.29-.39.57-.79.88-1.16a20.56,20.56,0,0,1,11.46-6.79,19.85,19.85,0,0,1,9.23.33,20.08,20.08,0,0,1,6.84,3.39,18.54,18.54,0,0,1,4,4.13,14,14,0,0,1,1.14,1.78c.15.26.3.5.42.73l.28.64c.16.37.29.65.39.87A1.36,1.36,0,0,1,91.87,87.26Z" style="fill:#ebebeb"></path><path d="M91.81,87.51c-.11,0-.52-.73-1.39-2A21.17,21.17,0,0,0,86,80.68a20,20,0,0,0-3.78-2.37,19.72,19.72,0,0,0-4.83-1.6,20.17,20.17,0,0,0-2.73-.32,18.33,18.33,0,0,0-2.86.08,20,20,0,0,0-2.91.53,19.34,19.34,0,0,0-5.55,2.46A18.25,18.25,0,0,0,61,81.26a19.57,19.57,0,0,0-3.58,4.29,19.81,19.81,0,0,0-2.08,4.65,21.21,21.21,0,0,0-.79,4.4,21.5,21.5,0,0,0,.59,6.49,11.43,11.43,0,0,1,.57,2.39,6,6,0,0,1-1.13-2.22,18.57,18.57,0,0,1-1.1-6.71,19.93,19.93,0,0,1,2.74-9.72A20.43,20.43,0,0,1,60,80.14a19.53,19.53,0,0,1,2.53-2,20,20,0,0,1,6-2.65A19.44,19.44,0,0,1,71.67,75a18.69,18.69,0,0,1,3.08,0,18.5,18.5,0,0,1,2.92.4,19.94,19.94,0,0,1,9,4.51,18.62,18.62,0,0,1,4.23,5.33A6.12,6.12,0,0,1,91.81,87.51Z" style="fill:#ebebeb"></path><polygon points="77.72 84.72 75.91 81.66 63.64 88.9 72.76 104.35 69.05 106.54 70.85 109.61 74.57 107.42 75.63 109.22 78.7 107.41 77.63 105.61 81.67 103.23 79.86 100.16 75.82 102.54 73.56 98.7 79.75 95.04 77.94 91.97 71.75 95.63 68.52 90.16 77.72 84.72" style="fill:#ebebeb"></polygon><path d="M63.91,249a19,19,0,1,1-22.79-14.12A19,19,0,0,1,63.91,249Z" style="fill:#ebebeb"></path><path d="M59.51,250a14.46,14.46,0,1,1-17.36-10.76A14.44,14.44,0,0,1,59.51,250Z" style="fill:#ebebeb"></path><path d="M59.51,250s0-.07-.08-.22-.11-.38-.2-.66-.09-.3-.15-.48-.14-.36-.23-.57a9.39,9.39,0,0,0-.63-1.37,14,14,0,0,0-2.44-3.36,14.27,14.27,0,0,0-4.49-3.11A14.09,14.09,0,0,0,44.81,239a14.43,14.43,0,0,0-7.18,2.32A15.72,15.72,0,0,0,36,242.55c-.26.23-.49.48-.74.72a6.57,6.57,0,0,0-.71.78,15.46,15.46,0,0,0-1.27,1.71,15.23,15.23,0,0,0-1,1.93,13.83,13.83,0,0,0-1.1,4.29,14.24,14.24,0,0,0,2.05,8.79,13.77,13.77,0,0,0,2.89,3.36,16.5,16.5,0,0,0,1.75,1.3,17.74,17.74,0,0,0,1.89,1,14.4,14.4,0,0,0,2,.69,15.64,15.64,0,0,0,2,.38,14.53,14.53,0,0,0,7.46-1.1,14.51,14.51,0,0,0,7.92-8.75,13.74,13.74,0,0,0,.7-4.09,10.33,10.33,0,0,0,0-1.51c0-.22,0-.43-.05-.61s-.06-.35-.08-.5-.08-.51-.11-.68l0-.23a.67.67,0,0,1,.06.23l.14.67c0,.15.06.32.1.5s0,.39.06.61a10.33,10.33,0,0,1,.06,1.53,13.57,13.57,0,0,1-.65,4.13,14.56,14.56,0,0,1-8,8.93,14.67,14.67,0,0,1-7.59,1.15,16.39,16.39,0,0,1-2.05-.38,15.34,15.34,0,0,1-2-.7,16.87,16.87,0,0,1-1.94-1,18.6,18.6,0,0,1-1.78-1.32A13.94,13.94,0,0,1,33,260.93a14.37,14.37,0,0,1-2.1-9A14.13,14.13,0,0,1,32,247.57a16.59,16.59,0,0,1,1-2,16.07,16.07,0,0,1,1.3-1.74,7.76,7.76,0,0,1,.72-.79c.26-.25.5-.5.76-.73a15,15,0,0,1,1.67-1.24,14.58,14.58,0,0,1,7.32-2.34,14.5,14.5,0,0,1,11.1,4.47,13.37,13.37,0,0,1,2.42,3.41,9.94,9.94,0,0,1,.62,1.4c.08.21.16.4.21.57l.14.49c.07.29.13.51.17.67A.82.82,0,0,1,59.51,250Z" style="fill:#e0e0e0"></path><path d="M59.44,250.17c-.09,0-.29-.58-.77-1.6a15.44,15.44,0,0,0-2.61-3.95,14.84,14.84,0,0,0-2.45-2.12,14.47,14.47,0,0,0-3.28-1.69,13.6,13.6,0,0,0-1.92-.53,12.76,12.76,0,0,0-2.06-.27,14.12,14.12,0,0,0-2.15.06,13.77,13.77,0,0,0-2.17.4,13.21,13.21,0,0,0-4,1.76,14.12,14.12,0,0,0-1.66,1.25A13.36,13.36,0,0,0,35,244.91a14,14,0,0,0-2,3.1,14.69,14.69,0,0,0-1.06,3.06,15.52,15.52,0,0,0-.31,4.72,9,9,0,0,1,.14,1.78,4.23,4.23,0,0,1-.56-1.72,13.22,13.22,0,0,1,0-4.93,14.27,14.27,0,0,1,1-3.3,14.55,14.55,0,0,1,2.06-3.37,14.65,14.65,0,0,1,3.24-2.93,13.7,13.7,0,0,1,2-1.12,15.26,15.26,0,0,1,2.24-.8,14.4,14.4,0,0,1,4.67-.47,14.52,14.52,0,0,1,2.21.31,14.79,14.79,0,0,1,2.05.62,14.55,14.55,0,0,1,3.47,1.89,15,15,0,0,1,2.5,2.36,13.53,13.53,0,0,1,2.43,4.29A4.33,4.33,0,0,1,59.44,250.17Z" style="fill:#e0e0e0"></path><rect x="45.12" y="241.84" width="2.76" height="11.86" transform="translate(-205.48 255.38) rotate(-81.1)" style="fill:#e0e0e0"></rect><rect x="44.63" y="244.03" width="2.76" height="15.61" transform="translate(-209.91 258.33) rotate(-81.1)" style="fill:#e0e0e0"></rect><path d="M49,262.05h0c-1.28-.2-3.38-1.05-3.1-4.45.17-2,.79-5.53.82-5.68l2.72.48s-.63,3.58-.78,5.43c-.12,1.35.26,1.41.77,1.49h0c.63.1,1-.95,1-1l2.64.83C52.73,260.34,51.42,262.43,49,262.05Z" style="fill:#e0e0e0"></path><path d="M37.27,259.6,37,256.86l.16,1.37-.17-1.37a6.25,6.25,0,0,0,5.29-5.57l2.74.33A9,9,0,0,1,37.27,259.6Z" style="fill:#e0e0e0"></path><path d="M473.86,162.75a23.71,23.71,0,1,1-28.46-17.64A23.68,23.68,0,0,1,473.86,162.75Z" style="fill:#fafafa"></path><path d="M468.37,164a18.06,18.06,0,1,1-21.69-13.44A18,18,0,0,1,468.37,164Z" style="fill:#fafafa"></path><path d="M468.37,164a1.08,1.08,0,0,1-.1-.27l-.26-.82c-.05-.18-.11-.39-.18-.61s-.18-.45-.29-.7a13.17,13.17,0,0,0-.79-1.72,17,17,0,0,0-3.05-4.19,17.65,17.65,0,0,0-5.6-3.89A17.88,17.88,0,0,0,441,153.2a19.61,19.61,0,0,0-2,1.53c-.33.28-.62.6-.94.9a9.06,9.06,0,0,0-.88,1,21,21,0,0,0-1.58,2.13,19.57,19.57,0,0,0-1.24,2.41,17.4,17.4,0,0,0-1.37,5.37,18.93,18.93,0,0,0,.38,5.7,19.17,19.17,0,0,0,2.18,5.28,17.4,17.4,0,0,0,3.61,4.2,19.84,19.84,0,0,0,2.18,1.62,20.34,20.34,0,0,0,2.37,1.21,17,17,0,0,0,2.45.87,18.31,18.31,0,0,0,2.5.47,18,18,0,0,0,9.33-1.38,18,18,0,0,0,9.88-10.93,17.22,17.22,0,0,0,.88-5.1,16.18,16.18,0,0,0-.05-1.9c0-.27,0-.52-.06-.75s-.07-.44-.1-.63c-.06-.36-.11-.64-.14-.84a1.12,1.12,0,0,1,0-.3s0,.1.07.29l.17.84c0,.19.08.4.12.62s0,.49.08.76a12.58,12.58,0,0,1,.08,1.91,16.86,16.86,0,0,1-.82,5.17,18.14,18.14,0,0,1-10,11.15,18.2,18.2,0,0,1-9.49,1.43,17.8,17.8,0,0,1-2.55-.47,18.26,18.26,0,0,1-2.51-.88,20.27,20.27,0,0,1-2.41-1.23,21,21,0,0,1-2.23-1.64,17.61,17.61,0,0,1-3.69-4.3A19.35,19.35,0,0,1,433,172.3a19.75,19.75,0,0,1-.39-5.82A17.77,17.77,0,0,1,434,161a16.89,16.89,0,0,1,2.89-4.64,9.25,9.25,0,0,1,.9-1c.32-.31.62-.63.95-.92a20,20,0,0,1,2.08-1.55A18.29,18.29,0,0,1,450,150a18.18,18.18,0,0,1,13.88,5.58,17.27,17.27,0,0,1,3,4.27,13.07,13.07,0,0,1,.77,1.75c.1.26.2.49.27.71s.12.43.17.62c.09.35.16.62.22.83Z" style="fill:#f5f5f5"></path><path d="M468.27,164.25a11,11,0,0,1-.95-2,19.39,19.39,0,0,0-3.27-4.92,18.83,18.83,0,0,0-3.05-2.66,18.24,18.24,0,0,0-4.11-2.1,17,17,0,0,0-2.4-.67,16.56,16.56,0,0,0-2.57-.33,17.21,17.21,0,0,0-2.68.07,16.73,16.73,0,0,0-5.32,1.42,16.76,16.76,0,0,0-2.36,1.28,16.94,16.94,0,0,0-2.06,1.57,17.17,17.17,0,0,0-1.75,1.77,17.9,17.9,0,0,0-2.51,3.88,18.17,18.17,0,0,0-1.32,3.83,19,19,0,0,0-.38,5.89,11.34,11.34,0,0,1,.17,2.22,5.25,5.25,0,0,1-.7-2.14,16.77,16.77,0,0,1,0-6.17,18.14,18.14,0,0,1,3.81-8.32,17.73,17.73,0,0,1,1.84-2,18.09,18.09,0,0,1,2.21-1.72,17.64,17.64,0,0,1,2.53-1.4,19.12,19.12,0,0,1,2.81-1,18.59,18.59,0,0,1,2.93-.53,17.48,17.48,0,0,1,2.89,0,16.65,16.65,0,0,1,2.77.39,17.27,17.27,0,0,1,2.56.76,18.46,18.46,0,0,1,4.33,2.37,18.18,18.18,0,0,1,3.13,3,16.63,16.63,0,0,1,3,5.36A5.3,5.3,0,0,1,468.27,164.25Z" style="fill:#f5f5f5"></path><rect x="450.39" y="153.84" width="3.45" height="14.82" transform="translate(222.86 582.98) rotate(-81.1)" style="fill:#f5f5f5"></rect><rect x="449.77" y="156.58" width="3.45" height="19.5" transform="translate(217.32 586.66) rotate(-81.1)" style="fill:#f5f5f5"></rect><path d="M455.27,179.09h0c-1.6-.25-4.23-1.31-3.87-5.56.21-2.46,1-6.9,1-7.09l3.4.6s-.79,4.47-1,6.78c-.14,1.69.33,1.76,1,1.86h0c.8.12,1.24-1.19,1.25-1.21l3.29,1C459.89,177,458.26,179.56,455.27,179.09Z" style="fill:#f5f5f5"></path><path d="M440.58,176l-.4-3.43.2,1.72-.21-1.72a7.78,7.78,0,0,0,6.6-6.95l3.43.41A11.2,11.2,0,0,1,440.58,176Z" style="fill:#f5f5f5"></path><path d="M419.53,51.36a31,31,0,1,1-37.19-23A30.93,30.93,0,0,1,419.53,51.36Z" style="fill:#f5f5f5"></path><path d="M412.35,53A23.6,23.6,0,1,1,384,35.47,23.57,23.57,0,0,1,412.35,53Z" style="fill:#f5f5f5"></path><path d="M412.35,53a3.72,3.72,0,0,1-.13-.36l-.33-1.07-.24-.79c-.1-.28-.24-.59-.37-.92a18.64,18.64,0,0,0-1-2.25,22.62,22.62,0,0,0-4-5.47,23.42,23.42,0,0,0-29.62-3.29,25,25,0,0,0-2.66,2c-.42.37-.81.78-1.22,1.17a11.56,11.56,0,0,0-1.15,1.27,26.17,26.17,0,0,0-2.07,2.79,26.71,26.71,0,0,0-1.62,3.15,22.68,22.68,0,0,0-1.79,7,23.09,23.09,0,0,0,3.35,14.34,22.12,22.12,0,0,0,4.72,5.49A24.85,24.85,0,0,0,377,78.21a26.57,26.57,0,0,0,3.09,1.59,25.58,25.58,0,0,0,3.21,1.14,23.52,23.52,0,0,0,28.37-15.47,22.77,22.77,0,0,0,1.14-6.67,17.46,17.46,0,0,0-.07-2.47c0-.36,0-.69-.07-1s-.1-.57-.14-.82c-.07-.47-.13-.83-.17-1.11s0-.37,0-.38a2.63,2.63,0,0,1,.1.37c.05.28.13.64.22,1.11.05.24.1.51.16.81s.06.63.1,1a17.41,17.41,0,0,1,.11,2.5A22.3,22.3,0,0,1,412,65.55a23.81,23.81,0,0,1-13,14.58A23.94,23.94,0,0,1,386.56,82a24.48,24.48,0,0,1-3.34-.62A23.1,23.1,0,0,1,380,80.23a25.4,25.4,0,0,1-3.16-1.61,26,26,0,0,1-2.91-2.15,22.85,22.85,0,0,1-4.82-5.6,23.54,23.54,0,0,1-3.42-14.64,23,23,0,0,1,1.84-7.16,27.87,27.87,0,0,1,1.65-3.22A28.71,28.71,0,0,1,371.25,43a12,12,0,0,1,1.18-1.29c.42-.4.81-.81,1.24-1.19a26,26,0,0,1,2.72-2,24,24,0,0,1,11.95-3.82A23.73,23.73,0,0,1,406.46,42a22.13,22.13,0,0,1,4,5.57,18.37,18.37,0,0,1,1,2.29c.12.34.25.64.35.93s.15.56.22.8l.28,1.09A1.39,1.39,0,0,1,412.35,53Z" style="fill:#ebebeb"></path><path d="M412.23,53.32A14.19,14.19,0,0,1,411,50.69a25.08,25.08,0,0,0-4.27-6.43,23.85,23.85,0,0,0-4-3.47A23.5,23.5,0,0,0,397.36,38a22.31,22.31,0,0,0-3.14-.88,22.53,22.53,0,0,0-6.86-.34,26.28,26.28,0,0,0-3.55.65,25.85,25.85,0,0,0-3.4,1.21,23.35,23.35,0,0,0-3.08,1.67,22.15,22.15,0,0,0-2.69,2,20.83,20.83,0,0,0-2.28,2.33,23.25,23.25,0,0,0-3.29,5.06,24.82,24.82,0,0,0-1.73,5,25.36,25.36,0,0,0-.49,7.7,13.55,13.55,0,0,1,.22,2.9,7.09,7.09,0,0,1-.91-2.8,22,22,0,0,1-.06-8.06,23.55,23.55,0,0,1,5-10.87,22.07,22.07,0,0,1,2.4-2.55,22.82,22.82,0,0,1,2.88-2.24A23.53,23.53,0,0,1,379.68,37a26.16,26.16,0,0,1,3.67-1.31,25.46,25.46,0,0,1,3.83-.69A22.79,22.79,0,0,1,391,35a22.26,22.26,0,0,1,3.61.51,23.28,23.28,0,0,1,3.35,1,24.07,24.07,0,0,1,5.66,3.09,23.68,23.68,0,0,1,4.08,3.85,22.07,22.07,0,0,1,4,7A7,7,0,0,1,412.23,53.32Z" style="fill:#ebebeb"></path><path d="M404.12,58.7V56.19h-2.65l1.71-7.38-2.59,0-1.7,7.34h-5.51l-1.73-7.36h-3.12l-1.82,7.36h-5.47l-1.81-7.42h-2.59l1.81,7.42H376V58.7h3.22l.47,1.94H376v2.51h4.31l2,8.12h3.25l2-8.12h4.85l1.94,8.26h3.79l1.8-8.26h4.17V60.64H400.5l.42-1.94Zm-14.06-5.62.73,3.11H389.3Zm-8.21,5.62h4.23l-.47,1.94h-3.29Zm2.1,8.63-1-4.18H385Zm4.25-6.69.47-1.94h2.71l.46,1.94Zm8,7.75L395,63.15h2.37Zm1.69-7.75h-3.5L394,58.7h4.39Z" style="fill:#ebebeb"></path></g><g id="freepik--Currency--inject-166"><path d="M141,190.16A37.91,37.91,0,1,1,91.7,169.34,37.87,37.87,0,0,1,141,190.16Z" style="fill:#92E3A9"></path><path d="M132.68,193.55a28.89,28.89,0,1,1-37.6-15.87A28.86,28.86,0,0,1,132.68,193.55Z" style="fill:#92E3A9"></path><path d="M132.68,193.55a4.23,4.23,0,0,1-.22-.41l-.61-1.24-.44-.9c-.18-.33-.4-.67-.63-1.05a20.74,20.74,0,0,0-1.68-2.52,27.5,27.5,0,0,0-5.84-5.87,28.79,28.79,0,0,0-9.83-4.76,28.41,28.41,0,0,0-13.17-.4A29.31,29.31,0,0,0,84,186.11c-.44.53-.83,1.1-1.26,1.66a15.87,15.87,0,0,0-1.15,1.74,31.33,31.33,0,0,0-2,3.77,30.57,30.57,0,0,0-1.36,4.12,27.33,27.33,0,0,0-.84,8.82,28.22,28.22,0,0,0,6.76,16.71,27.75,27.75,0,0,0,6.75,5.75,31.22,31.22,0,0,0,3.84,2,33.53,33.53,0,0,0,4,1.34,26.71,26.71,0,0,0,8.16.88,28.87,28.87,0,0,0,14.4-4.48,28.79,28.79,0,0,0,12.91-19.72,27.29,27.29,0,0,0,.12-8.28,20.47,20.47,0,0,0-.55-3c-.1-.43-.17-.83-.27-1.18s-.23-.67-.32-1c-.18-.55-.32-1-.42-1.31a2.2,2.2,0,0,1-.13-.45,2.29,2.29,0,0,1,.18.43c.12.32.28.74.48,1.29l.35.95c.11.36.2.76.31,1.19a19.93,19.93,0,0,1,.6,3,27.09,27.09,0,0,1,0,8.36,29.13,29.13,0,0,1-13,20.09A29.34,29.34,0,0,1,107,233.47a32.26,32.26,0,0,1-4.16-.11,31.81,31.81,0,0,1-4.17-.77,33.23,33.23,0,0,1-4.13-1.36,32.44,32.44,0,0,1-3.92-2,28.51,28.51,0,0,1-6.9-5.87,28.76,28.76,0,0,1-6.9-17.06,28.22,28.22,0,0,1,.86-9,27,27,0,0,1,3.42-8,13.39,13.39,0,0,1,1.18-1.78c.43-.56.83-1.14,1.28-1.68a30.19,30.19,0,0,1,2.9-3,29.36,29.36,0,0,1,13.73-6.88,29.08,29.08,0,0,1,23.3,5.39,27,27,0,0,1,5.83,6,18.75,18.75,0,0,1,1.65,2.57c.22.39.44.73.61,1.07s.29.64.41.92c.23.53.42,1,.55,1.26A2.78,2.78,0,0,1,132.68,193.55Z" style="fill:#263238"></path><g style="opacity:0.30000000000000004"><path d="M132.59,193.91c-.16.07-.75-1.06-2-2.93a30.62,30.62,0,0,0-6.38-7,29.63,29.63,0,0,0-5.49-3.45,28.56,28.56,0,0,0-7-2.3,25.39,25.39,0,0,0-4-.47,27.54,27.54,0,0,0-4.15.11,28.62,28.62,0,0,0-4.22.77,31.17,31.17,0,0,0-4.16,1.46,29.58,29.58,0,0,0-3.89,2.11,27.61,27.61,0,0,0-3.41,2.6,26.89,26.89,0,0,0-2.87,3,26.16,26.16,0,0,0-2.32,3.25,28.74,28.74,0,0,0-3,6.74,29.9,29.9,0,0,0-1.15,6.38,31,31,0,0,0,.86,9.41c.54,2.19,1,3.39.82,3.46s-.82-1-1.64-3.21A27.24,27.24,0,0,1,77,204.12a29.62,29.62,0,0,1,1-6.81A29.26,29.26,0,0,1,81,190a27.66,27.66,0,0,1,2.42-3.53,29,29,0,0,1,6.72-6.1,31.09,31.09,0,0,1,4.18-2.28,32,32,0,0,1,4.5-1.56,28.83,28.83,0,0,1,9-.87,27.58,27.58,0,0,1,4.24.58,29,29,0,0,1,7.43,2.67,29.5,29.5,0,0,1,5.67,3.88,26.7,26.7,0,0,1,6.12,7.73C132.38,192.61,132.7,193.86,132.59,193.91Z"></path></g><g style="opacity:0.30000000000000004"><path d="M115.4,219.14l2,4.64-4.14,1.75L111.31,221c-4.2,1.49-8.67,1.86-11.7,1l.14-6a18.16,18.16,0,0,0,9.28-.45l-2.92-6.91c-5.07.82-10.85,1.45-13.35-4.47-1.85-4.39-.25-9.5,6-13l-1.94-4.6,4.14-1.75,1.91,4.52a20.33,20.33,0,0,1,9.47-1l.08,6a18.45,18.45,0,0,0-7.24.52l3,7c5-.87,10.74-1.46,13.21,4.37C123.14,210.56,121.57,215.61,115.4,219.14Zm-11.86-16.55-2.48-5.88c-2,1.42-2.35,3-1.77,4.36S101.47,202.78,103.54,202.59Zm11.33,7c-.61-1.45-2.14-1.73-4.19-1.6l2.42,5.72C115,212.35,115.43,210.89,114.87,209.56Z"></path></g><path d="M230.43,114A37.91,37.91,0,1,1,186.8,82.91,37.87,37.87,0,0,1,230.43,114Z" style="fill:#92E3A9"></path><path d="M221.54,115.46a28.89,28.89,0,1,1-33.25-23.68A28.87,28.87,0,0,1,221.54,115.46Z" style="fill:#92E3A9"></path><path d="M221.54,115.46a2.54,2.54,0,0,1-.14-.45c-.08-.33-.18-.77-.32-1.34-.07-.29-.15-.62-.23-1s-.25-.74-.38-1.16a23.1,23.1,0,0,0-1.1-2.83,27.37,27.37,0,0,0-4.43-7,28.82,28.82,0,0,0-21.32-10A28.84,28.84,0,0,0,179,95.37a30.56,30.56,0,0,0-3.4,2.23c-.55.42-1.05.89-1.59,1.34a14.64,14.64,0,0,0-1.5,1.45,31.89,31.89,0,0,0-2.75,3.25,33.82,33.82,0,0,0-2.22,3.72,27.62,27.62,0,0,0-2.74,8.43,28.19,28.19,0,0,0,3,17.78,27.59,27.59,0,0,0,5.34,7.08,26.25,26.25,0,0,0,7,5,28.47,28.47,0,0,0,3.83,1.64,29.68,29.68,0,0,0,3.95,1,28.74,28.74,0,0,0,31.92-17.67,27.77,27.77,0,0,0,1.92-8,21.75,21.75,0,0,0,.11-3c0-.44,0-.85,0-1.22s-.07-.7-.1-1c-.06-.57-.1-1-.13-1.36a2.08,2.08,0,0,1,0-.47,4,4,0,0,1,.08.46c0,.33.11.79.19,1.36,0,.3.08.64.13,1s0,.78,0,1.22a21.49,21.49,0,0,1-.06,3.06,27.11,27.11,0,0,1-1.84,8.15,29,29,0,0,1-17,16.79,29.73,29.73,0,0,1-19.32.3,31,31,0,0,1-3.91-1.66,32.15,32.15,0,0,1-3.73-2.22,32.58,32.58,0,0,1-3.39-2.85,28.52,28.52,0,0,1-5.45-7.23,28.87,28.87,0,0,1-3-18.15,28.36,28.36,0,0,1,2.81-8.61,34.21,34.21,0,0,1,2.27-3.79A31,31,0,0,1,172.1,100a15.34,15.34,0,0,1,1.54-1.48c.55-.46,1.06-.94,1.62-1.36a30.48,30.48,0,0,1,3.48-2.27,29.29,29.29,0,0,1,14.89-3.72,29.07,29.07,0,0,1,21.57,10.33,27.2,27.2,0,0,1,4.39,7.12,21.07,21.07,0,0,1,1,2.87c.13.42.26.81.36,1.17s.14.7.2,1c.11.57.2,1,.27,1.35A3.86,3.86,0,0,1,221.54,115.46Z" style="fill:#263238"></path><g style="opacity:0.30000000000000004"><path d="M221.36,115.79c-.17,0-.5-1.19-1.32-3.3a30.56,30.56,0,0,0-4.71-8.19,29.65,29.65,0,0,0-4.6-4.56A29.12,29.12,0,0,0,204.39,96a25.29,25.29,0,0,0-3.76-1.32,26.88,26.88,0,0,0-4.07-.79,29,29,0,0,0-4.29-.17,31.31,31.31,0,0,0-4.38.52,29.3,29.3,0,0,0-4.25,1.21,27.14,27.14,0,0,0-3.9,1.8,26.81,26.81,0,0,0-3.45,2.29,26.26,26.26,0,0,0-3,2.66,28.61,28.61,0,0,0-6.91,11.9,30.73,30.73,0,0,0-1.21,9.38c.05,2.26.21,3.52,0,3.55s-.58-1.18-.9-3.49a27.09,27.09,0,0,1,.57-9.85,28.74,28.74,0,0,1,7-12.89A25.67,25.67,0,0,1,175,97.85a28.64,28.64,0,0,1,3.7-2.52,28.08,28.08,0,0,1,4.18-2,28.7,28.7,0,0,1,9.32-1.86,29.13,29.13,0,0,1,13,2.6,28.9,28.9,0,0,1,11.36,9.25,27.2,27.2,0,0,1,4.3,8.87C221.45,114.48,221.49,115.77,221.36,115.79Z"></path></g><g style="opacity:0.30000000000000004"><path d="M204.2,127.15l4.86,4.11c-2.81,3.81-7.23,6-12.74,6.27-8,.39-14.54-3.83-16.95-10.55l-5.1.24-.18-3.79,4.42-.22c-.06-.4-.08-.81-.1-1.21a10.1,10.1,0,0,1,0-1.23L174,121l-.18-3.8,5.1-.24c1.76-6.93,7.87-11.75,15.86-12.13,5.52-.26,10.13,1.51,13.28,5l-4.44,4.56a10.37,10.37,0,0,0-8.18-3.32,9.77,9.77,0,0,0-8.7,5.53l11.43-.54.18,3.79-12.56.6c0,.41,0,.82,0,1.22a9.87,9.87,0,0,0,.1,1.22l12.56-.6.18,3.8-11.43.54a9.77,9.77,0,0,0,9.19,4.68A10.24,10.24,0,0,0,204.2,127.15Z"></path></g><path d="M352.66,132.72a37.91,37.91,0,1,1-24.6-47.58A37.86,37.86,0,0,1,352.66,132.72Z" style="fill:#92E3A9"></path><path d="M344.07,130a28.9,28.9,0,1,1-18.75-36.25A28.87,28.87,0,0,1,344.07,130Z" style="fill:#92E3A9"></path><path d="M344.07,130a2.65,2.65,0,0,1,.09-.46c.08-.33.18-.77.32-1.33.07-.3.15-.62.24-1s.12-.77.19-1.21a20.6,20.6,0,0,0,.32-3,27.23,27.23,0,0,0-.74-8.25,28.7,28.7,0,0,0-29.06-22.06,29.44,29.44,0,0,0-4.05.42c-.67.13-1.34.32-2,.47a14.38,14.38,0,0,0-2,.61,31.65,31.65,0,0,0-3.93,1.63,33.59,33.59,0,0,0-3.68,2.29,27.83,27.83,0,0,0-6.29,6.25,30.29,30.29,0,0,0-4.15,8.13,30.83,30.83,0,0,0-1.34,9,27.43,27.43,0,0,0,1.51,8.74,32.82,32.82,0,0,0,1.66,4,31.72,31.72,0,0,0,2.26,3.61,30.41,30.41,0,0,0,2.65,3.2,28.74,28.74,0,0,0,39.52,1.57,27.42,27.42,0,0,0,5.39-6.28,21.28,21.28,0,0,0,1.49-2.65c.19-.39.39-.75.54-1.09s.26-.65.37-.94c.22-.53.39-1,.51-1.27a2.53,2.53,0,0,1,.2-.43,2.62,2.62,0,0,1-.14.45l-.45,1.3-.35.95c-.14.35-.33.71-.52,1.11a20.3,20.3,0,0,1-1.45,2.69,27.49,27.49,0,0,1-5.36,6.42A29.11,29.11,0,0,1,313,150a29.22,29.22,0,0,1-14.21-5.82,29.7,29.7,0,0,1-3.12-2.74,31.65,31.65,0,0,1-2.71-3.26,33,33,0,0,1-2.31-3.68,32,32,0,0,1-1.7-4.09,28,28,0,0,1-1.55-8.92A28.79,28.79,0,0,1,293,104a28.19,28.19,0,0,1,6.44-6.37,26.81,26.81,0,0,1,7.76-4,15,15,0,0,1,2.05-.61c.69-.16,1.37-.35,2.06-.48a30.75,30.75,0,0,1,4.13-.42,29.3,29.3,0,0,1,14.95,3.49,29.12,29.12,0,0,1,14.46,19.05,27.5,27.5,0,0,1,.65,8.34,20,20,0,0,1-.38,3c-.08.44-.14.85-.22,1.21l-.27,1c-.16.56-.29,1-.38,1.32A2.19,2.19,0,0,1,344.07,130Z" style="fill:#263238"></path><g style="opacity:0.30000000000000004"><path d="M343.76,130.19c-.17,0,.1-1.29.34-3.54a31,31,0,0,0-.45-9.44,29.93,29.93,0,0,0-2-6.15,28.4,28.4,0,0,0-6.65-9.15,27.78,27.78,0,0,0-7-4.67,29.65,29.65,0,0,0-4.14-1.55,30.18,30.18,0,0,0-4.33-.87,28.49,28.49,0,0,0-8.41.28,26.53,26.53,0,0,0-3.85,1,28.61,28.61,0,0,0-6.63,3.25,29.5,29.5,0,0,0-5,4.17,30.74,30.74,0,0,0-5.36,7.78c-1,2-1.42,3.24-1.59,3.19s0-1.32.8-3.52a26.88,26.88,0,0,1,5-8.5,29.14,29.14,0,0,1,5.08-4.63,29.8,29.8,0,0,1,7-3.67A28.39,28.39,0,0,1,310.72,93a28.89,28.89,0,0,1,9.07-.39,32.15,32.15,0,0,1,4.67.93,30.13,30.13,0,0,1,4.46,1.68,28.61,28.61,0,0,1,4,2.3,26.87,26.87,0,0,1,3.48,2.81,27.43,27.43,0,0,1,2.89,3.15,28.88,28.88,0,0,1,5.88,13.42,27,27,0,0,1-.24,9.85C344.44,129.06,343.88,130.23,343.76,130.19Z"></path></g><g style="opacity:0.30000000000000004"><path d="M324.68,131.31l-3.65,3c-.65.22-1.18,0-3.72-1.88-.62-.45-1.3-1-2.06-1.47a27.62,27.62,0,0,0,1.69-5.2,7.85,7.85,0,0,0,.13-1.3l4.39,1.18,1.68-6.23-7.88-2.12a13.58,13.58,0,0,1-.53-2.4,6.64,6.64,0,0,1,2-5.08c1.25-1.07,3.05-1.3,5.33-.68a5.28,5.28,0,0,1,3.46,2.37c1.33,2.31.51,5.56.5,5.6l-.22.81,6.21,1.73.23-.83c.06-.23,1.58-5.78-1.1-10.48a11.56,11.56,0,0,0-7.4-5.43c-5.55-1.49-9.15.26-11.19,2a13.08,13.08,0,0,0-4.29,10.53l-2.37-.64L304.25,121l6,1.61a5.37,5.37,0,0,1,.37,1.93,19.67,19.67,0,0,1-1.15,3.55,8.85,8.85,0,0,0-9.46,4.15l-.43.73,5.55,3.26.44-.72c.59-1,1.76-1.82,4-.53a41,41,0,0,1,3.93,2.65,16.77,16.77,0,0,0,5.26,3,7,7,0,0,0,6.4-1.4l3.66-2.95Z"></path></g><path d="M417,201.9a37.92,37.92,0,1,1-49.35-20.83A37.87,37.87,0,0,1,417,201.9Z" style="fill:#92E3A9"></path><path d="M408.63,205.28A28.89,28.89,0,1,1,371,189.41,28.87,28.87,0,0,1,408.63,205.28Z" style="fill:#92E3A9"></path><path d="M408.63,205.28a1.93,1.93,0,0,1-.23-.41l-.61-1.23-.43-.91c-.18-.32-.41-.67-.63-1a21.19,21.19,0,0,0-1.68-2.53,28,28,0,0,0-5.85-5.86,28.69,28.69,0,0,0-36.45,1.63,31.41,31.41,0,0,0-2.84,2.92c-.44.53-.83,1.1-1.25,1.65a12.88,12.88,0,0,0-1.15,1.75,32.08,32.08,0,0,0-2,3.77,33,33,0,0,0-1.36,4.11,28,28,0,0,0-.84,8.83,28.15,28.15,0,0,0,6.77,16.7,27.72,27.72,0,0,0,6.74,5.76,33.47,33.47,0,0,0,3.84,2,31.94,31.94,0,0,0,4.05,1.33,30.36,30.36,0,0,0,4.09.77,30.88,30.88,0,0,0,4.07.11,28.75,28.75,0,0,0,27.31-24.19,27.61,27.61,0,0,0,.12-8.28,21.62,21.62,0,0,0-.55-3c-.1-.43-.18-.83-.28-1.19s-.22-.67-.32-1c-.17-.55-.31-1-.42-1.3a2.46,2.46,0,0,1-.12-.46,3.53,3.53,0,0,1,.18.43l.48,1.29c.1.29.22.61.35,1s.19.75.3,1.18a20,20,0,0,1,.61,3,27.44,27.44,0,0,1,0,8.36,28.62,28.62,0,0,1-3.7,10.43,28.87,28.87,0,0,1-32.25,13.39,31.46,31.46,0,0,1-4.12-1.35,32.65,32.65,0,0,1-3.93-2.05,27.84,27.84,0,0,1-6.89-5.87A28.69,28.69,0,0,1,352.73,218a27.92,27.92,0,0,1,.87-9,31.31,31.31,0,0,1,1.39-4.2,32.5,32.5,0,0,1,2-3.84,15.69,15.69,0,0,1,1.18-1.78c.43-.57.84-1.15,1.28-1.68a30.28,30.28,0,0,1,2.91-3,29.23,29.23,0,0,1,13.72-6.88A29.05,29.05,0,0,1,399.4,193a27.28,27.28,0,0,1,5.84,6,20.34,20.34,0,0,1,1.64,2.58c.22.38.44.73.61,1.06l.41.93c.24.53.42.95.56,1.26A3,3,0,0,1,408.63,205.28Z" style="fill:#263238"></path><g style="opacity:0.30000000000000004"><path d="M408.53,205.65c-.16.07-.75-1.06-2-2.94a31.13,31.13,0,0,0-6.39-7,29.85,29.85,0,0,0-5.48-3.44,29,29,0,0,0-7-2.31,28.2,28.2,0,0,0-4-.47,27.47,27.47,0,0,0-4.14.12,27.15,27.15,0,0,0-4.22.77,27.74,27.74,0,0,0-8.05,3.56,28,28,0,0,0-6.29,5.6,26,26,0,0,0-2.31,3.24,29,29,0,0,0-3,6.74,30.07,30.07,0,0,0-1.14,6.38,30.6,30.6,0,0,0,.86,9.41c.54,2.2,1,3.4.82,3.46s-.83-1-1.64-3.21a26.74,26.74,0,0,1-1.59-9.73,29.58,29.58,0,0,1,.94-6.81,29.11,29.11,0,0,1,3-7.29,26.11,26.11,0,0,1,2.43-3.53,26.67,26.67,0,0,1,3.05-3.26,28.57,28.57,0,0,1,3.66-2.84,30.71,30.71,0,0,1,4.19-2.28,31.19,31.19,0,0,1,4.5-1.57,29,29,0,0,1,4.56-.79,26.68,26.68,0,0,1,4.46-.07A27.88,27.88,0,0,1,388,188a28.65,28.65,0,0,1,13.09,6.55,27.06,27.06,0,0,1,6.13,7.72C408.33,204.35,408.65,205.6,408.53,205.65Z"></path></g><g style="opacity:0.30000000000000004"><polygon points="396.19 200.4 389.53 200.4 382.94 212.96 381.26 212.96 374.26 200.4 367.49 200.39 374.49 212.96 368.99 212.96 368.99 218.87 377.79 218.87 378.58 220.3 368.91 220.3 368.91 226.22 379.19 226.22 379.19 238.59 385.11 238.59 385.11 226.22 395.23 226.22 395.23 220.3 385.67 220.3 386.43 218.87 395.31 218.87 395.31 212.96 389.55 212.96 396.19 200.4"></polygon></g></g></svg>