<svg xmlns="http://www.w3.org/2000/svg" viewBox="0 0 500 500"><g id="freepik--background-complete--inject-130"><polygon points="149.47 96.74 191.34 96.41 170.52 73.47 149.47 96.74" style="fill:#f5f5f5"></polygon><polygon points="164.1 82.81 163.84 147.6 176.72 147.6 176.72 84.76 164.1 82.81" style="fill:#f5f5f5"></polygon><polygon points="310.41 301.6 341.88 301.36 326.23 284.11 310.41 301.6" style="fill:#e0e0e0"></polygon><polygon points="321.41 291.13 321.21 339.84 330.89 339.84 330.89 292.59 321.41 291.13" style="fill:#e0e0e0"></polygon><polygon points="91.22 293.32 39.23 230.25 40 229.62 91.22 291.74 243.97 103.5 340.25 195.71 446.39 66.53 447.17 67.17 340.34 197.18 244.06 104.98 91.22 293.32" style="fill:#ebebeb"></polygon><circle cx="39.61" cy="229.94" r="6.44" style="fill:#ebebeb"></circle><path d="M96.86,291.7a6.44,6.44,0,1,1-6.44-6.44A6.44,6.44,0,0,1,96.86,291.7Z" style="fill:#ebebeb"></path><path d="M345,195.62a6.44,6.44,0,1,1-6.44-6.44A6.45,6.45,0,0,1,345,195.62Z" style="fill:#ebebeb"></path><path d="M455.76,65.22a6.44,6.44,0,1,1-6.44-6.44A6.44,6.44,0,0,1,455.76,65.22Z" style="fill:#ebebeb"></path><path d="M205.7,328.1a16.92,16.92,0,0,0-18.22-.47,20,20,0,0,0-32.07-10,20.31,20.31,0,0,0-34.32,12.76c-8,.43-16.28,5.7-18,14.7H212.37A16.93,16.93,0,0,0,205.7,328.1Z" style="fill:#ebebeb"></path><path d="M388.54,405.52a11.49,11.49,0,0,0-12.38-.32,13.59,13.59,0,0,0-21.77-6.81,13.79,13.79,0,0,0-23.31,8.66c-5.44.29-11.06,3.88-12.2,10h74.19A11.49,11.49,0,0,0,388.54,405.52Z" style="fill:#ebebeb"></path><path d="M428.85,230.08a11.47,11.47,0,0,0-12.37-.32A13.6,13.6,0,0,0,394.7,223a13.79,13.79,0,0,0-23.31,8.66c-5.44.29-11.06,3.87-12.19,10h74.19A11.48,11.48,0,0,0,428.85,230.08Z" style="fill:#ebebeb"></path><path d="M130.77,181.19a11.51,11.51,0,0,0-12.37-.32,13.6,13.6,0,0,0-21.78-6.81,13.79,13.79,0,0,0-23.31,8.67c-5.44.29-11.06,3.87-12.19,10h74.19A11.5,11.5,0,0,0,130.77,181.19Z" style="fill:#ebebeb"></path><path d="M351.33,96.47A11.47,11.47,0,0,0,339,96.15a13.6,13.6,0,0,0-21.78-6.81A13.79,13.79,0,0,0,293.87,98c-5.44.29-11.06,3.87-12.2,10h74.19A11.49,11.49,0,0,0,351.33,96.47Z" style="fill:#ebebeb"></path></g><g id="freepik--Clouds--inject-130"><path d="M449.14,317.78a12.21,12.21,0,0,0-13.12-.34,14.42,14.42,0,0,0-23.08-7.22,14.61,14.61,0,0,0-24.7,9.19c-5.77.3-11.72,4.1-12.92,10.58h78.62A12.18,12.18,0,0,0,449.14,317.78Z" style="fill:#fff"></path><path d="M449.14,317.78s.26.17.75.53a12,12,0,0,1,1.87,1.93,12.55,12.55,0,0,1,2,3.87,12,12,0,0,1,.33,5.91l0,.1h-.11l-78.62.13H375l.07-.31.09-.38a12.59,12.59,0,0,1,4.88-7.47,15.23,15.23,0,0,1,8.2-2.94l-.25.23a14.85,14.85,0,0,1,25.11-9.31h-.29a14.82,14.82,0,0,1,7.78-3.23,14.32,14.32,0,0,1,7.54,1.19,14.87,14.87,0,0,1,8,9.39l-.2-.08a12,12,0,0,1,5.66-1.72,12.57,12.57,0,0,1,4.32.55,12,12,0,0,1,2.45,1.1c.51.33.76.52.76.52s-.08,0-.21-.11l-.58-.35a13.14,13.14,0,0,0-2.46-1,12.49,12.49,0,0,0-4.27-.48,11.77,11.77,0,0,0-5.52,1.74l-.16.09-.05-.17a14.6,14.6,0,0,0-7.92-9.13,13.91,13.91,0,0,0-7.34-1.12,14.47,14.47,0,0,0-7.55,3.16l-.15.13-.14-.14a14.4,14.4,0,0,0-24.3,9.05l0,.22h-.22a14.65,14.65,0,0,0-7.91,2.85,12,12,0,0,0-4.68,7.16c0,.12-.06.25-.09.36l-.25-.3,78.62.12-.13.11a11.77,11.77,0,0,0-.26-5.79,12.59,12.59,0,0,0-1.91-3.84,12.27,12.27,0,0,0-1.8-2l-.53-.43C449.19,317.84,449.13,317.79,449.14,317.78Z" style="fill:#263238"></path><path d="M453.38,147.48a14,14,0,0,0-15.07-.39,16.57,16.57,0,0,0-26.54-8.3,16.8,16.8,0,0,0-28.4,10.55c-6.63.36-13.48,4.72-14.86,12.17h90.4A14,14,0,0,0,453.38,147.48Z" style="fill:#fff"></path><path d="M453.38,147.48s.3.19.86.61a14,14,0,0,1,2.15,2.22,14.61,14.61,0,0,1,2.29,4.45,13.84,13.84,0,0,1,.36,6.78l0,.11h-.11l-90.4.12h-.33l.08-.31.1-.43a14.45,14.45,0,0,1,5.59-8.57,17.45,17.45,0,0,1,9.4-3.37l-.24.23a17,17,0,0,1,28.81-10.69h-.29a17,17,0,0,1,8.92-3.7,16.4,16.4,0,0,1,8.66,1.36,17.08,17.08,0,0,1,6.13,4.8,16.86,16.86,0,0,1,3.1,6l-.21-.08a13.84,13.84,0,0,1,6.5-2,14.27,14.27,0,0,1,5,.62,14,14,0,0,1,2.82,1.26c.59.38.87.6.87.6l-.23-.13-.67-.41a14.84,14.84,0,0,0-2.83-1.18,14.45,14.45,0,0,0-4.91-.56,13.73,13.73,0,0,0-6.36,2l-.15.1-.05-.18a16.39,16.39,0,0,0-3.09-5.84,16.78,16.78,0,0,0-6-4.67,16,16,0,0,0-8.46-1.29,16.47,16.47,0,0,0-8.69,3.64l-.15.12-.14-.14a16.59,16.59,0,0,0-28,10.43l0,.22h-.22a17,17,0,0,0-9.12,3.28,13.89,13.89,0,0,0-5.39,8.26l-.1.42-.26-.31,90.4.13-.13.1a13.79,13.79,0,0,0-.3-6.66,14.66,14.66,0,0,0-2.2-4.42,14.2,14.2,0,0,0-2.09-2.25l-.61-.5Z" style="fill:#263238"></path><path d="M240.13,248.69a16.76,16.76,0,0,0-18.08-.47,19.88,19.88,0,0,0-31.84-10,20.17,20.17,0,0,0-34.07,12.66c-7.95.43-16.16,5.67-17.82,14.6H246.76A16.77,16.77,0,0,0,240.13,248.69Z" style="fill:#fff"></path><path d="M240.13,248.69s.36.23,1,.74a16.55,16.55,0,0,1,2.57,2.66,17.22,17.22,0,0,1,2.73,5.34,16.5,16.5,0,0,1,.44,8.12l0,.1h-.11l-108.44.13H138l.08-.31.12-.52a17.25,17.25,0,0,1,6.69-10.24,20.79,20.79,0,0,1,11.25-4l-.24.23a20.25,20.25,0,0,1,25.35-17.8,20.57,20.57,0,0,1,9.13,5h-.3a20.33,20.33,0,0,1,10.69-4.43,19.6,19.6,0,0,1,10.36,1.62,20.5,20.5,0,0,1,7.34,5.75,20.06,20.06,0,0,1,3.72,7.15l-.2-.08a16.56,16.56,0,0,1,7.78-2.37,17.34,17.34,0,0,1,5.94.74,16.4,16.4,0,0,1,3.39,1.51c.7.45,1,.71,1,.71l-.27-.16-.81-.49a16.87,16.87,0,0,0-9.28-2.1,16.42,16.42,0,0,0-7.65,2.39l-.15.1-.05-.18a19.84,19.84,0,0,0-3.71-7,20.2,20.2,0,0,0-7.24-5.62,19.31,19.31,0,0,0-10.17-1.55,20,20,0,0,0-10.45,4.37l-.15.12-.14-.13a20.46,20.46,0,0,0-19.71-4.67A20.35,20.35,0,0,0,156.4,251l0,.22h-.22a20.33,20.33,0,0,0-11,3.94,16.77,16.77,0,0,0-6.49,9.94c0,.17-.08.35-.12.51l-.26-.31,108.44.12-.13.11a16.35,16.35,0,0,0-.37-8,17.49,17.49,0,0,0-2.64-5.31,17.89,17.89,0,0,0-2.51-2.7c-.31-.25-.56-.44-.73-.59Z" style="fill:#263238"></path><path d="M252.5,462a20.15,20.15,0,0,0-21.69-.56,23.84,23.84,0,0,0-38.17-11.94,24.18,24.18,0,0,0-40.86,15.19c-9.54.5-19.39,6.79-21.37,17.5h130A20.13,20.13,0,0,0,252.5,462Z" style="fill:#ebebeb"></path><path d="M345.15,433.68a16.63,16.63,0,0,0-17.91-.47,19.7,19.7,0,0,0-31.52-9.86A20,20,0,0,0,262,435.89c-7.87.42-16,5.61-17.64,14.45H351.71A16.61,16.61,0,0,0,345.15,433.68Z" style="fill:#fff"></path><path d="M345.15,433.68s.35.23,1,.73a16.3,16.3,0,0,1,2.55,2.64,17.39,17.39,0,0,1,2.71,5.28,16.34,16.34,0,0,1,.42,8l0,.11h-.11l-107.36.12H244l.07-.3.12-.52a17.12,17.12,0,0,1,6.63-10.14,20.63,20.63,0,0,1,11.14-4l-.24.23a20,20,0,0,1,25.1-17.62,20.23,20.23,0,0,1,9,4.95h-.29a20.12,20.12,0,0,1,10.58-4.39,19.44,19.44,0,0,1,10.26,1.6,20.23,20.23,0,0,1,7.27,5.7,19.58,19.58,0,0,1,3.68,7.08l-.2-.08a16.27,16.27,0,0,1,7.7-2.35,17.33,17.33,0,0,1,5.89.73,17.15,17.15,0,0,1,3.35,1.49c.7.45,1,.71,1,.71l-.28-.16-.8-.48a16.87,16.87,0,0,0-3.35-1.42,17.26,17.26,0,0,0-5.84-.66,16.12,16.12,0,0,0-7.57,2.37l-.15.09-.05-.17a19.52,19.52,0,0,0-3.67-6.95,20,20,0,0,0-7.17-5.57,19.11,19.11,0,0,0-10.06-1.53,19.72,19.72,0,0,0-10.35,4.32l-.15.13-.14-.14a20.31,20.31,0,0,0-19.51-4.62,20.14,20.14,0,0,0-13.81,17l0,.22H262a20.2,20.2,0,0,0-10.85,3.9,16.62,16.62,0,0,0-6.43,9.84l-.12.5-.25-.31,107.36.13-.13.1a16.15,16.15,0,0,0-.37-7.92,17.17,17.17,0,0,0-2.62-5.26,17.34,17.34,0,0,0-2.47-2.66l-.73-.59A2.68,2.68,0,0,1,345.15,433.68Z" style="fill:#263238"></path><path d="M152.25,384.24a11.78,11.78,0,0,0-12.68-.33,13.94,13.94,0,0,0-22.32-7,14.14,14.14,0,0,0-23.89,8.88c-5.57.3-11.33,4-12.49,10.23h76A11.75,11.75,0,0,0,152.25,384.24Z" style="fill:#fff"></path><path d="M152.25,384.24s.25.16.72.51a11.26,11.26,0,0,1,1.81,1.87,11.83,11.83,0,0,1,1.93,3.74,11.61,11.61,0,0,1,.32,5.71l0,.11h-.11l-76,.12h-.33l.07-.3.09-.37a12.19,12.19,0,0,1,4.72-7.23,14.8,14.8,0,0,1,7.93-2.85l-.24.24a14.38,14.38,0,0,1,24.29-9h-.29a14.35,14.35,0,0,1,7.52-3.11,13.85,13.85,0,0,1,7.3,1.14,14.45,14.45,0,0,1,7.77,9.09l-.21-.08a11.59,11.59,0,0,1,5.48-1.66,12.08,12.08,0,0,1,4.18.53,11.49,11.49,0,0,1,2.37,1.06c.49.33.73.51.73.51s-.07,0-.2-.1l-.57-.34a12.38,12.38,0,0,0-2.37-1,12,12,0,0,0-4.13-.46,11.35,11.35,0,0,0-5.34,1.68l-.16.09,0-.17a14.19,14.19,0,0,0-7.66-8.83,13.52,13.52,0,0,0-7.1-1.07,13.92,13.92,0,0,0-7.29,3.05l-.15.12-.14-.13a13.91,13.91,0,0,0-23.48,8.74l0,.22-.22,0a14.11,14.11,0,0,0-7.65,2.75,11.66,11.66,0,0,0-4.52,6.92c0,.12-.06.24-.08.35l-.26-.31,76,.13-.13.1a11.45,11.45,0,0,0-.25-5.59,12,12,0,0,0-1.84-3.72,12.24,12.24,0,0,0-1.74-1.89l-.52-.42C152.3,384.3,152.24,384.25,152.25,384.24Z" style="fill:#263238"></path><path d="M124.89,77.12A11,11,0,0,0,113,76.81a13.05,13.05,0,0,0-20.89-6.53,13.23,13.23,0,0,0-22.36,8.31c-5.22.28-10.6,3.72-11.69,9.58h71.16A11,11,0,0,0,124.89,77.12Z" style="fill:#fff"></path><path d="M124.89,77.12s.25.15.69.48a10.46,10.46,0,0,1,1.69,1.74,11.34,11.34,0,0,1,1.81,3.51,10.9,10.9,0,0,1,.3,5.35l0,.1h-.11l-71.16.13h-.33l.07-.31.08-.34A11.46,11.46,0,0,1,62.34,81a13.75,13.75,0,0,1,7.43-2.66l-.24.23a13.47,13.47,0,0,1,22.76-8.45H92a13.47,13.47,0,0,1,7-2.92,13,13,0,0,1,6.83,1.08,13.53,13.53,0,0,1,7.28,8.51l-.2-.08a10.81,10.81,0,0,1,5.12-1.55,11.39,11.39,0,0,1,3.92.5,10.08,10.08,0,0,1,2.21,1c.46.3.68.47.68.47l-.18-.1-.53-.31a12.05,12.05,0,0,0-2.23-.93,11.28,11.28,0,0,0-3.86-.42,10.67,10.67,0,0,0-5,1.57L113,77l0-.18a13.27,13.27,0,0,0-7.17-8.25,12.63,12.63,0,0,0-6.64-1,13,13,0,0,0-6.81,2.86l-.15.12L92,70.44A13,13,0,0,0,70,78.61l0,.22-.21,0a13.26,13.26,0,0,0-7.15,2.57,10.9,10.9,0,0,0-4.23,6.47l-.08.33-.25-.31,71.16.12-.14.11a10.62,10.62,0,0,0-.23-5.23,11.39,11.39,0,0,0-1.72-3.48,11.11,11.11,0,0,0-1.63-1.77l-.48-.4A.61.61,0,0,1,124.89,77.12Z" style="fill:#263238"></path></g></svg>
