<svg xmlns="http://www.w3.org/2000/svg" viewBox="0 0 500 500"><g id="freepik--background-complete--inject-619"><polygon points="65.26 348.87 93.19 344.15 117.36 319.54 160.59 364.49 190.49 345.91 211.58 363.06 252.9 317.66 285.41 314.65 320.27 263.07 358.15 301.02 380.52 266.4 394.48 264.4 413.04 230 449.3 290.01 500 500 0 500 65.26 348.87" style="fill:#dbdbdb"></polygon><polygon points="70.15 414.75 69.53 413.96 111.56 381.18 172.85 375.93 172.93 375.95 227.13 390.31 274.51 349.18 274.66 349.16 341.04 339.62 390.54 306.32 413.48 254 414.39 254.4 391.34 306.99 391.22 307.07 341.41 340.58 341.3 340.6 274.95 350.13 227.39 391.42 227.13 391.35 172.76 376.94 111.94 382.15 70.15 414.75" style="fill:#fff"></polygon><circle cx="66.32" cy="414.1" r="5.78" style="fill:#dbdbdb"></circle><path d="M66.32,420.38a6.29,6.29,0,1,1,6.28-6.28A6.29,6.29,0,0,1,66.32,420.38Zm0-11.57a5.29,5.29,0,1,0,5.28,5.29A5.29,5.29,0,0,0,66.32,408.81Z" style="fill:#fff"></path><circle cx="111.48" cy="381.66" r="5.78" style="fill:#dbdbdb"></circle><path d="M111.48,388a6.29,6.29,0,1,1,6.29-6.28A6.29,6.29,0,0,1,111.48,388Zm0-11.57a5.29,5.29,0,1,0,5.29,5.29A5.29,5.29,0,0,0,111.48,376.38Z" style="fill:#fff"></path><path d="M178.59,375.56a5.79,5.79,0,1,1-5.78-5.78A5.78,5.78,0,0,1,178.59,375.56Z" style="fill:#dbdbdb"></path><path d="M172.81,381.84a6.28,6.28,0,1,1,6.28-6.28A6.29,6.29,0,0,1,172.81,381.84Zm0-11.56a5.28,5.28,0,1,0,5.28,5.28A5.29,5.29,0,0,0,172.81,370.28Z" style="fill:#fff"></path><circle cx="226.99" cy="391" r="5.78" style="fill:#dbdbdb"></circle><path d="M227,397.28a6.29,6.29,0,1,1,6.28-6.28A6.29,6.29,0,0,1,227,397.28Zm0-11.57a5.29,5.29,0,1,0,5.28,5.29A5.29,5.29,0,0,0,227,385.71Z" style="fill:#fff"></path><circle cx="274.73" cy="350.31" r="5.78" style="fill:#dbdbdb"></circle><path d="M274.73,356.59a6.28,6.28,0,1,1,6.28-6.28A6.28,6.28,0,0,1,274.73,356.59Zm0-11.56a5.28,5.28,0,1,0,5.28,5.28A5.29,5.29,0,0,0,274.73,345Z" style="fill:#fff"></path><circle cx="341.23" cy="339.61" r="5.78" style="fill:#dbdbdb"></circle><path d="M341.23,345.89a6.28,6.28,0,1,1,6.28-6.28A6.29,6.29,0,0,1,341.23,345.89Zm0-11.56a5.28,5.28,0,1,0,5.28,5.28A5.29,5.29,0,0,0,341.23,334.33Z" style="fill:#fff"></path><circle cx="390.99" cy="306.81" r="5.78" style="fill:#dbdbdb"></circle><path d="M391,313.09a6.29,6.29,0,1,1,6.28-6.28A6.29,6.29,0,0,1,391,313.09Zm0-11.57a5.29,5.29,0,1,0,5.28,5.29A5.29,5.29,0,0,0,391,301.52Z" style="fill:#fff"></path><circle cx="414.2" cy="254.22" r="5.78" style="fill:#dbdbdb"></circle><path d="M414.2,260.5a6.29,6.29,0,1,1,6.29-6.28A6.29,6.29,0,0,1,414.2,260.5Zm0-11.57a5.29,5.29,0,1,0,5.29,5.29A5.29,5.29,0,0,0,414.2,248.93Z" style="fill:#fff"></path><circle cx="110.24" cy="113.26" r="33.06" transform="translate(-47.8 111.12) rotate(-45)" style="fill:#dbdbdb"></circle><path d="M366.58,146.91l87.61-.13s-4.37-5.67-9.17-6.37c0,0-9.38-27.79-25-28-14.54-.16-20.34,17.13-20.34,17.13s-6.75-7.74-13.18-4.18-10.05,13.71-10.05,13.71S369.2,143,366.58,146.91Z" style="fill:#ebebeb"></path><path d="M212.82,247.06,102,247.23s0-7.08,15.25-8.48c0,0,13.89-31,35.17-26.84,13.25,2.57,20.05,20.75,20.05,20.75s10-14.33,18-11.57,12.79,18,12.79,18S211.56,243.06,212.82,247.06Z" style="fill:#ebebeb"></path><path d="M385.2,215.5l-75.33.12S317,209,320.13,209s12.34-22.23,24.13-21.3,18.06,17.46,18.06,17.46S376.64,200.63,385.2,215.5Z" style="fill:#ebebeb"></path><path d="M110.24,146.22l-64.43.1s3.2-4.17,6.73-4.7c0,0,6.84-20.46,18.34-20.62,10.68-.15,15,12.55,15,12.55s4.94-5.71,9.68-3.11S103,140.5,103,140.5,108.3,143.36,110.24,146.22Z" style="fill:#ebebeb"></path></g></svg>