<svg xmlns="http://www.w3.org/2000/svg" viewBox="0 0 500 500"><g id="freepik--background-complete--inject-88"><rect x="298.2" y="316.37" width="23.01" height="89.76" style="fill:#ebebeb"></rect><rect x="298.2" y="410.56" width="23.01" height="14.78" style="fill:#ebebeb"></rect><rect x="298.2" y="429.78" width="23.01" height="9.11" style="fill:#ebebeb"></rect><rect x="298.2" y="443.33" width="23.01" height="4.52" style="fill:#ebebeb"></rect><polygon points="328.87 316.36 290.53 316.36 309.7 289.83 328.87 316.36" style="fill:#ebebeb"></polygon><rect x="343.99" y="287.84" width="23.01" height="118.29" style="fill:#ebebeb"></rect><rect x="343.99" y="410.56" width="23.01" height="14.78" style="fill:#ebebeb"></rect><rect x="343.99" y="429.78" width="23.01" height="9.11" style="fill:#ebebeb"></rect><rect x="343.99" y="443.33" width="23.01" height="4.52" style="fill:#ebebeb"></rect><polygon points="374.67 287.84 336.32 287.84 355.5 261.31 374.67 287.84" style="fill:#ebebeb"></polygon><rect x="389.79" y="259.31" width="23.01" height="146.81" style="fill:#ebebeb"></rect><rect x="389.79" y="410.56" width="23.01" height="14.78" style="fill:#ebebeb"></rect><rect x="389.79" y="429.78" width="23.01" height="9.11" style="fill:#ebebeb"></rect><rect x="389.79" y="443.33" width="23.01" height="4.52" style="fill:#ebebeb"></rect><polygon points="420.46 259.31 382.12 259.31 401.29 232.78 420.46 259.31" style="fill:#ebebeb"></polygon><rect x="435.57" y="230.79" width="23.01" height="175.34" style="fill:#ebebeb"></rect><rect x="435.57" y="410.56" width="23.01" height="14.78" style="fill:#ebebeb"></rect><rect x="435.57" y="429.78" width="23.01" height="9.11" style="fill:#ebebeb"></rect><rect x="435.57" y="443.33" width="23.01" height="4.52" style="fill:#ebebeb"></rect><polygon points="466.25 230.78 427.91 230.78 447.08 204.25 466.25 230.78" style="fill:#ebebeb"></polygon><path d="M273.81,41.43c-41.59,0-41.66,59.15,0,59.15S315.47,41.43,273.81,41.43Z" style="fill:#ebebeb"></path><path d="M299.11,76.55c-2.22,10.17-10.66,19-25.3,19-34.57,0-34.52-49.09,0-49.09h.68c-32.49.6-32.33,47.09.63,47.09C288.57,93.56,296.58,85.78,299.11,76.55Z" style="fill:#dbdbdb"></path><path d="M274.06,52.93a1.05,1.05,0,0,1,1.08,1v1.65a15.38,15.38,0,0,1,8,2.88c.4.29.63.53.63.95a1.11,1.11,0,0,1-1.17,1,1.17,1.17,0,0,1-.81-.28,13.45,13.45,0,0,0-6.75-2.68V69c6.84,1.32,9.72,3.66,9.72,7.7,0,4.36-4,7.45-9.63,7.62v3.21a1.08,1.08,0,0,1-2.16,0V84.26a17.63,17.63,0,0,1-10.12-4,1,1,0,0,1-.5-.86,1.13,1.13,0,0,1,1.13-1,1.23,1.23,0,0,1,.81.28,15.09,15.09,0,0,0,8.77,3.75V70.68c-6.75-1.36-9.54-3.63-9.54-7.74s4-7.33,9.45-7.46V53.92A1,1,0,0,1,274.06,52.93Zm-1,15.65V57.34c-4.36.08-7.24,2.47-7.24,5.43C265.83,65.57,267.27,67.3,273.07,68.58Zm2,2.51V82.45c4.5-.08,7.43-2.47,7.43-5.6C282.48,74,280.9,72.28,275.05,71.09Z" style="fill:#dbdbdb"></path><path d="M306.09,216.93c-37.46,6.72-27.56,62.2,10,55.47S343.6,210.2,306.09,216.93Z" style="fill:#dbdbdb"></path><path d="M309.6,216.3c-35.69,6.4-25.8,61.88,10,55.46S345.35,209.88,309.6,216.3Z" style="fill:#ebebeb"></path><path d="M337.22,245.34c-.2,9.88-6,19.46-18.52,21.71-29.66,5.32-37.88-40.72-8.26-46,.2,0,.39-.07.59-.09-27.78,5.56-19.82,49.13,8.47,44.06C331,262.91,336.6,254.38,337.22,245.34Z" style="fill:#dbdbdb"></path><path d="M316.73,227a1,1,0,0,1,.82,1l-.18,1.56a12.79,12.79,0,0,1,6.61,3.55,1.07,1.07,0,0,1,.44,1,1,1,0,0,1-1.13.85,1,1,0,0,1-.66-.35,11.09,11.09,0,0,0-5.55-3.22l-1.28,10.9c5.77,1.95,8,4.46,7.55,8.28-.48,4.13-4.29,6.65-9.18,6.23l-.36,3a.94.94,0,0,1-1.87-.22l.36-3.08a14.75,14.75,0,0,1-8.32-4.81,1,1,0,0,1-.33-.87,1,1,0,0,1,1.09-.86,1,1,0,0,1,.67.36,12.66,12.66,0,0,0,7.18,4.44l1.3-11.11c-5.69-2-7.85-4.4-7.4-8.3s4.25-6.53,9-6.08l.17-1.49A1,1,0,0,1,316.73,227Zm-2.6,14.7,1.25-10.63c-3.79-.37-6.55,1.6-6.88,4.4C308.19,238.14,309.24,239.93,314.13,241.72Zm1.43,2.58-1.26,10.76c3.9.38,6.7-1.59,7.05-4.55C321.67,247.82,320.49,246,315.56,244.3Z" style="fill:#dbdbdb"></path><path d="M187.06,128.66c30.28,5.44,22.28,50.29-8.05,44.85S156.73,123.22,187.06,128.66Z" style="fill:#dbdbdb"></path><path d="M184.22,128.15c28.85,5.18,20.85,50-8.05,44.85S155.31,123,184.22,128.15Z" style="fill:#ebebeb"></path><path d="M161.89,151.63c.16,8,4.81,15.74,15,17.56,24,4.3,30.62-32.93,6.68-37.22l-.48-.08c22.46,4.5,16,39.73-6.84,35.62C166.89,165.84,162.39,158.94,161.89,151.63Z" style="fill:#dbdbdb"></path><path d="M181.89,135.24a.77.77,0,0,1,.61.88l-.24,1.25a10.4,10.4,0,0,1,5.15,3.22.87.87,0,0,1,.3.8.81.81,0,0,1-1,.62.77.77,0,0,1-.52-.32,9.07,9.07,0,0,0-4.3-2.9l-1.62,8.73c4.55,1.88,6.22,4,5.65,7.09-.62,3.3-3.83,5.13-7.75,4.53l-.45,2.43a.79.79,0,0,1-.89.61.78.78,0,0,1-.61-.89l.46-2.46a12,12,0,0,1-6.45-4.34.77.77,0,0,1-.22-.71.83.83,0,0,1,.92-.64.78.78,0,0,1,.52.32,10.26,10.26,0,0,0,5.55,4l1.66-8.88c-4.49-1.9-6.1-4-5.52-7.1s3.78-5,7.6-4.42l.22-1.18A.77.77,0,0,1,181.89,135.24ZM179,147l1.59-8.52c-3-.5-5.37.94-5.79,3.19S175.15,145.24,179,147Zm1,2.15-1.6,8.61c3.13.52,5.49-.91,5.93-3.28C184.75,152.29,183.9,150.77,180,149.11Z" style="fill:#dbdbdb"></path><rect x="251.74" y="433.29" width="65.86" height="14.55" style="fill:#ebebeb"></rect><g style="opacity:0.1"><path d="M254.45,434.63a34.12,34.12,0,0,1,0,11.64,34.12,34.12,0,0,1,0-11.64Z"></path><path d="M259.36,434.63a34.12,34.12,0,0,1,0,11.64,29.34,29.34,0,0,1-.5-5.82A30.11,30.11,0,0,1,259.36,434.63Z"></path><path d="M261.76,434.63a34.81,34.81,0,0,1,0,11.64,34.12,34.12,0,0,1,0-11.64Z"></path><path d="M274.91,434.63a30.92,30.92,0,0,1,.5,5.82,30.11,30.11,0,0,1-.5,5.82,29.34,29.34,0,0,1-.5-5.82A30.11,30.11,0,0,1,274.91,434.63Z"></path><path d="M278.47,434.63a34.12,34.12,0,0,1,0,11.64,29.34,29.34,0,0,1-.5-5.82A30.11,30.11,0,0,1,278.47,434.63Z"></path><path d="M293.18,434.63a34.12,34.12,0,0,1,0,11.64,34.12,34.12,0,0,1,0-11.64Z"></path><path d="M296.58,434.63a34.12,34.12,0,0,1,0,11.64,34.12,34.12,0,0,1,0-11.64Z"></path><path d="M302.83,434.63a34.12,34.12,0,0,1,0,11.64,34.12,34.12,0,0,1,0-11.64Z"></path><path d="M290.34,434.63a30.92,30.92,0,0,1,.5,5.82,29.34,29.34,0,0,1-.5,5.82,30.11,30.11,0,0,1-.5-5.82A30.92,30.92,0,0,1,290.34,434.63Z"></path><path d="M266.1,434.63a34.12,34.12,0,0,1,0,11.64,34.12,34.12,0,0,1,0-11.64Z"></path><path d="M283.15,434.63a30.92,30.92,0,0,1,.5,5.82,29.34,29.34,0,0,1-.5,5.82,30.11,30.11,0,0,1-.5-5.82A30.92,30.92,0,0,1,283.15,434.63Z"></path><path d="M285.6,434.63a34.12,34.12,0,0,1,0,11.64,34.12,34.12,0,0,1,0-11.64Z"></path><path d="M311,434.63a34.12,34.12,0,0,1,0,11.64,34.12,34.12,0,0,1,0-11.64Z"></path><path d="M314.64,434.63a34.12,34.12,0,0,1,0,11.64,34.12,34.12,0,0,1,0-11.64Z"></path><path d="M305.72,434.63a34.12,34.12,0,0,1,0,11.64,34.12,34.12,0,0,1,0-11.64Z"></path><path d="M272.07,434.63a34.12,34.12,0,0,1,0,11.64,34.12,34.12,0,0,1,0-11.64Z"></path></g><polygon points="317.6 433.29 317.6 436.39 251.74 438.46 251.74 433.29 317.6 433.29" style="opacity:0.1"></polygon><rect x="247.23" y="418.74" width="65.86" height="14.55" style="fill:#ebebeb"></rect><g style="opacity:0.1"><path d="M250,420.07a31,31,0,0,1,.5,5.83,30.11,30.11,0,0,1-.5,5.82,29.34,29.34,0,0,1-.5-5.82A30.21,30.21,0,0,1,250,420.07Z"></path><path d="M254.85,420.07a34.18,34.18,0,0,1,0,11.65,34.18,34.18,0,0,1,0-11.65Z"></path><path d="M257.25,420.07a31,31,0,0,1,.5,5.83,29.34,29.34,0,0,1-.5,5.82,30.11,30.11,0,0,1-.5-5.82A31,31,0,0,1,257.25,420.07Z"></path><path d="M270.4,420.07a34.18,34.18,0,0,1,0,11.65,34.18,34.18,0,0,1,0-11.65Z"></path><path d="M274,420.07a34.18,34.18,0,0,1,0,11.65,34.18,34.18,0,0,1,0-11.65Z"></path><path d="M288.68,420.07a31,31,0,0,1,.5,5.83,30.11,30.11,0,0,1-.5,5.82,29.34,29.34,0,0,1-.5-5.82A30.21,30.21,0,0,1,288.68,420.07Z"></path><path d="M292.08,420.07a31,31,0,0,1,.5,5.83,30.11,30.11,0,0,1-.5,5.82,29.34,29.34,0,0,1-.5-5.82A30.21,30.21,0,0,1,292.08,420.07Z"></path><path d="M298.32,420.07a30.21,30.21,0,0,1,.5,5.83,29.34,29.34,0,0,1-.5,5.82,30.11,30.11,0,0,1-.5-5.82A31,31,0,0,1,298.32,420.07Z"></path><path d="M285.84,420.07a34.18,34.18,0,0,1,0,11.65,34.18,34.18,0,0,1,0-11.65Z"></path><path d="M261.6,420.07a34.18,34.18,0,0,1,0,11.65,29.34,29.34,0,0,1-.5-5.82A30.21,30.21,0,0,1,261.6,420.07Z"></path><path d="M278.65,420.07a34.18,34.18,0,0,1,0,11.65,34.18,34.18,0,0,1,0-11.65Z"></path><path d="M281.1,420.07a34.18,34.18,0,0,1,0,11.65,29.34,29.34,0,0,1-.5-5.82A30.21,30.21,0,0,1,281.1,420.07Z"></path><path d="M306.46,420.07a31,31,0,0,1,.5,5.83,30.11,30.11,0,0,1-.5,5.82,29.34,29.34,0,0,1-.5-5.82A30.21,30.21,0,0,1,306.46,420.07Z"></path><path d="M310.14,420.07a34.18,34.18,0,0,1,0,11.65,29.34,29.34,0,0,1-.5-5.82A30.21,30.21,0,0,1,310.14,420.07Z"></path><path d="M301.22,420.07a31,31,0,0,1,.5,5.83,30.11,30.11,0,0,1-.5,5.82,29.34,29.34,0,0,1-.5-5.82A31,31,0,0,1,301.22,420.07Z"></path><path d="M267.56,420.07a30.21,30.21,0,0,1,.5,5.83,29.34,29.34,0,0,1-.5,5.82,34.18,34.18,0,0,1,0-11.65Z"></path></g><polygon points="313.1 418.74 313.1 421.83 247.23 423.91 247.23 418.74 313.1 418.74" style="opacity:0.1"></polygon><rect x="257.41" y="389.75" width="65.86" height="14.55" style="fill:#ebebeb"></rect><g style="opacity:0.1"><path d="M260.12,391.09a34.12,34.12,0,0,1,0,11.64,34.12,34.12,0,0,1,0-11.64Z"></path><path d="M265,391.09a30.92,30.92,0,0,1,.5,5.82,30.11,30.11,0,0,1-.5,5.82,29.34,29.34,0,0,1-.5-5.82A30.11,30.11,0,0,1,265,391.09Z"></path><path d="M267.43,391.09a34.12,34.12,0,0,1,0,11.64,34.12,34.12,0,0,1,0-11.64Z"></path><path d="M280.58,391.09a30.92,30.92,0,0,1,.5,5.82,29.34,29.34,0,0,1-.5,5.82,29.34,29.34,0,0,1-.5-5.82A30.92,30.92,0,0,1,280.58,391.09Z"></path><path d="M284.14,391.09a30.92,30.92,0,0,1,.5,5.82,30.11,30.11,0,0,1-.5,5.82,29.34,29.34,0,0,1-.5-5.82A30.11,30.11,0,0,1,284.14,391.09Z"></path><path d="M298.85,391.09a34.12,34.12,0,0,1,0,11.64,34.12,34.12,0,0,1,0-11.64Z"></path><path d="M302.25,391.09a34.12,34.12,0,0,1,0,11.64,34.12,34.12,0,0,1,0-11.64Z"></path><path d="M308.5,391.09a34.12,34.12,0,0,1,0,11.64,34.12,34.12,0,0,1,0-11.64Z"></path><path d="M296,391.09a30.11,30.11,0,0,1,.5,5.82,29.34,29.34,0,0,1-.5,5.82,30.11,30.11,0,0,1-.5-5.82A30.92,30.92,0,0,1,296,391.09Z"></path><path d="M271.77,391.09a34.12,34.12,0,0,1,0,11.64,34.12,34.12,0,0,1,0-11.64Z"></path><path d="M288.82,391.09a30.11,30.11,0,0,1,.5,5.82,29.34,29.34,0,0,1-.5,5.82,30.11,30.11,0,0,1-.5-5.82A30.92,30.92,0,0,1,288.82,391.09Z"></path><path d="M291.27,391.09a34.12,34.12,0,0,1,0,11.64,34.12,34.12,0,0,1,0-11.64Z"></path><path d="M316.63,391.09a34.12,34.12,0,0,1,0,11.64,34.12,34.12,0,0,1,0-11.64Z"></path><path d="M320.31,391.09a34.12,34.12,0,0,1,0,11.64,34.12,34.12,0,0,1,0-11.64Z"></path><path d="M311.4,391.09a34.81,34.81,0,0,1,0,11.64,34.12,34.12,0,0,1,0-11.64Z"></path><path d="M277.74,391.09a34.12,34.12,0,0,1,0,11.64,34.12,34.12,0,0,1,0-11.64Z"></path></g><polygon points="323.27 389.75 323.27 392.85 257.41 394.92 257.41 389.75 323.27 389.75" style="opacity:0.1"></polygon><rect x="255.75" y="375.2" width="65.86" height="14.55" style="fill:#ebebeb"></rect><g style="opacity:0.1"><path d="M318.65,388.18a31,31,0,0,1-.5-5.83,30.11,30.11,0,0,1,.5-5.82,29.34,29.34,0,0,1,.5,5.82A30.21,30.21,0,0,1,318.65,388.18Z"></path><path d="M313.75,388.18a34.18,34.18,0,0,1,0-11.65,34.18,34.18,0,0,1,0,11.65Z"></path><path d="M311.35,388.18a30.21,30.21,0,0,1-.5-5.83,29.34,29.34,0,0,1,.5-5.82,30.11,30.11,0,0,1,.5,5.82A31,31,0,0,1,311.35,388.18Z"></path><path d="M298.19,388.18a34.18,34.18,0,0,1,0-11.65,34.18,34.18,0,0,1,0,11.65Z"></path><path d="M294.64,388.18a34.18,34.18,0,0,1,0-11.65,34.18,34.18,0,0,1,0,11.65Z"></path><path d="M279.92,388.18a31,31,0,0,1-.5-5.83,30.11,30.11,0,0,1,.5-5.82,29.34,29.34,0,0,1,.5,5.82A31,31,0,0,1,279.92,388.18Z"></path><path d="M276.52,388.18a31,31,0,0,1-.5-5.83,30.11,30.11,0,0,1,.5-5.82,29.34,29.34,0,0,1,.5,5.82A31,31,0,0,1,276.52,388.18Z"></path><path d="M270.28,388.18a34.18,34.18,0,0,1,0-11.65,34.18,34.18,0,0,1,0,11.65Z"></path><path d="M282.76,388.18a34.18,34.18,0,0,1,0-11.65,34.18,34.18,0,0,1,0,11.65Z"></path><path d="M307,388.18a31,31,0,0,1-.5-5.83,30.11,30.11,0,0,1,.5-5.82,29.34,29.34,0,0,1,.5,5.82A30.21,30.21,0,0,1,307,388.18Z"></path><path d="M290,388.18a34.18,34.18,0,0,1,0-11.65,34.18,34.18,0,0,1,0,11.65Z"></path><path d="M287.5,388.18a31,31,0,0,1-.5-5.83,30.11,30.11,0,0,1,.5-5.82,29.34,29.34,0,0,1,.5,5.82A30.21,30.21,0,0,1,287.5,388.18Z"></path><path d="M262.14,388.18a31,31,0,0,1-.5-5.83,29.34,29.34,0,0,1,.5-5.82,30.11,30.11,0,0,1,.5,5.82A31,31,0,0,1,262.14,388.18Z"></path><path d="M258.46,388.18a31,31,0,0,1-.5-5.83,30.11,30.11,0,0,1,.5-5.82,29.34,29.34,0,0,1,.5,5.82A30.21,30.21,0,0,1,258.46,388.18Z"></path><path d="M267.38,388.18a31,31,0,0,1-.5-5.83,29.34,29.34,0,0,1,.5-5.82,30.11,30.11,0,0,1,.5,5.82A31,31,0,0,1,267.38,388.18Z"></path><path d="M301,388.18a34.18,34.18,0,0,1,0-11.65,34.18,34.18,0,0,1,0,11.65Z"></path></g><polygon points="321.61 375.2 321.61 378.29 255.75 380.37 255.75 375.2 321.61 375.2" style="opacity:0.1"></polygon><rect x="251.74" y="360.64" width="65.86" height="14.55" style="fill:#ebebeb"></rect><g style="opacity:0.1"><path d="M254.45,362a34.12,34.12,0,0,1,0,11.64,34.12,34.12,0,0,1,0-11.64Z"></path><path d="M259.36,362a30.92,30.92,0,0,1,.5,5.82,30.11,30.11,0,0,1-.5,5.82,29.34,29.34,0,0,1-.5-5.82A30.92,30.92,0,0,1,259.36,362Z"></path><path d="M261.76,362a34.12,34.12,0,0,1,0,11.64,34.12,34.12,0,0,1,0-11.64Z"></path><path d="M274.91,362a30.92,30.92,0,0,1,.5,5.82,29.34,29.34,0,0,1-.5,5.82,30.11,30.11,0,0,1-.5-5.82A30.92,30.92,0,0,1,274.91,362Z"></path><path d="M278.47,362a30.92,30.92,0,0,1,.5,5.82,30.11,30.11,0,0,1-.5,5.82,29.34,29.34,0,0,1-.5-5.82A30.92,30.92,0,0,1,278.47,362Z"></path><path d="M293.18,362a34.12,34.12,0,0,1,0,11.64,34.12,34.12,0,0,1,0-11.64Z"></path><path d="M296.58,362a34.12,34.12,0,0,1,0,11.64,34.81,34.81,0,0,1,0-11.64Z"></path><path d="M302.83,362a34.12,34.12,0,0,1,0,11.64,34.12,34.12,0,0,1,0-11.64Z"></path><path d="M290.34,362a30.11,30.11,0,0,1,.5,5.82,29.34,29.34,0,0,1-.5,5.82,34.12,34.12,0,0,1,0-11.64Z"></path><path d="M266.1,362a34.12,34.12,0,0,1,0,11.64,34.12,34.12,0,0,1,0-11.64Z"></path><path d="M283.15,362a30.11,30.11,0,0,1,.5,5.82,29.34,29.34,0,0,1-.5,5.82,34.12,34.12,0,0,1,0-11.64Z"></path><path d="M285.6,362a34.12,34.12,0,0,1,0,11.64,34.12,34.12,0,0,1,0-11.64Z"></path><path d="M311,362a34.81,34.81,0,0,1,0,11.64A34.12,34.12,0,0,1,311,362Z"></path><path d="M314.64,362a34.12,34.12,0,0,1,0,11.64,34.12,34.12,0,0,1,0-11.64Z"></path><path d="M305.73,362a34.12,34.12,0,0,1,0,11.64,34.12,34.12,0,0,1,0-11.64Z"></path><path d="M272.07,362a34.12,34.12,0,0,1,0,11.64,29.34,29.34,0,0,1-.5-5.82A30.11,30.11,0,0,1,272.07,362Z"></path></g><polygon points="317.6 360.64 317.6 363.74 251.74 365.81 251.74 360.64 317.6 360.64" style="opacity:0.1"></polygon><rect x="251.74" y="404.31" width="65.86" height="14.55" style="fill:#ebebeb"></rect><g style="opacity:0.1"><path d="M314.64,417.28a34.12,34.12,0,0,1,0-11.64,34.12,34.12,0,0,1,0,11.64Z"></path><path d="M309.74,417.28a30.11,30.11,0,0,1-.5-5.82,29.34,29.34,0,0,1,.5-5.82,34.12,34.12,0,0,1,0,11.64Z"></path><path d="M307.34,417.28a34.12,34.12,0,0,1,0-11.64,29.34,29.34,0,0,1,.5,5.82A30.11,30.11,0,0,1,307.34,417.28Z"></path><path d="M294.19,417.28a34.12,34.12,0,0,1,0-11.64,34.12,34.12,0,0,1,0,11.64Z"></path><path d="M290.63,417.28a30.11,30.11,0,0,1-.5-5.82,29.34,29.34,0,0,1,.5-5.82,34.12,34.12,0,0,1,0,11.64Z"></path><path d="M275.91,417.28a34.12,34.12,0,0,1,0-11.64,34.12,34.12,0,0,1,0,11.64Z"></path><path d="M272.51,417.28a34.12,34.12,0,0,1,0-11.64,34.12,34.12,0,0,1,0,11.64Z"></path><path d="M266.27,417.28a30.92,30.92,0,0,1-.5-5.82,30.11,30.11,0,0,1,.5-5.82,29.34,29.34,0,0,1,.5,5.82A30.92,30.92,0,0,1,266.27,417.28Z"></path><path d="M278.76,417.28a34.12,34.12,0,0,1,0-11.64,34.12,34.12,0,0,1,0,11.64Z"></path><path d="M303,417.28a34.12,34.12,0,0,1,0-11.64,34.12,34.12,0,0,1,0,11.64Z"></path><path d="M286,417.28a34.12,34.12,0,0,1,0-11.64,34.12,34.12,0,0,1,0,11.64Z"></path><path d="M283.49,417.28a34.12,34.12,0,0,1,0-11.64,34.12,34.12,0,0,1,0,11.64Z"></path><path d="M258.13,417.28a34.12,34.12,0,0,1,0-11.64,34.12,34.12,0,0,1,0,11.64Z"></path><path d="M254.45,417.28a34.12,34.12,0,0,1,0-11.64,34.12,34.12,0,0,1,0,11.64Z"></path><path d="M263.37,417.28a34.12,34.12,0,0,1,0-11.64,34.12,34.12,0,0,1,0,11.64Z"></path><path d="M297,417.28a30.92,30.92,0,0,1-.5-5.82,29.34,29.34,0,0,1,.5-5.82,30.11,30.11,0,0,1,.5,5.82A30.92,30.92,0,0,1,297,417.28Z"></path></g><polygon points="317.6 404.31 317.6 407.4 251.74 409.48 251.74 404.31 317.6 404.31" style="opacity:0.1"></polygon></g></svg>