<svg xmlns="http://www.w3.org/2000/svg" viewBox="0 0 500 500"><g id="freepik--background-complete--inject-118"><path d="M183.93,50.52c-46.43,0-46.5,66,0,66S230.43,50.52,183.93,50.52Z" style="fill:#ebebeb"></path><path d="M212.16,89.71c-2.48,11.36-11.89,21.21-28.24,21.21-38.59,0-38.53-54.79,0-54.79h.76c-36.26.67-36.08,52.56.71,52.56C200.4,108.7,209.34,100,212.16,89.71Z" style="fill:#dbdbdb"></path><path d="M184.2,63.35a1.18,1.18,0,0,1,1.21,1.11v1.83a17.27,17.27,0,0,1,8.94,3.22c.45.32.7.6.7,1.06a1.24,1.24,0,0,1-1.3,1.15,1.33,1.33,0,0,1-.91-.32,15,15,0,0,0-7.53-3V81.28c7.63,1.47,10.85,4.09,10.85,8.59,0,4.87-4.47,8.32-10.75,8.5V102a1.21,1.21,0,0,1-2.41,0V98.33a19.79,19.79,0,0,1-11.3-4.46,1.19,1.19,0,0,1-.56-1,1.26,1.26,0,0,1,1.26-1.14,1.31,1.31,0,0,1,.9.32,17,17,0,0,0,9.8,4.18V83.16c-7.54-1.51-10.65-4-10.65-8.64s4.42-8.18,10.55-8.32V64.46A1.17,1.17,0,0,1,184.2,63.35Zm-1.1,17.47V68.27c-4.87.09-8.09,2.76-8.09,6.07C175,77.46,176.62,79.39,183.1,80.82Zm2.21,2.8V96.31c5-.1,8.29-2.76,8.29-6.25C193.6,86.88,191.84,85,185.31,83.62Z" style="fill:#dbdbdb"></path><path d="M131.64,217.45c-44.9,11.79-28.22,75.66,16.76,63.85S176.62,205.64,131.64,217.45Z" style="fill:#ebebeb"></path><path d="M168.9,248.2c.49,11.61-6.12,23.53-21.93,27.68-37.32,9.8-51.18-43.22-13.91-53l.73-.18c-34.9,9.85-21.55,60,14,50.65C162.34,269.54,168.79,258.87,168.9,248.2Z" style="fill:#dbdbdb"></path><path d="M135.17,229.8a1.16,1.16,0,0,1,1.44.76l.47,1.77a17.25,17.25,0,0,1,9.46.85c.52.19.83.4,1,.84a1.24,1.24,0,0,1-1,1.44,1.27,1.27,0,0,1-1-.08,15,15,0,0,0-8-1l3.26,12.44c7.76-.51,11.54,1.2,12.68,5.56,1.24,4.71-2.21,9.18-8.24,11l.91,3.47a1.21,1.21,0,0,1-2.33.61l-.92-3.51a19.78,19.78,0,0,1-12.06-1.44,1.18,1.18,0,0,1-.78-.8,1.27,1.27,0,0,1,.92-1.43,1.39,1.39,0,0,1,1,.08,16.86,16.86,0,0,0,10.53,1.56l-3.32-12.67c-7.68.45-11.33-1.2-12.5-5.65s2.2-9,8.09-10.72l-.44-1.69A1.16,1.16,0,0,1,135.17,229.8ZM138.53,247l-3.18-12.14c-4.69,1.33-7.13,4.72-6.29,7.92C129.86,245.78,131.9,247.24,138.53,247Zm2.85,2.15,3.22,12.27c4.84-1.37,7.32-4.77,6.43-8.15C150.22,250.17,148,248.75,141.38,249.12Z" style="fill:#dbdbdb"></path><path d="M394,127.79c-37.8,19.36-9.18,75.38,28.68,56S431.89,108.39,394,127.79Z" style="fill:#dbdbdb"></path><path d="M397.57,126c-36,18.45-7.4,74.47,28.68,56S433.66,107.49,397.57,126Z" style="fill:#ebebeb"></path><path d="M436.51,148c3,10.61,0,22.71-12.7,29.21-29.95,15.33-53.7-31.16-23.8-46.47l.59-.29c-27.85,15-5.17,58.91,23.38,44.29C435.63,168.76,438.79,157.84,436.51,148Z" style="fill:#dbdbdb"></path><path d="M408.67,135.1a1.07,1.07,0,0,1,1.22.85l.31,1.72a14.34,14.34,0,0,1,8.22,1.63,1.22,1.22,0,0,1,.78.88,1.12,1.12,0,0,1-.93,1.28,1,1,0,0,1-.83-.16,12.41,12.41,0,0,0-7-1.63l2.18,12.06c6.8.2,10,2.16,10.77,6.38.82,4.57-2.43,8.49-7.78,9.64l.6,3.36a1.06,1.06,0,0,1-.84,1.22,1.08,1.08,0,0,1-1.23-.85l-.61-3.4a16.48,16.48,0,0,1-10.45-2.43,1.11,1.11,0,1,1,1.07-1.93,14.09,14.09,0,0,0,9.12,2.4l-2.22-12.28c-6.72-.25-9.82-2.14-10.6-6.45s2.4-8.35,7.64-9.43l-.3-1.64A1.07,1.07,0,0,1,408.67,135.1Zm2,16.55-2.13-11.77c-4.16.84-6.47,3.84-5.91,6.94C403.17,149.75,404.88,151.31,410.68,151.65Zm2.37,2.28,2.15,11.9c4.29-.87,6.64-3.88,6.05-7.15C420.71,155.71,418.88,154.17,413.05,153.93Z" style="fill:#dbdbdb"></path><path d="M89.45,157c33.79,6.06,24.87,56.13-9,50S55.6,150.94,89.45,157Z" style="fill:#dbdbdb"></path><path d="M86.27,156.45c32.21,5.78,23.29,55.84-9,50.05S54,150.66,86.27,156.45Z" style="fill:#ebebeb"></path><path d="M61.36,182.65c.17,8.92,5.36,17.57,16.7,19.6,26.77,4.8,34.19-36.75,7.46-41.55l-.53-.08c25.06,5,17.88,44.34-7.65,39.76C66.93,198.51,61.91,190.81,61.36,182.65Z" style="fill:#dbdbdb"></path><path d="M83.68,164.35a.87.87,0,0,1,.68,1l-.26,1.4a11.53,11.53,0,0,1,5.74,3.58,1,1,0,0,1,.34.9.92.92,0,0,1-1.07.7.87.87,0,0,1-.58-.36,10.14,10.14,0,0,0-4.8-3.24l-1.82,9.75c5.09,2.1,6.94,4.5,6.31,7.91-.69,3.69-4.27,5.72-8.65,5.05l-.5,2.71a.85.85,0,0,1-1.67-.31l.51-2.75a13.31,13.31,0,0,1-7.2-4.83.89.89,0,0,1,.78-1.51.87.87,0,0,1,.58.36,11.44,11.44,0,0,0,6.2,4.43l1.85-9.92c-5-2.12-6.81-4.44-6.16-7.92s4.21-5.62,8.48-4.94l.24-1.32A.88.88,0,0,1,83.68,164.35Zm-3.23,13.09,1.77-9.51c-3.39-.56-6,1-6.46,3.55S76.16,175.52,80.45,177.44Zm1.13,2.4-1.79,9.61c3.5.58,6.14-1,6.63-3.66C86.87,183.38,85.92,181.69,81.58,179.84Z" style="fill:#dbdbdb"></path><rect x="402.07" y="376.37" width="35.16" height="11.19" transform="translate(839.3 763.94) rotate(180)" style="fill:#ebebeb"></rect><rect x="359.02" y="262.62" width="35.16" height="11.19" transform="translate(753.19 536.43) rotate(180)" style="fill:#ebebeb"></rect><path d="M421.68,401.67c5.84-.09,20.81-.34,26.45-.41l8.71,0-.46.45,0-11.19.5.5c-5.84,0-20.73-.07-26.37-.15l-8.79-.11.24-.24-.24,11.19Zm0,0-.23-11.19v-.23h.24c4.39-.06,13.2-.16,17.58-.2l17.58-.07h.5v.5l0,11.19v.46h-.45l-8.87,0c-5.6-.06-20.5-.32-26.29-.42Z" style="fill:#ebebeb"></path><path d="M175.14,140.93c5.84-.1,20.81-.35,26.45-.42l8.71,0-.46.46,0-11.19.5.5c-5.84,0-20.73-.08-26.37-.16l-8.79-.11.24-.23-.24,11.19Zm0,0-.23-11.19v-.24h.24c4.39-.06,13.2-.16,17.58-.2l17.58-.06h.5v.51l0,11.19v.45h-.45l-8.87,0c-5.6-.06-20.5-.32-26.29-.41Z" style="fill:#ebebeb"></path><path d="M194.75,155c5.84-.1,20.82-.35,26.45-.42l8.71,0-.45.46-.05-11.19.5.5c-5.84,0-20.73-.08-26.37-.16l-8.78-.11.23-.23L194.75,155Zm0,0-.23-11.19v-.24h.25c4.38-.06,13.19-.16,17.57-.2l17.58-.06h.5v.51l0,11.19v.45h-.46l-8.87,0c-5.6-.06-20.5-.32-26.29-.41Z" style="fill:#ebebeb"></path><rect x="214.29" y="129.74" width="35.16" height="11.19" transform="translate(463.74 270.66) rotate(180)" style="fill:#ebebeb"></rect><rect x="43.16" y="390.48" width="35.16" height="11.19" transform="translate(121.48 792.16) rotate(180)" style="fill:#ebebeb"></rect><rect x="62.77" y="44.93" width="35.16" height="11.19" transform="translate(160.7 101.06) rotate(180)" style="fill:#ebebeb"></rect><path d="M43.16,70.23c5.84-.1,20.81-.35,26.45-.41l8.71,0-.46.45,0-11.19.5.5c-5.84,0-20.73-.07-26.37-.15l-8.79-.11L43.4,59l-.24,11.19Zm0,0L42.92,59v-.23h.24c4.39-.06,13.19-.16,17.58-.2l17.58-.07h.5V59l0,11.19v.46h-.45l-8.87,0c-5.6-.07-20.51-.32-26.29-.42Z" style="fill:#ebebeb"></path><path d="M402.07,56.12c5.84-.1,20.81-.34,26.45-.41l8.71,0-.46.45,0-11.19.5.5-17.58-.07c-4.38,0-13.2-.13-17.58-.19l.24-.24-.24,11.19Zm0,0-.24-11.19V44.7h.24c4.39-.06,13.2-.16,17.58-.2l17.58-.07h.5v.5l-.05,11.19v.46h-.45l-8.87,0c-5.6-.07-20.5-.32-26.29-.42Z" style="fill:#ebebeb"></path><path d="M216.76,361.1c-.35-1.76-.55-3.34-.73-5a49.64,49.64,0,0,1-.25-5.05,29,29,0,0,1,.46-5.26,12.65,12.65,0,0,1,2.34-5.53,7.29,7.29,0,0,1,2.86-2.16,7.38,7.38,0,0,1,1.72-.48,8.29,8.29,0,0,1,1.65-.07,9.94,9.94,0,0,1,5.59,2.25,15.23,15.23,0,0,1,3.58,4.09,14.1,14.1,0,0,1,2,5.06,6.19,6.19,0,0,1-.25,3.22,3.56,3.56,0,0,1-1.29,1.64,3.71,3.71,0,0,1-1.88.62,3.42,3.42,0,0,1-2-.48,4.16,4.16,0,0,1-1.28-1.26,7.4,7.4,0,0,1-1-2.69,14.9,14.9,0,0,1,0-5.12,12.21,12.21,0,0,1,1.81-4.76,5.84,5.84,0,0,1,2-1.85,4.25,4.25,0,0,1,2.7-.45,8.19,8.19,0,0,1,4.28,2.52,27,27,0,0,1,5.06,8.05,26.74,26.74,0,0,0-5.58-7.49,7.06,7.06,0,0,0-3.9-1.92,3.32,3.32,0,0,0-3.16,2,10.46,10.46,0,0,0-1.12,4.17,12.47,12.47,0,0,0,.36,4.29,4.75,4.75,0,0,0,.78,1.66,1.19,1.19,0,0,0,.43.35.68.68,0,0,0,.64-.16.46.46,0,0,0,.09-.23,3.37,3.37,0,0,0-.1-1.46,11.84,11.84,0,0,0-4.71-6.31,5.5,5.5,0,0,0-3.15-1,3.2,3.2,0,0,0-.7.11,2.25,2.25,0,0,0-.54.21,2.18,2.18,0,0,0-.79.78,7.73,7.73,0,0,0-.95,3.24,24.42,24.42,0,0,0,0,4.19c.12,1.45.33,2.92.6,4.38s.61,3,1,4.29Z" style="fill:#ebebeb"></path><path d="M216.76,361.1c-.35-1.76-.55-3.34-.73-5a49.64,49.64,0,0,1-.25-5.05,29,29,0,0,1,.46-5.26,12.65,12.65,0,0,1,2.34-5.53,7.29,7.29,0,0,1,2.86-2.16,7.38,7.38,0,0,1,1.72-.48,8.29,8.29,0,0,1,1.65-.07,9.94,9.94,0,0,1,5.59,2.25,15.23,15.23,0,0,1,3.58,4.09,14.1,14.1,0,0,1,2,5.06,6.19,6.19,0,0,1-.25,3.22,3.56,3.56,0,0,1-1.29,1.64,3.71,3.71,0,0,1-1.88.62,3.42,3.42,0,0,1-2-.48,4.16,4.16,0,0,1-1.28-1.26,7.4,7.4,0,0,1-1-2.69,14.9,14.9,0,0,1,0-5.12,12.21,12.21,0,0,1,1.81-4.76,5.84,5.84,0,0,1,2-1.85,4.25,4.25,0,0,1,2.7-.45,8.19,8.19,0,0,1,4.28,2.52,27,27,0,0,1,5.06,8.05,26.74,26.74,0,0,0-5.58-7.49,7.06,7.06,0,0,0-3.9-1.92,3.32,3.32,0,0,0-3.16,2,10.46,10.46,0,0,0-1.12,4.17,12.47,12.47,0,0,0,.36,4.29,4.75,4.75,0,0,0,.78,1.66,1.19,1.19,0,0,0,.43.35.68.68,0,0,0,.64-.16.46.46,0,0,0,.09-.23,3.37,3.37,0,0,0-.1-1.46,11.84,11.84,0,0,0-4.71-6.31,5.5,5.5,0,0,0-3.15-1,3.2,3.2,0,0,0-.7.11,2.25,2.25,0,0,0-.54.21,2.18,2.18,0,0,0-.79.78,7.73,7.73,0,0,0-.95,3.24,24.42,24.42,0,0,0,0,4.19c.12,1.45.33,2.92.6,4.38s.61,3,1,4.29Z" style="opacity:0.1"></path><path d="M210,436.81c-4.57,6.47-3.64,26.2-6.4,29s-31.15,2.47-33.06.85-1-8.6-3.16-9.75C166.54,456.42,210,436.81,210,436.81Z" style="fill:#ebebeb"></path><path d="M167.39,456.88a3.1,3.1,0,0,1,1.21,2.1,135,135,0,0,0,38-10.22c.65-4.81,1.6-9.4,3.39-11.94C210,436.82,166.54,456.43,167.39,456.88Z" style="opacity:0.1"></path><path d="M74,437.13c5.71,8.25,2.62,25.88,5.39,28.64s31.15,2.47,33.06.85,1-9,2.16-10.37C115.2,455.51,74,437.13,74,437.13Z" style="fill:#ebebeb"></path><path d="M74,437.13c2.12,3.07,3,7.46,3.48,11.88a129.1,129.1,0,0,0,36.5,10.1,6.44,6.44,0,0,1,.63-2.86C115.21,455.5,74,437.13,74,437.13Z" style="opacity:0.1"></path><path d="M143.61,318.88c63.74,0,88.14,44.68,88.14,70.83,0,25.8-18.53,69.65-88.14,69.65s-92.7-37.15-92.7-70.24S79.22,318.88,143.61,318.88Z" style="fill:#ebebeb"></path><path d="M120.2,322.11s-26.07-20-54.31-17.62c-9.72.82,6.42,21.89,6.72,38.35Z" style="fill:#ebebeb"></path><path d="M83.5,334.78c.16,1-8.84,4.9-9.77,4.31s-1.87-13.56-9.21-27.37C63.44,309.69,81.76,323.64,83.5,334.78Z" style="opacity:0.1"></path><path d="M77.84,389.12a4.63,4.63,0,0,1-3.75-3.26,6.93,6.93,0,0,0,3,5.17c.13.09.07.32-.1.27-5-1.87-4.45-8.92-2.7-13.41.1-.25.19-.49.3-.73,1.12-2.61,3.07-4.49,5.52-4.14C88.21,374.18,85.3,390.2,77.84,389.12Z" style="opacity:0.30000000000000004"></path><path d="M58.63,368.3c-1.25,3.75-12.57.71-15.42,3.08-4.49,3.73-3.25,50,.86,53.7,2.3,2.09,15.14-.11,18.75,2.43S58.63,368.3,58.63,368.3Z" style="fill:#ebebeb"></path><path d="M42.61,397.11c0,11.26.94,20.39,2.1,20.39s2.1-9.13,2.1-20.39-.94-20.4-2.1-20.4S42.61,385.84,42.61,397.11Z" style="opacity:0.1"></path><path d="M174.4,334.58c-.29-.08-29.41-7.73-56.51-1.74l-2.7-8c30.16-6.66,61.14,1.52,62.45,1.87l-3.25,7.85,1.63-3.92Z" style="fill:#030402;opacity:0.1"></path><path d="M201.66,431.88c25.72-29.54,10-63.85,9.27-65.32a4.23,4.23,0,0,1,7.59-3.73,71.26,71.26,0,0,1,6.06,24.64c1.24,18.78-5,36-19.68,47.79C200.46,438.8,198.36,435.68,201.66,431.88Z" style="fill:#fff"></path><path d="M212.85,353.44a4.6,4.6,0,1,1-4.59-4.59A4.6,4.6,0,0,1,212.85,353.44Z" style="fill:#fff"></path></g></svg>