<svg xmlns="http://www.w3.org/2000/svg" viewBox="0 0 500 500"><g id="freepik--Globe--inject-302"><g id="freepik--World--inject-302"><path d="M126.64,281.67C172,359.84,272.15,386.41,350.32,341.06a163.65,163.65,0,1,0-223.68-59.39Z" style="fill:#e0e0e0"></path><path d="M166.52,72.52a4.69,4.69,0,0,0,2.9,1.1,9.92,9.92,0,0,0,1.79-.22c.72-.16,2.43-1.15,2.88-.92s-.49,1.77-1.22,2.62a14.78,14.78,0,0,1-4.22,3.22c-2.43,1.18-3.79,1.25-5.31.85-.51-.14-2.58-.85-3.49-.09s-.69,1.17-.31,1.48a5.48,5.48,0,0,0,2.27.57,1.7,1.7,0,0,1,1,.33c.75.68-1.09,2.83-.53,3.63.34.49,1.28.37,2,.4a13.6,13.6,0,0,0,3.13,0,8.54,8.54,0,0,0,2-.65,34.14,34.14,0,0,1,4.94-1.24,2.64,2.64,0,0,0,2.41-2.56c.1-1.18-.94-1.23-2.22-.94-1.71.38-3.7,1.09-4.2,1.17s-.73,0-.53-.31c.39-.64,2.45-1.14,2.84-1.27l2.48-.92c1.36-.49,2.91-.9,3.56-1.11a8.39,8.39,0,0,0,3-1.66c1-1.07.32-1.68,1.21-2.64a9.33,9.33,0,0,1,2.56-1.59,25.08,25.08,0,0,0,2.69-1.5c1.64-1.2,1.66-2.74,2.89-4.24a10.45,10.45,0,0,1,2.44-2.11c1.3-.84,3.07-1.79,4.05-2.46l1.76-1.2a11.15,11.15,0,0,0,2-1.71c.4-.42.76-1,1.14-1.37a3.78,3.78,0,0,1,1.21-.91,7.92,7.92,0,0,0,3.28-3.16c.92-1.78-.5-1.4-.79-1.8-.48-.68-1.36-.65-2.34-.54-2.14.22-4.76,1.14-7.31,1.68Q191.16,55,186.07,58c-2.92,1.69-5.74,3.48-8.52,5.32a5,5,0,0,0,1.71.73c1.43.49,4-1,5.91-1.48.88-.23,3.58-1.25,3.69-.44.17,1.26-2.85,2.58-3.49,2.85a3.54,3.54,0,0,0-1.46.93c-.79.91-2.07,2.12-2.83,1.56-.48-.36-.88-.85-1.44-1a1,1,0,0,0-1.15.52c-.61.85-2.35,2.2-2.56,1.15-.13-.61,0-1.47-.5-1.75s-.94-.24-1.26-.51c-.07-.06-.11-.13-.17-.19-2.76,1.94-5.46,4-8.07,6A3,3,0,0,0,166.52,72.52Z" style="fill:#f5f5f5"></path><path d="M342.49,85.31a20.3,20.3,0,0,1,5-2.93c.85-.35,1.72-.66,2.6-.94.53-.18,1.08-.34,1.62-.49a8.74,8.74,0,0,0,1.31-.21,1.29,1.29,0,0,0,.07-2.24,2.11,2.11,0,0,0-.48-.29,1.57,1.57,0,0,0-1.3.07,11.19,11.19,0,0,1-3.46.59C343,79,338.91,80.54,337,84.82a24.29,24.29,0,0,0-1.75,4.65c-.07.6-.15,1.21-.8,1.27-.41,0-.6.16-.47.71a6,6,0,0,0,2.61,3.18,21,21,0,0,0,2,1.46,2.87,2.87,0,0,0,2.88.12c.51-.4-.07-1.5-.41-2.29-.13-.3-.29-.59-.42-.87a7.82,7.82,0,0,1-.53-3,7,7,0,0,1,.31-1.79A6.89,6.89,0,0,1,342.49,85.31Z" style="fill:#f5f5f5"></path><path d="M272.93,62.08c.4.46.73,1.07,1.11,1.56a7.58,7.58,0,0,0,1.54,1.48,20.82,20.82,0,0,1,1.9,1.57,1.94,1.94,0,0,1,.2.33c.21.45.05.34,0,.66-.08.58.27.95.83,1.29a14.77,14.77,0,0,1,1.37,1c.76.58,2.25.9,2.55.09a6.5,6.5,0,0,0,.27-1.7,12.83,12.83,0,0,1,.29-2.84,3.7,3.7,0,0,0,.08-.39c0-.23.58-.48,1.25-.07.47.29.95.66,1.22.83s.38.21.49.29a.89.89,0,0,1,.21.78.46.46,0,0,0,.1.31c.16.24.34.27.53.39a7,7,0,0,0,2,.86,2.44,2.44,0,0,0,.82,0,.8.8,0,0,0,.24-1.37A22,22,0,0,1,287,65.45a8,8,0,0,1-1.56-1.86c-.79-1.36.19-1.55,1-1.51a9.42,9.42,0,0,0,1.92-.06,4.07,4.07,0,0,0,2.53-1.25,1.92,1.92,0,0,0,0-1.49,1,1,0,0,0-.09-.13,2.7,2.7,0,0,0-2.5-.93c-1,0-2.15,0-3.2-.09a6.91,6.91,0,0,1-1.42-.11,3.31,3.31,0,0,0-1.06-.27,4.61,4.61,0,0,0-1.82.65,3.44,3.44,0,0,1-2.15.48c-.44-.05-1.16-.35-1.23.2-.1.8.85,1.59,1,2.37.1.59-.57.33-1-.16s-.35-1.17-.72-1.61-.66-.27-.75,0c-.16.41-.08,1-.83.46-.43-.33-.6-.74-1.09-.92-.83-.31-2.74.2-2.08,1.74C272.19,61.45,272.6,61.68,272.93,62.08Z" style="fill:#f5f5f5"></path><path d="M269,136.66c-.74-1.33-2.6-2.12-2.22-4.08.13-.63,1-1.17.78-1.91-.11-.41-.52-.51-.79-.71s-1.47-1.41-1.32-2c.09-.37-3.08-.85-2.84.27.35,1.67-2.34,2-1.18,3.17l.15.14a20.24,20.24,0,0,0-.25,2.14c0,1.16,1.63,1.71,1.68,2.71s1.67.32,2.14,1.23.35,2.81-.57,3.12-.65,2.24-1.29,2.66c-.41.26-.83.52-.51,1.19.2.39,1.35-.28,1.32.66,0,.78-1.23.94-.93,1.77.25.67,1.19.54,1.7.52,2.11-.07,5-.51,6.52-2.35.59-.7,1.81-2.45.85-3.23-.37-.3-.85-.35-1.2-.73a6,6,0,0,1-.88-1.72A20.75,20.75,0,0,0,269,136.66Z" style="fill:#f5f5f5"></path><path d="M106.83,193.83c.63.73,1.69,3.21,2.6,3.22,1.57,0-.09-3.24-.43-3.73s-2.84-5.48-2.79-5.52a.6.6,0,0,0,.3-.59c0-.2-.84-.86-1.38-1.56-.18,2-.31,4-.4,6C105.33,192.46,106.35,193.27,106.83,193.83Z" style="fill:#f5f5f5"></path><path d="M332.91,287.19a54.31,54.31,0,0,0,3.33-11.4c.12-.76.23-1.56.29-2.34a7.14,7.14,0,0,0-.35-3.13,5.33,5.33,0,0,1-.46-.72c-.09-.18-.16-.42-.25-.65a2.67,2.67,0,0,0-.34-.72c-.25-.34-1.37,0-1.68,1.13-.2.7-.29,1.5-.4,2-.53,2.87-3,4.08-4.48,6.1-2.13,2.81-1.75,5.94-2,9-.19,2-1.35,4.69-.75,6.51C327.74,299,331.77,290,332.91,287.19Z" style="fill:#f5f5f5"></path><path d="M419.58,257.29a2,2,0,0,0-1.42-1.16,26.12,26.12,0,0,0-4.12-.24,5.14,5.14,0,0,1-2.19-.5,2.21,2.21,0,0,1-.9-.85c-.51-.89-.17-2,0-3.21a4.39,4.39,0,0,0-.74-3.36c-.25-.43-.51-.9-.78-1.31-.43-.66-1.09-1-1.51-1.68a3.68,3.68,0,0,1-.65-2.4,2.24,2.24,0,0,1,.72-1.31,4.14,4.14,0,0,0,.72-3.06c-.14-.62-.35-1.22-.47-1.66a20.33,20.33,0,0,0-.91-2.41c-.17-.39-.45-.64-.62-1a17.55,17.55,0,0,1-1.3-9c.16-.89.53-1.77,1.3-1.68a1.35,1.35,0,0,1,.65.31,7.89,7.89,0,0,1,1.26,1.68c.31.54.64,1.07.77,1.06,1.56,0,1.27,5.66,3.48,3.46.69-.68,1.61-1,2.33-1.71a10.12,10.12,0,0,0,.85-.88,8.65,8.65,0,0,0,1.53-3,7.19,7.19,0,0,0,.17-2.12,15,15,0,0,0-2.55-6.38,2.31,2.31,0,0,1-.82-1.9c.07-2.13,2-4.44,3.83-3.67a3,3,0,0,0,3.38-.43c1.26-1,2.34-2.24,3.83-2.79,1.91-.71,4.42-1.39,6-2.88l.42-.42a163.27,163.27,0,0,0-.82-20.36c-.08-.72-.21-1.92-.34-2.94a164.1,164.1,0,0,0-41.52-90.26c-.32,0-.66,0-1,0a23.58,23.58,0,0,0-4.75,0,4.2,4.2,0,0,0-2.8,2.3,3.85,3.85,0,0,1-1.45,1.7,4.2,4.2,0,0,1-2.53.32c-.66-.06-1.94-.21-1.76.9s1.74,2.6,2.26,3.62c1.17,2.28-1.74.28-2.49-.24A8.27,8.27,0,0,0,372,96.45c-.53-.13-1.71-.58-1.8.07a5.3,5.3,0,0,0,.78,2.11c.4.85.45,1.13-.16,1.27s-1.32.19-2,.32a6.15,6.15,0,0,1-3.23-.09c-1.39-.52-2.31-2.1-2.92-3.64a4.5,4.5,0,0,0-1.25-2.1,3.87,3.87,0,0,0-1.88-1c-1.37-.22-1.66,1.09-1.47,2.5s-1.11,1.71-.8,3a9.11,9.11,0,0,0,2.28,3.5c.76.86,2.11,2.1,1.68,3-.62,1.34-2.42.15-3.66-.76-1.68-1.24-3.41-2.21-5.1-3.46a11,11,0,0,0-4.7-2c-.87-.15-1.45.28-.49,1.44.45.53,2,1.55,1.81,2.43s-2.19.5-2.82.53a21.66,21.66,0,0,1-5.43-.16c-1.38-.29-2.84-1-4.14-.8a6.7,6.7,0,0,0-1.77.48,4.2,4.2,0,0,0-1.74,1.81.88.88,0,0,1-.51.44,2.55,2.55,0,0,1-.71.16,2.12,2.12,0,0,1-1.82-1.93c0-.82.09-1.71-.62-2.24a3.44,3.44,0,0,0-2.75-.42,1.1,1.1,0,0,0-.59.81c-.14.65.14,2.43-.08,3.64a2.75,2.75,0,0,1-.91,1.75,6.93,6.93,0,0,1-1.46.61,3.09,3.09,0,0,0-1.51,1.59c-.75,1.32-1.34,2.52-2.75,2.74s-2.42-.4-3.68-2a32.74,32.74,0,0,1-2.57-3.44c-1.12-1.89,1.43-.84,2.12-.65,1,.29,2.05.29,3.07.5a10.14,10.14,0,0,0,2.54.23c.68,0,1.87-.11,1.84-1.22-.06-2.46-4.71-5.4-6.06-6.31-.65-.45-1.3-.87-2-1.26-1.08-.67-2.93-1.74-4.13-2.4a6.56,6.56,0,0,0-2.17-.85c-1.15-.12-2.12,1.36-3.3-1-.69-1.39-1.13-1.9-2.35-2.28a11.2,11.2,0,0,0-6.69,0,6.16,6.16,0,0,0-1.67.9c-.85.63-1.77,1.91-2.42,2.22a2.28,2.28,0,0,1-1.32.17c-2.77-.42-3.86,2-4.29,5.37-.12.9-.13,1.93-.32,2.8a5.36,5.36,0,0,1-.54,1.4c-.37.71-1.29,2.32-2,3.66-.43.82-.88,1.63-1.32,2.5-1.24,2.4-2.66,4.85-4.13,7.4a9.79,9.79,0,0,0-1.67,6.07,6.27,6.27,0,0,0,2.52,4c1.49,1.21,3,.94,4.41.48,2.13-.68,3,.41,3.89,3,.39,1.12.75,2.47,1.64,3.18a3.79,3.79,0,0,0,3.15.66c1.14-.35,1.58-1.57,1.5-3a4.15,4.15,0,0,1,.95-3.35,3.38,3.38,0,0,0,.37-3.31c-.58-2-1.88-4.49-2.12-5.79a5.45,5.45,0,0,1,0-2.24,9.68,9.68,0,0,1,.61-1.77c.41-.88,1.79-2.45,2.81-3.93a10.17,10.17,0,0,0,1.47-3.12,5.19,5.19,0,0,1,.6-1.48,2.21,2.21,0,0,1,2.43-.5,2.07,2.07,0,0,1,1.22,1.2,4.73,4.73,0,0,1-.49,3.56c-.57,1.14-1.61,1.38-2.26,2.41s-.63,2.88-.61,4.42-.1,3.35.66,4.59c1,1.56,2.93,1.25,4.23,1.19.59,0,1.25,0,1.91,0a6.82,6.82,0,0,1,2.75.67c.43.29.84,1.55.37,1.8a2.61,2.61,0,0,1-.93.18c-1.29.13-2.63-.07-3.92,0-.82,0-2.12-.07-2.29,1.2-.13,1,.77,1.82,1.27,2.44a2.68,2.68,0,0,1,.87,2.18.74.74,0,0,1-.93.6,3.76,3.76,0,0,1-1.74-1.25c-.31-.36-.73-1.07-1.16-.86-.7.34-.37,2.79-.36,3.56a6.7,6.7,0,0,1-.7,3.81c-1.45,2.13-4.25,2-6.44,1.8a22.51,22.51,0,0,1-4-.9,6.84,6.84,0,0,1-2.51-.94c-1.74-1.35-.68-4.67-1-6.67-.39-2.35-2.41-.78-2.8.6-.63,2.17,1,4.78.26,6.81-.54,1.41-2.25,1.4-3.38,1.8-1.54.56-2.37,2.17-2.65,4-.15,1-.88,1.53-1.46,2.18-.79.87-1.67,1.57-2.49,2.35a3,3,0,0,1-2.16,1c-.54,0-1.3-.45-1.72-.08s-.19,1.21-1,1.5-1.95-.11-2.86,0c-.61.07-1.52.47-1,1.26s1.7,1.11,2.37,1.56c1.39.94,1.84,2.6,1.95,4.39.16,2.46-.49,4.39-2.79,4.54s-4.45-.39-6.75.59c-2,.84-2,4.66-2.09,6.78a4.17,4.17,0,0,0,.59,2.47,9.13,9.13,0,0,0,.95,2,3.16,3.16,0,0,0,2.39.77,2.92,2.92,0,0,1,2.36.94,3.13,3.13,0,0,0,.5.41c.31.17.77-.67,1.42-.8a4,4,0,0,1,1.19.06,3.53,3.53,0,0,0,1.16.09c.39-.07.56-.46.84-.55a3.81,3.81,0,0,0,2-2.69c.19-.57.32-1.17.53-1.73a19.59,19.59,0,0,1,1-1.79,9.85,9.85,0,0,1,.57-1.37c.57-.82,1.31-.66,2.09-.9a2.52,2.52,0,0,0,1.78-2.17c.19-.88.17-1.9,1-2.24.68-.27,1.46.26,2.16.3,1.23.08,2.22-.76,3.26-1.31,2.08-1.09,3.72-.39,4.94,1.82a17.38,17.38,0,0,0,1.83,2.86c.55.65,1.26,1,1.81,1.7.69.83,1.55,1.47,2.22,2.27s.57,2.49.28,3.63c-.11.45-.49,1.17-.17,1.59s.84,0,1.12-.28c.9-.94.76-2.12.79-3.47,0-.62-.06-1.37.45-1.54a1.33,1.33,0,0,1,.72.17c.4.14.38-1.2-.46-1.88a3.44,3.44,0,0,0-1.59-.8c-.43,0-1.49-1.59-1.83-2a25.26,25.26,0,0,1-2.37-2.93,5.3,5.3,0,0,1-1.14-2.79c0-1.52,1.54-1.36,2.35-.67.65.56.69,1.43,1.07,2.21.82,1.71,2.56,2.1,3.84,3,.9.64.87,1.47,1.24,2.58a15.2,15.2,0,0,1,.89,2.53,1.75,1.75,0,0,0,.44,1.23,10.22,10.22,0,0,0,1.22,1.24,7,7,0,0,1,1.19,1.06c.34.5.19.44.1.95-.19,1.1-.26,2.23.74,2.85s1.25-1.37,1.66-2.16a2,2,0,0,0,.34-1.76c-.18-.59-.78-1-1-1.56-.57-1.47.77-1.29,1.43-1.75.85-.57,1.76-1.59,2.87-.71.64.51.5,1,.42,1.74a6.7,6.7,0,0,0,.47,2.4,8.77,8.77,0,0,0,.53,2.35,5.68,5.68,0,0,0,4.47,2.84c.73,0,1.41-.54,2.14-.34.31.08.51.36.79.5a3.45,3.45,0,0,0,1.61.22c.73,0,1.43-.25,2.16-.23,1.18,0,1.52.37,1.19,1.73a49.29,49.29,0,0,0-1.29,6.24c-.09.79.07,2.77-.43,3.33s-1.74-.61-2.31-.91a10.71,10.71,0,0,0-5.39-1,23.06,23.06,0,0,1-2.88,0,5.24,5.24,0,0,1-2.65-.61c-1.35-1.13-4.84-4.36-6.39-2-1,1.55-.58,4.53-3,4a11.22,11.22,0,0,1-3.11-1.69,25.48,25.48,0,0,0-4.8-2.11,6,6,0,0,1-3.06-2c-1.1-1.48.75-1.89,1-3.33a4,4,0,0,0-1.12-3.55,4.72,4.72,0,0,0-2.95-.59c-.52,0-1-.14-1.5-.16a6.28,6.28,0,0,0-1.69.39,16.76,16.76,0,0,1-3.66.26c-.65,0-1.3,0-1.93,0-.38,0-1.36-.13-1.67.13-1.65,1.41-3.71,2.93-5.94,2.71-1.4-.13-2.56-.6-4-.06a13.3,13.3,0,0,0-3.69,2.52c-.94.82-1.83,1.71-2.71,2.61-1,1.06-1,2.49-1,4a3.94,3.94,0,0,1-.84,2.48,8.85,8.85,0,0,1-3.25,2.93,8.39,8.39,0,0,0-3.66,3,24.05,24.05,0,0,0-2,4.23,13.33,13.33,0,0,0,.19,9.45c.36.79-.71,3.17-.91,4a7.9,7.9,0,0,0,.12,4.59,7.36,7.36,0,0,0,1.66,2.67c1.45,1.5,2.27,3.61,3.49,5.42a29.51,29.51,0,0,0,3.87,4.82,11.11,11.11,0,0,0,6.54,3.35,6.65,6.65,0,0,0,3.5-.43,4.81,4.81,0,0,1,1.86-.41,10.94,10.94,0,0,0,3.88-.87c.65-.34,1.29-.74,1.88-1.08a4.26,4.26,0,0,1,4.09-.5,6.25,6.25,0,0,1,1.59,1.11,16.88,16.88,0,0,0,3,2.35,5,5,0,0,0,1.72.46A4.3,4.3,0,0,1,284,238.1c2,2,.79,4.69-.41,7-1.12,2.14-.29,4.37.63,6.17.45.86.76,1.74,1.22,2.55a8.73,8.73,0,0,1,1.26,2.85c.15,1,.38,1.9.56,2.83a21.87,21.87,0,0,1,.12,5.77c-.13.94-.31,1.88-.52,2.82-.1.46-.2.92-.32,1.37a16.4,16.4,0,0,1-.81,2.48,7.91,7.91,0,0,0-.47,1.1,15.12,15.12,0,0,0-.55,2.85c-.18,1.6-.54,4.4-.7,6a13.78,13.78,0,0,0,0,2.87,72.78,72.78,0,0,0,3,12.16c.57,1.88,1,3.85,1.59,5.71.28.95.45,2,.81,2.9a14.45,14.45,0,0,1,.48,3.16c.32,2.19,1,3.53,2.7,4.08a7.65,7.65,0,0,0,4.44-.44,18.29,18.29,0,0,0,8.37-5.33,23.31,23.31,0,0,0,3.58-5.84,14.29,14.29,0,0,0,1.18-3c.26-1.12.43-2.28.77-3.39.53-1.68,1-3.54,1.61-5.19,1-2.59,1.45-4.83,3.36-6.77a36,36,0,0,1,2.83-2.41c1.54-1.27,4.36-3.33,4.52-6,.77-12.76-2.57-22.8,9.17-31.84,3.17-3.28,7.33-8.81,8.64-14,.62-2.47-1-4.1-2.57-3.52a25.8,25.8,0,0,1-2.91.92c-.9.22-1.82.3-2.73.46a4.47,4.47,0,0,1-2.58-.71,2.6,2.6,0,0,1-1.6-1.91c-.31-1-.15-1.95-.37-2.92a4.52,4.52,0,0,0-1.5-2.15,18.07,18.07,0,0,1-3.27-4.91,22.3,22.3,0,0,1-1.33-6,9.65,9.65,0,0,0-1.54-3.74,25.51,25.51,0,0,1-1.76-3.76c-.5-1.29-2.35-5.76-.56-6.63,1.4-.69,2.33,3.35,2.78,4.42.9,2.13,1.87,4.08,2.87,6l1.56,3c.87,1.63,1.89,3.64,2.29,4.47.25.5.49,1,.72,1.51a11.66,11.66,0,0,1,1.29,3c.46,4,1.62,6.27,3.85,6.18,2-.07,5.09-2.12,7-3.1a61.6,61.6,0,0,0,9.6-6.07,14.33,14.33,0,0,0,2-2.66,10.51,10.51,0,0,0,1.79-3.33,2.21,2.21,0,0,0-.84-2.58c-.56-.38-1.24-.16-1.7-.6s-.64-1.61-1.06-2.26c-.83-1.27-1.81-.41-2.79.12s-3,1.72-4,.9c-.65-.58-.27-1.24-.57-2s-.74-.38-1.23-.56c-1.25-.44-1.7-2.3-2.26-3.52-.43-.93-1.38-3-1-4.13.62-1.85,2.5.71,3,1.38a27.1,27.1,0,0,1,2.12,2.31,4.29,4.29,0,0,0,1.93,1.54,16,16,0,0,0,2.29,1.11c.61.15,1.24-.07,1.86.18a2.12,2.12,0,0,1,.92.7,6.17,6.17,0,0,0,4.1,2.15c1.74.06,3.56-.31,5.21-.39a7.67,7.67,0,0,1,3.86.48,7.27,7.27,0,0,1,3.27,3.57c.48,1.27.86,3,2.09,3.69s2.13-2.23,2.84-1.51c.39.39.3,1.55.33,2.09a17.21,17.21,0,0,0,.24,2c.24,1.53.48,3.09.73,4.65a75.8,75.8,0,0,0,1.95,9.52c.44,1.47,1.09,3.7,2.39,4.23.57.23,1.53-.55,1.94-1.1a7.34,7.34,0,0,0,.86-2,23.39,23.39,0,0,0,.71-2.67,30.65,30.65,0,0,1,1.46-4.92,15.82,15.82,0,0,1,1.1-2,17.7,17.7,0,0,1,2.58-3.29,14.67,14.67,0,0,0,2.25-2.15c.26-.36.51-.73.76-1.1a24.46,24.46,0,0,1,1.58-2.07,2.64,2.64,0,0,1,.95-.73,6.52,6.52,0,0,1,1.33-.11c.89-.13,1.19-.84,1.94-1.23s1.45.25,1.9.8c1.25,1.55,1.17,4,1.29,6,.07,1,.1,2.31,1.06,2.45s1.55-.43,2.28.39.75,2.51,1.16,3.68,1.29,1.62,1.37,2.89c.06.81-.28.93-.62,1.55a2,2,0,0,0,0,1.73,4.05,4.05,0,0,1,0,2.21,6.07,6.07,0,0,0-.59,2,.94.94,0,0,0,.63.9,2.81,2.81,0,0,1,1.25,1.85c.09.5.15,1,.2,1.39a8,8,0,0,0,.34,1.66c.08.17.16.31.24.46a3.7,3.7,0,0,1,.18,1.79,1.25,1.25,0,0,1-.57,1c-.3.12-.67-.08-1-.36-.51-.4-1.28-1-1.75-1.35a2.33,2.33,0,0,0-.91-.39c-1.68-.19,0,3.9.38,4.56s.71,1,1,1.51a4.63,4.63,0,0,1,.49,1.88,20.81,20.81,0,0,0,1.38,4,15.76,15.76,0,0,0,1.77,3.45,7.9,7.9,0,0,0,1.19,1.31c.13.11,1.4.84,1.39.9-.48,4.84,3.73,2,5.36,3.57,1.26,1.4,2.93,1,4.56.91a8.22,8.22,0,0,0,1.28-.18c.16-.41.3-.81.46-1.22C420.37,258,419.79,257.81,419.58,257.29ZM325.27,170a17.46,17.46,0,0,1-4.27-1.33c-2-.77-5.2-.15-7.21.2a6.36,6.36,0,0,1-3-.06c-2-.66-.6-5.19.33-7.33a9.25,9.25,0,0,1,1.85-3.13c1.59-1.41,4.65.66,4.12,1.19s.17,1.14.27,1.73.65,1.16,1.24.65,0-3.12,1.86-4c.22-.1.45-.2.7-.29,1.91-.69,2.82.4,2.44,2.8a4.8,4.8,0,0,0,0,1.73c.5,2.47,2.94,2.87,2.95,3.14s.92.64,1.62,1.56S327.33,170.19,325.27,170Zm21.38,8.23c-.46,1.81-2.61,2.12-4.62,1s-2-4.47-1.91-6.64-3.24-4.36-3.52-6.83c-.5-4.38,3.28-7.56,5.95-7.23,2.06.26.55,3.25-.54,5.22-.37.69-.06,1.34.59,2.29,1.35,2,3.14,2.93,4,3.85s-.27,2-1.39,2.26S347.23,175.92,346.65,178.22Z" style="fill:#f5f5f5"></path><path d="M204.65,290.58c.76-1.39,3.06-2.69,4.73-3.3,1.31-.48,2.17-.47,3.13-2a10.84,10.84,0,0,0,1.15-6.06c-.21-1.37.45-2.68.3-3.66s-1-3.89-.63-6.48c.5-4,4.18-6.3,4.83-10.47.41-2.6-2.17-5.23-4-6.19s-3.83-4.42-6-4.49l-.7,0c-2.14-.07-5.18-3-7.29-3.94a13.38,13.38,0,0,0-1.46-.52c-2.13-.64-4.5-3.34-5.51-5.84-.93-2.32-2.11-4.53-3.8-5.58-2.29-1.41-5.53.37-7.41-2.25a10.69,10.69,0,0,0-2.87-2.93,11.34,11.34,0,0,1-3.11-2.7c-1.22-1.73-2.39-.52-3.85-1.27-.84-.43-1.13-.9-2.15-1a39.07,39.07,0,0,1-3.91-.18c-1.05-.16-1.41-.73-2.23-1.43-1.87-1.59-5-.63-6.33,1-.64.8-.92,2.06-1.55,2.77-1.28,1.45-3.92.09-5.49-.86a9.63,9.63,0,0,1-3.09-2.93c-.94-1.47-1.69-1.88-1.55-3.7.1-1.31.45-3-.44-4.2a4.15,4.15,0,0,0-3-1.27c-.84-.09-2,.22-2.75-.29a3.05,3.05,0,0,1-1.16-2.9c.23-.68,1-1.06,1.36-1.61a2.37,2.37,0,0,0,.48-1c0-.19-.13-1-.09-1.06.84-1.4.55-2.26-.24-2.65-1.41-.68-3.91.55-4.35,2.36s-3.45,2.89-5.31,2c-3.63-1.82-5.06-8.86-3.65-13.5.64-2.13,3.11-5,5.05-5.13,1.56-.13,3.19.6,5,.83.73.16.73-.36.74-.88,0-.84,1.69-.72,2.9-.72s3.9.61,5.06,2.56a15.89,15.89,0,0,1,1.16,3c.7,2.18,3.51,3.57,3.06,1.23-.27-1.47-.91-3.34-1.26-5-.47-2.33,1.43-5.27,3-6.4a25.55,25.55,0,0,0,2.76-2.08,5.06,5.06,0,0,0,1.73-2.62c.15-1.24-.63-2.43-.45-3.79a6.55,6.55,0,0,1,.83-2.68,8.38,8.38,0,0,1,3.24-3.21c1.22-.62,3.29-.31,4-1.92s.81-2.64,2.22-3.88a12.14,12.14,0,0,1,2.9-1.82c1.67-.78.65,2.06,2.63,1.93a16.46,16.46,0,0,0,5.74-2.46c1.91-1.19,2.83-3.31,2.29-4s-2.42,2.92-4.29,2.4a2.87,2.87,0,0,1-.57-.24c-1.7-1-1.21-3.91-1.55-3.87s-.28-.46.18-.64,1.27-3.36-.7-2.7a9.72,9.72,0,0,0-1.05.43c-1.94.86-2.07-.66-.14-1.55,3.07-1.43,6.61-1.55,10-2.2,2-.4,2.68.7,1.37,2.83s-2,3.56-.56,3.94c1.93.5,4.34-.27,4.32.51,0,.5,0,1,.69.51,1.05-.68,2,1.06,2.94-.16a2.16,2.16,0,0,0,0-2.16c-.47-1.07-1-3-2.19-3.11s-1.22-3.11-.4-5.51l.24-.75c.71-2.42-2.13-4.55-3.51-5.94-4.07-4.1-2.42-4.22-4.05-9.7-.61-2-2.39-1.8-4.13-.18-.92.86-1.84,1.47-2.5,1.34-1.7-.33-.15-5.43-1.25-6-.6-.32-1.43-.48-1.68-1.54-.37-1.88-2.13-2.64-3.94-2.41s-3.76,3.16-3.83,5-2,4.55-1.52,5.88,1,4.68-.52,6.51c-.93,1.11-2.18,1.93-3,3.07-1.42,2-.19,5.34-1.09,6.47a1.34,1.34,0,0,1-1.86.45,5.13,5.13,0,0,1-2-3.43c-.08-2.92,1.21-4.56-1.2-5.35a25.53,25.53,0,0,1-8.69-4.82c-1.17-1-.86-2.3-1-4s-1.54-2.23.59-4.38c1.33-1.35,3.23-2.25,4.21-4.34s-.94-2.31.48-3.9,4.22-.74,5.63-1.24a2.89,2.89,0,0,0,1.83-1.36c.78-1.43-.38-1.57-.55-2.32,0-.24.4-.36.85-.41a4.44,4.44,0,0,0,1.78-.37,3,3,0,0,0,.9-.84c.27-.39.27-.7.61-1.07a2.09,2.09,0,0,1,1.09-.55,5.49,5.49,0,0,0,2.37-.71,8.2,8.2,0,0,0,3.24-2.76,6.69,6.69,0,0,0,1-2.74c-.1-.52-.75-.5-.6-1.3.48-2.63,3.33-2.46,4.28-2.59,1.45-.19,3.17-.48,2.43,2.11-.34,1.15-1,3.92.73,2.49,1-.82,1.33-1.22,1.78-.38a2.44,2.44,0,0,1,.38,2.38,3.17,3.17,0,0,1-1.7,1.92c-1.08.64-2.63,4.31-4.3,4.49-.27,0-.55,0-.81.09-1.69.23-2.08,4.07-.37,3.44s3.46.55,4.42,2c1.35,2,3.49,4.21,4.65,4.29,1.74.11,1.05-3.73,1.93-4a4.46,4.46,0,0,1,1.57-.26c.28,0,.7-2.19.71-2.42a3.4,3.4,0,0,0-.46-1.85c-.63-1-1.71-1.14-1.93-2.65-.24-1.69,1.59-3,2.42-2.39a3.28,3.28,0,0,1,.73,1.66c.29,1.08,1.11,1.73,1.54,1.56a2.22,2.22,0,0,0,.77-.5c.61-.62.68-1.43,1.19-2.08.82-1.05,1.76-.66,2.55-1.66a1.4,1.4,0,0,0-.16-2.19c-1.2-1.09-2.61-1.78-3.76-2.78a8.11,8.11,0,0,1-.68-.55c-.34-.36-.28-1.66,0-2.6a9,9,0,0,0,.39-1.66,2.52,2.52,0,0,0-.75-1.83,8.57,8.57,0,0,0-1.39-1.54c-.86-.71-3-1-3.63-2.34s-.91-3-2.08-3c-.14,0-.62.39-.83.45a1.21,1.21,0,0,1-.78,0c-.47-.17-.71-.62-1.1-.88a2.89,2.89,0,0,0-3.07,0,11,11,0,0,1-1.41.63,12,12,0,0,1-2.51.26,11.8,11.8,0,0,0-3.67,2,9.44,9.44,0,0,0-2.05,2c-.87,1.24-1.67,3.27-.85,3.57s2.37,0,3.39.14,3.18.24,2.06,2.41c-.86,1.65-2.67,1-3.13,3-.15.66,0,1.24-.46,2a8.34,8.34,0,0,1-1.63,1.67A12.85,12.85,0,0,1,158,105.6c-.74.4-1.64.12-1.41-.85.18-.78,1-1.34,1.3-2.13a.94.94,0,0,0-.47-1.29,2.59,2.59,0,0,0-.69-.26,2.08,2.08,0,0,1-1.15-1,4.25,4.25,0,0,1-.28-.92c-.11-.56-.36-1.1-.48-1.71A4.54,4.54,0,0,1,156,94.14c.31-.26.67-.49,1.08-.84a19.73,19.73,0,0,0,2.28-2.45c1.5-1.88,2-3.77.54-3.76s-4,1.55-5.26,3.87a26,26,0,0,1-2.19,4c-.91,1.13-2.07,1.92-2.92,3.06s-.88,2.14-1.51,3.26-.81.8-1.52,1.15c-1.6.78-1.74,3.38-3.32,4.42a3.7,3.7,0,0,1-1.6.43,5.39,5.39,0,0,1-2.64-.21c-.23-.1-.55-.21-.31-.73.35-.75,1.11-.87,1.59-1.16,1.5-.9,3.1-3.39,3.14-4.75,0-.9-.79-.93-1.2-1.36a3.55,3.55,0,0,1-.33-3.56q-4.17,5.07-7.88,10.41a.77.77,0,0,1,.64.57c.12.44-.14.93-.54,1.57a9.65,9.65,0,0,0-.68,1.23c-.33.68-1.72,3.23-2.48,2.59a4.3,4.3,0,0,1-.52-.59,163.33,163.33,0,0,0-25.07,72.54,1.37,1.37,0,0,1,1.31.5c1.33,1.42,1.84,4.87,3.18,6.3,2.22,2.38,4.79,5.34,5.88,8.55.71,2.09,1.7,5.2,3.37,6.5,3.25,2.52,7.17,4.62,10.75,4.69s6.71,6.6,10.27,5.13c.43-.18,1.94,2.88,2.16,3.29a12.27,12.27,0,0,0,3.4,3.71,25.06,25.06,0,0,0,4.49,2.6c2.85,1.42,6.23,3.52,5.11,7.94-.69,2.66-2.14,5.11-3.15,7.66s-1.85,5.41-.7,8.25,3.19,4.91,4.35,7.63.3,6,1.5,9c1.49,3.73,4.15,4.64,7.46,6.41a12,12,0,0,1,5.75,6A105.73,105.73,0,0,1,177,297c2.06,8.09,3.5,16.62,7.3,24.07a34.29,34.29,0,0,0,7,9.89c1.94,1.81,4,2.12,4.33-1,.19-1.94-1.14-3.72-1.66-5.53s.37-3.23.55-5.05c.15-1.5-.91-3.93.27-5s2.66-.1,3.43-1.64c1-1.95-1.11-3.14-1.27-4.77s2.53-1.34,3.54-2.67c.63-.84.5-2,1-2.95.38-.73.81-.81,1.34-1.3a8.44,8.44,0,0,0,1.87-3.61C205.39,295.28,203.58,292.55,204.65,290.58ZM138.56,155c1.81-1.34,5.1-4.44,6.57-3.43a6.12,6.12,0,0,1,1.55,2.49c.81,1.84,3.33,2.74,4.75,3.63s-.84,2.12-1.24,3.55-1.5,1.89-1.36,1.07c.08-.49.09-.88-.64-.67-1,.29-.71-.42-.34-1.2.5-1.08-2-2.32-2.94-.11a16,16,0,0,0-.62,1.85c-.68,2.29-2.92,2-2.23-.29.09-.28.19-.57.3-.86.83-2.25.4-5.08-1.48-5.08C138.73,155.92,136.62,156.42,138.56,155Z" style="fill:#f5f5f5"></path><path d="M153.34,84.92c.21.9,1.46.26,1.74-.09s1.82-2.47,1.38-3.48c-.21-.49-.74-.45-1.32-.19-.75.71-1.47,1.44-2.2,2.16A6.57,6.57,0,0,0,153.34,84.92Z" style="fill:#f5f5f5"></path><path d="M255.52,144.19c.47,1.64,2.25.75,3.22.51a4.49,4.49,0,0,0,2.68-2.8,4.28,4.28,0,0,0-.23-3c-.42-.86-1.58-2.38-2.5-1.81-.37.22-.29.71-.6,1s-1.23,0-1.72.08c-1.39.25-.4,1.78-.22,2.62a2.94,2.94,0,0,1-.2,1.71C255.76,143,255.34,143.57,255.52,144.19Z" style="fill:#f5f5f5"></path><path d="M284.86,170.08c.94-2.07-.44-8.43-1.41-6.21a8.49,8.49,0,0,0-.41,1.26C282.42,167.53,283.91,172.16,284.86,170.08Z" style="fill:#f5f5f5"></path><path d="M427.07,237.08c1-1.4,1.26-3.38-.31-3.71s-2.4,1.28-3.64,2.48a33,33,0,0,1-4.84,3.75c-1,.68-2.67-.21-3.14,1.63a8.7,8.7,0,0,0,.34,4.89,8.38,8.38,0,0,0,1.39,3.24c1.44,1.63,3.76,2.48,5.88.68a4.15,4.15,0,0,0,.86-1c.38-.63.87-1.92,1.38-2.69.64-2.14,1.23-4.3,1.78-6.46A2.56,2.56,0,0,1,427.07,237.08Z" style="fill:#f5f5f5"></path><path d="M157.7,203.81a9.63,9.63,0,0,1-4.28-1.74c-1.25-.83-2.73-1.82-4.13-1.3-1,.39.18,1.6.84,2.13a14.3,14.3,0,0,0,1.53,1c.86.54,2,1.55,2.67,2a2.14,2.14,0,0,0,1.28.35c1.78-.07,3.64-1.09,5.39.33.41.34,1.07,1.31,1.62,1.26l.1,0c.59-.19.52-1.24.29-1.8C162.11,203.85,159.25,204,157.7,203.81Z" style="fill:#f5f5f5"></path><path d="M291.55,176.39a1.73,1.73,0,0,0-1-2.29c-.54-.29-.67.35-.73,1.1C289.74,176.16,290.92,177.8,291.55,176.39Z" style="fill:#f5f5f5"></path><path d="M275.61,170c.75-.72.64-1.51-1.5-1.51-.34,0-.88.52-1.24,1.13C272.36,170.5,274.34,171.22,275.61,170Z" style="fill:#f5f5f5"></path><path d="M249.62,109c1.24-2.21-1.31-5.84-2.48-5.73-.71.07-1.42.69-2,.9a11.71,11.71,0,0,1-2.3.12c-1.27.08-2.61,1.8-3.46.55s-1.91,2.55-.73,4.84C241.36,115,247.75,112.37,249.62,109Z" style="fill:#f5f5f5"></path><path d="M156.22,112.82c-1,2.08-1.35,4-.41,4.54s3.53-.83,5.31-1.21c2.56-.56.58-1.84-1-3.62C159.09,111.35,157.25,110.75,156.22,112.82Z" style="fill:#f5f5f5"></path><path d="M235.83,83.32c1.4-.92,3.87-2.81,3.48-5.42-.23-1.56-1.08-2.17-1-3.89a6.4,6.4,0,0,1,.42-1.88,19.29,19.29,0,0,1,1.76-2.77,2.06,2.06,0,0,0,.27-1.73c-.34-1.19-1.45-1.35-2-2.1-2.73-3.82,7.35-10.48,6.5-12.26a1.39,1.39,0,0,0-.82-.6,8,8,0,0,0-2.09-.42,3.94,3.94,0,0,0-1.21.14,3.77,3.77,0,0,0-1.47,1.17c-.77.86-1.74,1.8-2,1.49-.1-.12-.14-.41-.36-.79-.61-1.09-.73-.28-1.57.13-.41.19-1.81.25-1.83-1s1.35-2.48,1.76-3.13a3.15,3.15,0,0,1,1.2-1.15c.71-.34.73-2-.29-3a7.24,7.24,0,0,0-3.38-1.77,11,11,0,0,0-7.25.53,16,16,0,0,0-3.74,2.06c-1.67,1.23-3.39,4.16-5.29,5.56a2.64,2.64,0,0,1-2.93.29c-1.64-.56-3.74-1.26-6.88,1.72-1.93,1.85-.71,2.07-1.58,3.82s-2.94,1.27-3.74,1.57a4.94,4.94,0,0,0-1.15.62,5.37,5.37,0,0,0-1.56,3.09c0,.39-.12.72-1.26,1.63a31.41,31.41,0,0,1-4.63,2.93,7.57,7.57,0,0,0-3.19,3.13c-.78,1.38-.27,1.37.12,1.84a2.16,2.16,0,0,1,.41.83c.14.55.11,2,.77,2.28s2.83-.56,4.44-1.07c2.73-.87,5.3-1.44,6.44.84a5.23,5.23,0,0,1,.5,2.54c0,1.72-1.19,4.79-1.85,6.49a4.88,4.88,0,0,0-.5,2.89c.53,1.61,2.43,1.69,3,3.51.43,1.43-.2,3.39-1.18,5.12-1.08,1.92-2.32,2.57-3.53,4.18s-.94,3.46-1.28,5.15a16.64,16.64,0,0,0,.05,6.22,47.48,47.48,0,0,0,1.65,6.49,7.17,7.17,0,0,0,1.09,2.29c.8,1,3.17,1.38,4.86,1.07a5.6,5.6,0,0,0,3-1.59c1.93-2.06,1.72-5.39,2.6-8a6.9,6.9,0,0,1,3.89-4.49c1.61-.74,3.73-1.18,5.15-2.75,1.16-1.29,1.93-3.35,3.15-4.53,1.64-1.58,4.06-1.39,5.83-2.06,1.21-.46,3.65-1.57,4-3.33.17-1-.16-1.47.34-2.36a3.46,3.46,0,0,1,1.38-1.17c.2-.11.57-.19.92-.32.51-.2.75-1.4.42-2-.23-.42-.5-.81-.61-1.09C234.23,86.11,234.16,84.42,235.83,83.32Z" style="fill:#f5f5f5"></path><path d="M152.4,90.65c.74-.52,1.65-1.16,1.33-1.55-.08-.14-.31-.15-.41-.27s-1.21-.21-3.12.67-2.5,2.61-3.85,3.12-.48,3,.63,3.72c1.66,1.07,3.92-.73,5.24-2.48C153.89,91.65,151.35,91.41,152.4,90.65Z" style="fill:#f5f5f5"></path><path d="M333,63c-98.23-46-128.58,21.07-81,73.95s138.74,82.28,156,55.12S406,97.18,333,63Z" style="fill:#fff;opacity:0.2"></path><g style="opacity:0.05"><path d="M184.6,281.37c-80-67.65-29.18-218,56.74-243.25h0c-3.12.52-6.24,1.11-9.37,1.82A163.64,163.64,0,1,0,407.41,285.58C382.49,316.68,268.55,352.36,184.6,281.37Z"></path></g></g></g></svg>
