<svg xmlns="http://www.w3.org/2000/svg" viewBox="0 0 500 500"><g id="freepik--background-complete--inject-346"><path d="M124.85,359.34c-2-2.1-4.95-2.9-7.67-3.9A41.21,41.21,0,0,1,98.3,292.26l-.41-2.11c-.93-9.86-12.83-16.92-21.93-13S63.78,294.52,70.28,302c-10.67.88-17.73,13-16.22,23.65s9.26,19.3,17.9,25.63a84.74,84.74,0,0,0,49.21,16.26,6.82,6.82,0,0,0,3.5-.63C127.17,365.44,126.85,361.45,124.85,359.34Z" style="fill:#e0e0e0"></path><path d="M422.2,316.21c2.45-4,2.8-9.35.31-13.31s-7.95-5.95-12.2-4a8.93,8.93,0,0,0-15.16-9.45c-2.84,4.39-1.34,10.28,1.1,14.91s5.79,9,6.59,14.13-1.2,10.68-4.36,15-7.37,7.7-11.54,11l-.79.76a28.66,28.66,0,0,0,23-2c3.92-2.17,7.55-5.76,7.81-10.23.14-2.5-.79-5-.41-7.48C417.06,322,420.26,319.36,422.2,316.21Z" style="fill:#e0e0e0"></path><path d="M207.15,479.69c-3.89-.48-7.79-2.18-10.08-5.36-1.46-2-2.17-4.52-3.44-6.68s-3.48-4.11-6-3.87c-3.86.38-6.47,5.72-10.24,4.78-2.26-.57-3.34-3.23-3.35-5.56s.66-4.66.37-7c-.81-6.51-9.17-9.71-15.41-7.67s-15.7,9.55-19.77,14.7c4.28,7.11,13.05,9.87,21.09,11.89q20.25,5.07,40.85,8.61c3.22.55,6.51,1.08,9.73.57s6.43-2.22,7.92-5.12C215,479.59,211,480.18,207.15,479.69Z" style="fill:#e0e0e0"></path><path d="M362,429.55c-1-5.56-6.54-10.46-12-9.18,4.56-3.76,4.59-11.32,1-16s-9.88-6.71-15.79-6.53-11.58,2.25-17.06,4.45c2.69-3.42-1.25-8.76-5.59-9s-8.23,2.47-11.76,5-7.59,5.16-11.89,4.49l4,1.62c9.65,1.46,19.38,3.71,27.73,8.75s15.24,13.26,16.68,22.91-3.64,20.45-12.79,23.83A38.81,38.81,0,0,0,357,445.21C360.44,440.75,363,435.1,362,429.55Z" style="fill:#e0e0e0"></path><path d="M44.93,285.35a84.65,84.65,0,0,1-.26-9.31,84.77,84.77,0,0,1,.26-9.32,81.89,81.89,0,0,1,.26,9.32A81.78,81.78,0,0,1,44.93,285.35Z" style="fill:#e0e0e0"></path><path d="M54.56,276a90.5,90.5,0,0,1-9.63.26,90.39,90.39,0,0,1-9.62-.26,87.31,87.31,0,0,1,9.62-.26A87.43,87.43,0,0,1,54.56,276Z" style="fill:#e0e0e0"></path><path d="M416.42,381.09a81.78,81.78,0,0,1-.26-9.31,81.89,81.89,0,0,1,.26-9.32,84.77,84.77,0,0,1,.26,9.32A84.65,84.65,0,0,1,416.42,381.09Z" style="fill:#e0e0e0"></path><path d="M426.05,371.77a86,86,0,0,1-9.63.27,85.83,85.83,0,0,1-9.63-.27,90.5,90.5,0,0,1,9.63-.26A90.66,90.66,0,0,1,426.05,371.77Z" style="fill:#e0e0e0"></path><path d="M359.91,61.45a81.89,81.89,0,0,1-.26-9.32,81.78,81.78,0,0,1,.26-9.31,84.65,84.65,0,0,1,.26,9.31A84.77,84.77,0,0,1,359.91,61.45Z" style="fill:#e0e0e0"></path><path d="M369.54,52.13a87.43,87.43,0,0,1-9.63.26,87.43,87.43,0,0,1-9.63-.26,90.5,90.5,0,0,1,9.63-.26A90.5,90.5,0,0,1,369.54,52.13Z" style="fill:#e0e0e0"></path><circle cx="55.65" cy="197.85" r="5.69" style="fill:#e0e0e0"></circle><path d="M282.76,440.24a5.7,5.7,0,1,1-5.7-5.69A5.69,5.69,0,0,1,282.76,440.24Z" style="fill:#e0e0e0"></path><path d="M335.72,332.68A5.69,5.69,0,1,1,330,327,5.69,5.69,0,0,1,335.72,332.68Z" style="fill:#e0e0e0"></path><path d="M166.61,49.26a5.69,5.69,0,1,1-5.69-5.69A5.69,5.69,0,0,1,166.61,49.26Z" style="fill:#e0e0e0"></path><circle cx="190.73" cy="385.97" r="2.85" style="fill:#e0e0e0"></circle><path d="M124.91,371.77a2.85,2.85,0,1,1-2.85-2.84A2.84,2.84,0,0,1,124.91,371.77Z" style="fill:#e0e0e0"></path><path d="M195.07,55a2.85,2.85,0,1,1-2.85-2.85A2.86,2.86,0,0,1,195.07,55Z" style="fill:#e0e0e0"></path><path d="M320.43,208.94a2.85,2.85,0,1,1-2.85-2.85A2.85,2.85,0,0,1,320.43,208.94Z" style="fill:#e0e0e0"></path><path d="M47.13,46.5s-6.34,3.27,2.54,16.55,14.7,19.68,14.7,19.68,1.67,3.13-1,4-8.89.59-9.72,4.11,2.07,6.66,7.58,9S78.56,107.5,79.64,108s2.21,1.89.46,2.76S64.85,114.67,66.68,121s18.21,10.18,20,10.64,2.28,1.13,2.25,2.08-4.67,1.55-8.47,2.57-8,2.88-6.68,6.44,11.57,10.16,34.42,9.7l10.57-.9,4.68-9.58c8.77-21.1,6.35-33,3.53-35.59s-6.09.7-8.43,3.87-4.59,7.27-5.49,7-1.34-1-1.11-2.86,2.61-18.48-2.61-22.49-13,7.45-14.43,8.77-2.33-.29-2.4-1.45S91.68,84.92,91.56,79,89.71,69.17,86,68.64,80.38,74,78.62,76.19s-4.07-.48-4.07-.48-3.84-7.76-13-20.87S47,46.58,47,46.58" style="fill:#ebebeb"></path><path d="M119.6,153.93c-6.66-9.65-18.2-27-28.2-41.87s-19-28.28-25.65-38L57.91,62.62c-.92-1.34-1.63-2.39-2.13-3.11-.23-.36-.42-.63-.55-.82s-.17-.29-.17-.29l.2.27.58.8L58,62.55c1.89,2.68,4.59,6.58,7.92,11.41C72.6,83.61,81.69,97,91.68,111.88s21.51,32.23,28.12,41.92" style="fill:#e0e0e0"></path><path d="M62.26,91.5a3.41,3.41,0,0,1,.76.12c.48.09,1.18.25,2,.46,1.71.4,4.07,1,6.65,1.76l6.62,1.91,2,.57a2.61,2.61,0,0,1,.73.24,3.57,3.57,0,0,1-.76-.12c-.48-.09-1.18-.25-2-.46-1.71-.43-4.06-1.08-6.65-1.82L65,92.3l-2-.56A3.64,3.64,0,0,1,62.26,91.5Z" style="fill:#e0e0e0"></path><path d="M81.7,95.8c-.08,0,1-4.93,2.4-11s2.64-10.92,2.72-10.9-1,4.94-2.4,11S81.79,95.82,81.7,95.8Z" style="fill:#e0e0e0"></path><path d="M96,119.3a3,3,0,0,1,.35-.7l1-1.86c.88-1.57,2.09-3.74,3.34-6.18s2.3-4.69,3-6.32l.89-1.94a3.53,3.53,0,0,1,.36-.69,3.22,3.22,0,0,1-.24.74c-.18.48-.45,1.15-.8,2-.69,1.66-1.72,3.93-3,6.38s-2.49,4.61-3.42,6.15c-.47.77-.86,1.38-1.14,1.8A4,4,0,0,1,96,119.3Z" style="fill:#e0e0e0"></path><path d="M77.58,119.28a2.85,2.85,0,0,1,.72-.07l2-.08c1.67,0,4-.09,6.5-.12s4.83,0,6.49,0l2,0a3.13,3.13,0,0,1,.72,0,3,3,0,0,1-.72.07l-2,.08c-1.67.05-4,.1-6.5.13s-4.83,0-6.49,0l-2,0A3.42,3.42,0,0,1,77.58,119.28Z" style="fill:#e0e0e0"></path><path d="M87.58,141.63a5,5,0,0,1,.92-.08l2.52-.11c2.13-.08,5.07-.16,8.32-.23s6.19-.11,8.32-.13h2.53a6.12,6.12,0,0,1,.92,0,3.65,3.65,0,0,1-.92.09l-2.52.1c-2.13.08-5.07.16-8.32.23s-6.19.12-8.33.13H88.5A5.2,5.2,0,0,1,87.58,141.63Z" style="fill:#e0e0e0"></path><path d="M110.55,141a5.74,5.74,0,0,1,.42-.9l1.24-2.4c1.05-2,2.48-4.83,4-8s2.78-6,3.69-8.1l1.09-2.48a6.17,6.17,0,0,1,.43-.89,5.83,5.83,0,0,1-.31.94c-.23.6-.56,1.46-1,2.52-.86,2.11-2.11,5-3.62,8.16s-3,5.94-4.06,7.94c-.56,1-1,1.8-1.34,2.35A5.63,5.63,0,0,1,110.55,141Z" style="fill:#e0e0e0"></path><path d="M390.5,237c-11.27-9.83-12.34-25.93-10.32-40.09.33-2.37.34-4.9,1.7-6.86s4.14-3.1,6.15-1.87c1.67,1,2.22,3.15,3,5a14,14,0,0,0,5,5.91c1.43.95,3.25,1.63,4.83,1,2.17-.9,2.71-3.7,2.95-6.07q.68-6.6,1.34-13.2a22,22,0,0,1,1.47-6.93,7.35,7.35,0,0,1,5.13-4.45c2.31-.39,4.95,1.21,5.17,3.57a20.83,20.83,0,0,1-.25,2.94,2.49,2.49,0,0,0,1.2,2.49,2.85,2.85,0,0,0,2.71-.8,31.48,31.48,0,0,0,6.55-7.9,43.74,43.74,0,0,1,6.2-8.2c2.49-2.36,5.77-4.09,9.17-3.92s6.77,2.65,7.27,6-1.81,6.59-4.21,9.05a52.84,52.84,0,0,1-12.09,9.27,4.42,4.42,0,0,0-2.05,1.78c-.68,1.52.64,3.24,2.14,3.92,1.69.78,3.62.8,5.44,1.22s3.72,1.44,4.23,3.25c.71,2.52-1.58,4.83-3.75,6.27a45.27,45.27,0,0,1-14.18,6.27,15.33,15.33,0,0,0-5.22,1.88c-1.53,1.06-2.61,3.09-1.94,4.85s2.78,2.52,4.64,2.38a33.47,33.47,0,0,0,5.39-1.42c3.37-.88,7.53-.2,9.31,2.82a7.53,7.53,0,0,1,.08,6.69,17.37,17.37,0,0,1-4.2,5.45,45.76,45.76,0,0,1-20.84,11.52c-7.8,1.8-14.85,1.75-22-1.79" style="fill:#f5f5f5"></path><path d="M395.13,228.47A211.38,211.38,0,0,1,406,206.61l3.14-5.58c1-1.83,2.06-3.64,3.17-5.36a107.59,107.59,0,0,1,7-9.48c2.36-2.9,4.7-5.58,6.91-8.06s4.33-4.75,6.34-6.74a85.09,85.09,0,0,1,10.17-8.68c1.28-.92,2.3-1.61,3-2.06l.79-.52.28-.16a1.31,1.31,0,0,1-.25.2l-.77.55c-.68.48-1.68,1.19-2.94,2.13a90.07,90.07,0,0,0-10.06,8.76c-2,2-4.08,4.28-6.28,6.76s-4.53,5.17-6.87,8.08a106.42,106.42,0,0,0-6.91,9.46c-1.1,1.7-2.12,3.5-3.15,5.34l-3.14,5.58a219.26,219.26,0,0,0-10.85,21.8" style="fill:#e0e0e0"></path><path d="M412.41,195.67a4.92,4.92,0,0,1-.12-1c-.06-.67-.1-1.63-.14-2.83-.08-2.38-.08-5.68-.07-9.31s0-6.93-.14-9.31c-.06-1.19-.11-2.15-.16-2.81a4.85,4.85,0,0,1,0-1,4.5,4.5,0,0,1,.19,1c.1.66.2,1.62.29,2.81.2,2.38.3,5.68.28,9.33s0,6.83-.06,9.31v2.82A5.34,5.34,0,0,1,412.41,195.67Z" style="fill:#e0e0e0"></path><path d="M443.35,193.27a6.79,6.79,0,0,1-1.22,0c-.79,0-1.93,0-3.33,0-2.81,0-6.69.14-11,.48s-8.14.82-10.92,1.25c-1.39.2-2.51.4-3.29.53a6.63,6.63,0,0,1-1.21.16,5.86,5.86,0,0,1,1.18-.33c.77-.18,1.89-.43,3.28-.67,2.77-.51,6.64-1,10.93-1.38a107.27,107.27,0,0,1,11-.35c1.41,0,2.55.1,3.34.17A6,6,0,0,1,443.35,193.27Z" style="fill:#e0e0e0"></path><path d="M395.56,228a1.79,1.79,0,0,1-.17-.39c-.1-.31-.24-.69-.4-1.15-.34-1-.8-2.47-1.34-4.29-1.09-3.63-2.44-8.69-3.85-14.3s-2.71-10.69-3.72-14.34c-.49-1.77-.9-3.23-1.21-4.32-.13-.47-.23-.86-.32-1.18a2,2,0,0,1-.09-.42,1.34,1.34,0,0,1,.17.4l.4,1.15c.35,1,.81,2.47,1.35,4.28,1.09,3.64,2.43,8.7,3.84,14.31s2.71,10.68,3.72,14.34c.5,1.77.91,3.23,1.21,4.32l.33,1.17A1.23,1.23,0,0,1,395.56,228Z" style="fill:#e0e0e0"></path><path d="M437.27,219.31a2.52,2.52,0,0,1-.42.12l-1.21.26-4.47.94c-3.77.79-9,1.94-14.71,3.21s-10.95,2.39-14.74,3.1c-1.9.35-3.43.63-4.5.79l-1.23.19a1.17,1.17,0,0,1-.43,0l.42-.12,1.21-.26,4.47-.94c3.77-.79,9-1.94,14.71-3.22s10.95-2.38,14.74-3.09c1.9-.36,3.43-.63,4.5-.79l1.23-.19A1.17,1.17,0,0,1,437.27,219.31Z" style="fill:#e0e0e0"></path><path d="M303.63,68c1.81-10.42,6.78-25.65,12.73-34.39S331.48,18,342,16.5,364,20,368.7,29.43c2.53,5.07,3,10.91,4.84,16.26s5.88,10.72,11.53,11.15c5,.39,9.83-3.22,14.75-2.26,6.42,1.25,8.89,9.15,8.93,15.68s-.9,13.79,3.12,18.94c3.28,4.22,8.91,5.67,13.44,8.5,9.81,6.12,14,18.75,13,30.27s-6.3,22.18-11.93,32.27a252.86,252.86,0,0,0-19-47.88c-4.55-8.72-12.86-16.13-20.21-22.66-11.29-10-36.06-14.81-51.05-16.65s-17.63-2.24-32.46-5" style="fill:#e0e0e0"></path></g></svg>